<svg id="individual_paths" data-name="individual paths" xmlns="http://www.w3.org/2000/svg" viewBox="0 0 802.55 1478.95"><defs><style>.cls-1{fill:none;stroke:#000;stroke-miterlimit:10;stroke-width:0.5px;}</style></defs><path class="cls-1" d="M376.66 840.42 425.15 842.62 402.59 836.79 376.66 840.42z"/><path class="cls-1" d="M373.08 804.97 376.66 840.42 402.59 836.79 373.08 804.97z"/><path class="cls-1" d="M402.59 836.79 425.15 842.62 418.44 799.8 402.59 836.79z"/><path class="cls-1" d="M425.15 842.62 447.94 834.91 418.44 799.8 425.15 842.62z"/><path class="cls-1" d="M340.16 782.62 373.08 804.97 368.57 776.02 340.16 782.62z"/><path class="cls-1" d="M333.01 746.4 340.16 782.62 368.57 776.02 333.01 746.4z"/><path class="cls-1" d="M447.94 834.91 435.5 797.92 418.44 799.8 447.94 834.91z"/><path class="cls-1" d="M368.57 776.02 373.08 804.97 387.39 782.73 368.57 776.02z"/><path class="cls-1" d="M387.39 782.73 373.08 804.97 418.44 799.8 387.39 782.73z"/><path class="cls-1" d="M418.44 799.8 373.08 804.97 402.59 836.79 418.44 799.8z"/><path class="cls-1" d="M435.5 797.92 470.18 777.34 443.76 780.64 435.5 797.92z"/><path class="cls-1" d="M481.41 761.92 503.65 721.63 488.68 707.87 481.41 761.92z"/><path class="cls-1" d="M470.19 777.34 481.42 761.92 470.19 758.62 470.19 777.34z"/><path class="cls-1" d="M418.44 799.8 435.5 797.92 407.68 780.65 418.44 799.8z"/><path class="cls-1" d="M456.53 653.81 481.41 761.92 488.68 707.87 456.53 653.81z"/><path class="cls-1" d="M470.18 758.62 481.41 761.92 475.8 756.86 470.18 758.62z"/><path class="cls-1" d="M407.68 780.65 407.68 780.65 435.5 797.93 443.76 780.64 407.68 780.65z"/><path class="cls-1" d="M455.43 761.92 470.19 777.34 470.19 758.62 455.43 761.92z"/><path class="cls-1" d="M366.7 764.57 333.01 746.4 368.57 776.02 366.7 764.57z"/><path class="cls-1" d="M443.76 780.64 470.18 777.34 455.43 761.92 443.76 780.64z"/><path class="cls-1" d="M442.88 727.13 475.8 756.86 475.8 756.86 475.8 756.86 481.41 761.92 456.53 653.81 442.88 727.13z"/><path class="cls-1" d="M255 571.21 256.27 590.29 270.93 603.13 255 571.21 255 571.21z"/><path class="cls-1" d="M191.21 583.58 263.29 604.27 256.27 590.29 191.21 583.58z"/><path class="cls-1" d="M263.29 604.27 270.93 603.13 256.27 590.29 263.29 604.27z"/><path class="cls-1" d="M305.06 567.68 296.68 564.2 307.25 580.93 305.06 567.68z"/><path class="cls-1" d="M255 571.21 270.93 603.13 296.68 564.2 255 571.21z"/><path class="cls-1" d="M270.93 603.13 294.15 599.65 296.68 564.2 270.93 603.13z"/><path class="cls-1" d="M146.05 562.24 146.05 562.24 191.21 583.58 200.46 567.28 146.05 562.24z"/><path class="cls-1" d="M146.05 562.24 146.05 562.24 146.05 562.24 146.05 562.24z"/><path class="cls-1" d="M255 571.21 244.94 572.91 191.21 583.58 256.27 590.29 255 571.21z"/><path class="cls-1" d="M200.46 567.28 191.21 583.58 244.94 572.91 200.46 567.28z"/><path class="cls-1" d="M328.03 558.48 343.36 583.58 381.01 577.85 288.48 499.08 328.03 558.48z"/><path class="cls-1" d="M382.18 660.43 412.01 577.64 381.19 577.64 382.17 660.44 382.18 660.43z"/><path class="cls-1" d="M363.28 490.45 369.94 530.42 381.01 577.64 411.83 577.64 363.28 490.45z"/><path class="cls-1" d="M381.2 577.85 350.49 716.57 382.19 660.65 381.2 577.85z"/><path class="cls-1" d="M382.19 660.67 382.19 660.65 350.48 716.57 366.89 764.57 382.19 660.67z"/><path class="cls-1" d="M288.48 499.08 381.01 577.85 369.94 530.62 288.48 499.08z"/><path class="cls-1" d="M296.68 564.2 305.06 567.68 305.06 567.68 305.06 567.68 343.36 583.58 328.03 558.48 296.68 564.2z"/><path class="cls-1" d="M294.15 599.65 343.36 583.58 307.25 580.93 294.15 599.65z"/><path class="cls-1" d="M307.25 580.93 343.36 583.58 305.06 567.68 307.25 580.93z"/><path class="cls-1" d="M296.68 564.2 294.15 599.65 307.25 580.93 296.68 564.2z"/><path class="cls-1" d="M350.29 716.57 333.01 746.4 366.7 764.57 350.29 716.57z"/><path class="cls-1" d="M555.61 540.2 604.93 543.06 608.68 496.16 555.61 540.2z"/><path class="cls-1" d="M408.86 361.52 298.38 252.2 288.31 386.79 408.86 361.52z"/><path class="cls-1" d="M288.31 386.79 298.38 252.2 174.7 311.32 287.15 387.83 288.31 386.79z"/><path class="cls-1" d="M619.47 285.01 519.83 361.52 613.74 403.49 619.47 285.01z"/><path class="cls-1" d="M174.7 311.32 127.8 414.37 200.46 466.05 174.7 311.32z"/><path class="cls-1" d="M287.15 387.83 174.7 311.32 200.46 466.05 287.15 387.83z"/><path class="cls-1" d="M613.74 403.49 519.83 361.52 580.72 448.6 613.74 403.49z"/><path class="cls-1" d="M200.46 466.05 127.8 414.37 152.46 510.48 200.46 466.05z"/><path class="cls-1" d="M415.58 489.56 467.76 486.92 408.86 361.52 363.28 490.66 415.58 489.56z"/><path class="cls-1" d="M580.72 448.6 519.83 361.52 467.76 486.92 580.72 448.6z"/><path class="cls-1" d="M519.83 361.64 408.86 361.64 467.76 487.04 519.83 361.64z"/><path class="cls-1" d="M363.28 490.66 408.86 361.52 288.31 386.79 363.28 490.66z"/><path class="cls-1" d="M503.65 721.63 495.61 581.81 488.68 707.87 503.65 721.63z"/><path class="cls-1" d="M294.15 599.65 300.06 667.21 300.64 667.58 343.36 583.58 294.15 599.65z"/><path class="cls-1" d="M333.01 746.4 292.5 840.42 340.16 782.62 333.01 746.4z"/><path class="cls-1" d="M300.64 667.58 292.5 840.42 333.01 746.4 300.64 667.58z"/><path class="cls-1" d="M270.93 603.13 263.29 604.27 299.77 667.02 300.06 667.21 294.15 599.65 270.93 603.13z"/><path class="cls-1" d="M191.21 583.58 202.99 605.59 263.29 604.27 191.21 583.58z"/><path class="cls-1" d="M141.01 602.96 202.99 605.59 191.21 583.58 141.01 602.96z"/><path class="cls-1" d="M202.99 605.59 299.77 667.02 263.29 604.27 202.99 605.59z"/><path class="cls-1" d="M146.05 562.24 141.01 602.96 191.21 583.58 146.05 562.24z"/><path class="cls-1" d="M146.05 562.24 146.05 562.24 146.2 561.02 152.46 510.48 127.8 414.37 141.01 602.96 146.05 562.24 146.05 562.24z"/><path class="cls-1" d="M343.36 584.24 350.29 716.57 381.01 577.85 343.36 583.58 300.64 667.58 333.01 746.4 343.36 584.24z"/><path class="cls-1" d="M535.93 576.37 551.46 592.55 537.42 558.33 535.93 576.37z"/><path class="cls-1" d="M517.3 558.7 535.93 576.37 537.42 558.33 551.46 592.55 577.54 557.6 517.3 558.7z"/><path class="cls-1" d="M495.61 581.81 551.46 592.55 535.93 576.37 495.61 581.81z"/><path class="cls-1" d="M577.54 557.6 551.46 592.55 575.73 594.61 577.73 557.6 577.54 557.6z"/><path class="cls-1" d="M693.01 340.93 619.47 285.01 613.74 403.49 693.01 340.93z"/><path class="cls-1" d="M575.73 594.61 590.47 561.46 578.07 557.59 577.73 557.6 575.73 594.61z"/><path class="cls-1" d="M510.62 550.06 510.62 550.06 534.7 499.08 456.53 586 495.61 581.81 510.62 550.06 510.62 550.06z"/><path class="cls-1" d="M488.68 707.87 495.61 581.81 456.53 586 488.68 707.87z"/><path class="cls-1" d="M517.3 558.7 495.61 581.81 535.93 576.37 517.3 558.7z"/><path class="cls-1" d="M510.62 550.06 495.61 581.81 517.3 558.7 510.62 550.06z"/><path class="cls-1" d="M577.73 557.6 578.07 557.59 577.74 557.34 577.73 557.6z"/><path class="cls-1" d="M680.87 527.35 681.42 527.24 660.86 466.05 608.68 496.16 680.87 527.35z"/><path class="cls-1" d="M580.72 448.6 660.86 466.05 613.74 403.49 580.72 448.6z"/><path class="cls-1" d="M608.68 496.16 660.86 466.05 580.72 448.6 608.68 496.16z"/><path class="cls-1" d="M660.86 466.05 693.01 340.93 613.74 403.49 660.86 466.05z"/><path class="cls-1" d="M608.68 496.16 604.93 543.06 680.87 527.35 608.68 496.16z"/><path class="cls-1" d="M577.74 557.34 577.74 557.34 577.74 557.34 578.07 557.59 604.93 543.06 555.61 540.2 577.74 557.34z"/><path class="cls-1" d="M681.07 527.44 681.43 527.27 681.42 527.24 680.87 527.35 681.07 527.44z"/><path class="cls-1" d="M146.05 562.24 146.05 562.24 146.05 562.24 146.05 562.24z"/><path class="cls-1" d="M340.16 782.62 292.5 840.42 373.08 804.97 340.16 782.62z"/><path class="cls-1" d="M604.93 543.06 630.04 551.43 681.07 527.44 680.87 527.35 604.93 543.06z"/><path class="cls-1" d="M394 896.35 425.15 842.62 376.66 840.42 394 896.35z"/><path class="cls-1" d="M343.36 584.24 333.01 746.4 350.29 716.57 343.36 584.24z"/><path class="cls-1" d="M577.73 557.6 577.74 557.34 577.74 557.34 577.54 557.6 577.73 557.6z"/><path class="cls-1" d="M482.07 769.63 481.41 761.92 470.18 777.34 482.07 769.63z"/><path class="cls-1" d="M577.74 557.34 577.74 557.34 577.74 557.34 577.74 557.34z"/><path class="cls-1" d="M590.47 561.46 590.47 561.46 590.47 561.46 590.47 561.46z"/><path class="cls-1" d="M528.31 248.02 519.83 361.52 619.47 285.01 528.31 248.02z"/><path class="cls-1" d="M645.89 170.95 528.31 248.02 619.47 285.01 645.89 170.95z"/><path class="cls-1" d="M577.54 557.6 577.74 557.34 555.61 540.2 517.3 558.7 577.54 557.6z"/><path class="cls-1" d="M590.19 579.56 590.19 561.46 590.19 561.46 575.45 594.61 590.19 579.56z"/><path class="cls-1" d="M488.33 707.87 456.19 586 456.19 653.81 488.33 707.87z"/><path class="cls-1" d="M470.18 758.62 475.8 756.86 442.88 727.13 455.43 761.92 470.18 758.62z"/><path class="cls-1" d="M523.91 179.87 528.31 248.02 645.89 170.95 523.91 179.87z"/><path class="cls-1" d="M580.72 448.6 467.76 486.92 534.7 499.08 580.72 448.6z"/><path class="cls-1" d="M382.19 660.65 382.19 660.67 382.19 660.64 382.19 660.65z"/><path class="cls-1" d="M200.46 567.28 199.14 519.28 146.05 562.24 146.05 562.24 200.46 567.28z"/><path class="cls-1" d="M555.61 540.2 608.68 496.16 534.7 499.08 555.61 540.2z"/><path class="cls-1" d="M510.62 550.06 517.3 558.7 555.61 540.2 510.62 550.06 510.62 550.06z"/><path class="cls-1" d="M510.62 550.06 555.61 540.2 534.7 499.08 510.62 550.06z"/><path class="cls-1" d="M510.62 550.06 510.62 550.06 510.62 550.06 510.62 550.06z"/><path class="cls-1" d="M608.68 496.16 580.72 448.6 534.7 499.08 608.68 496.16z"/><path class="cls-1" d="M536.58 899.71 458.84 896.02 422.4 951.72 536.58 899.71z"/><path class="cls-1" d="M300.09 667.58 300.06 667.21 299.77 667.02 300.09 667.58z"/><path class="cls-1" d="M72.53 715.69 98.51 689.7 60.2 687.94 72.53 715.69z"/><path class="cls-1" d="M54.48 628.05 60.2 687.94 64.07 609.23 54.48 628.05z"/><path class="cls-1" d="M556.93 1243.69 554.73 1197.01 457.74 1263.06 556.93 1243.69z"/><path class="cls-1" d="M60.2 687.94 98.51 689.7 64.07 609.23 60.2 687.94z"/><path class="cls-1" d="M514.22 1365.23 556.93 1243.69 457.74 1263.06 514.22 1365.23z"/><path class="cls-1" d="M648.75 1001.26 577.19 1072.82 645.89 1099.24 648.75 1001.26z"/><path class="cls-1" d="M648.53 1001.04 711.72 884.13 594.81 939.83 648.53 1001.04z"/><path class="cls-1" d="M98.95 836.79 93.67 790.49 86.62 810.03 98.95 836.79z"/><path class="cls-1" d="M123.41 835.5 93.67 790.49 98.95 836.79 123.41 835.5z"/><path class="cls-1" d="M93.67 790.49 98.51 689.7 72.53 715.69 93.67 790.49z"/><path class="cls-1" d="M1052.06,1728.86c-2-.33-35.34-5.28-35.34-5.28l-35,11.23Z" transform="translate(-594.31 -771.86)"/><path class="cls-1" d="M427.36 1014.14 457.74 957.01 387.39 962.95 427.36 1014.14z"/><path class="cls-1" d="M426.15 575.87 411.83 577.85 423.06 660.64 426.15 575.87z"/><path class="cls-1" d="M342.15 935.87 387.39 962.95 320.68 901.52 342.15 935.87z"/><path class="cls-1" d="M387.39 962.95 422.4 951.72 320.68 901.52 387.39 962.95z"/><path class="cls-1" d="M220.05 1236.64 249.94 1325.15 291.39 1211.1 220.05 1236.64z"/><path class="cls-1" d="M249.94 1325.15 399.28 1261.52 291.39 1211.1 249.94 1325.15z"/><path class="cls-1" d="M681.56 527.65 681.45 527.33 681.27 527.52 681.56 527.65z"/><path class="cls-1" d="M554.73 1197.01 509.6 1123.8 457.74 1263.06 554.73 1197.01z"/><path class="cls-1" d="M770.07 379.25 729.12 346.66 717.23 440.46 770.07 379.25z"/><path class="cls-1" d="M368.57 776.02 387.39 782.73 366.7 764.57 368.57 776.02z"/><path class="cls-1" d="M288.2 386.79 287.05 387.83 288.19 388.61 288.2 386.79z"/><path class="cls-1" d="M200.71 567.28 245.19 572.91 245.19 548.57 200.71 567.28z"/><path class="cls-1" d="M199.14 519.28 200.46 567.28 244.94 548.57 199.14 519.28z"/><path class="cls-1" d="M287.49 465.64 200.46 465.64 288.48 498.67 287.49 465.64z"/><path class="cls-1" d="M288.19 388.61 288.19 388.61 288.19 466.05 363.28 490.66 289.19 386.79 288.19 388.61 288.19 388.61z"/><path class="cls-1" d="M287.99 388.2 286.85 387.43 200.16 465.64 287.19 465.64 287.99 388.2z"/><path class="cls-1" d="M426.15 575.87 415.58 489.56 411.83 577.85 426.15 575.87z"/><path class="cls-1" d="M415.58 489.56 363.28 490.66 411.83 577.85 415.58 489.56z"/><path class="cls-1" d="M369.94 530.62 363.28 490.66 287.49 466.05 369.94 530.62z"/><path class="cls-1" d="M288.48 499.08 369.94 530.62 287.49 466.05 288.48 499.08z"/><path class="cls-1" d="M296.68 564.2 328.03 558.48 287.49 545.7 296.68 564.2z"/><path class="cls-1" d="M255 571.21 255 571.21 255 571.21 255 571.21z"/><path class="cls-1" d="M288.48 499.08 200.46 466.05 199.14 519.28 288.48 499.08z"/><path class="cls-1" d="M287.49 545.7 288.48 499.08 244.94 548.57 287.49 545.7z"/><path class="cls-1" d="M200.46 466.05 152.46 510.48 199.14 519.28 200.46 466.05z"/><path class="cls-1" d="M152.46 510.48 146.2 561.02 146.05 562.24 199.14 519.28 152.46 510.48z"/><path class="cls-1" d="M244.94 548.57 288.48 499.08 199.14 519.28 244.94 548.57z"/><path class="cls-1" d="M245.19 572.91 255.25 571.21 255.25 571.21 255.25 571.21 296.93 564.2 245.19 548.57 245.19 572.91z"/><path class="cls-1" d="M244.94 548.57 296.68 564.2 287.49 545.7 244.94 548.57z"/><path class="cls-1" d="M328.03 558.48 288.48 499.08 287.49 545.7 328.03 558.48z"/><path class="cls-1" d="M467.76 486.92 415.58 489.56 426.15 575.87 467.76 486.92z"/><path class="cls-1" d="M407.68 780.65 407.76 780.64 455.43 761.92 398.4 764.13 407.68 780.65z"/><path class="cls-1" d="M398.4 764.13 387.39 782.73 407.68 780.65 398.4 764.13z"/><path class="cls-1" d="M376.66 760.47 387.39 782.73 398.4 764.13 376.66 760.47z"/><path class="cls-1" d="M407.68 780.65 407.68 780.65 407.68 780.65 407.68 780.65z"/><path class="cls-1" d="M366.7 764.57 387.39 782.73 376.66 760.47 366.7 764.57z"/><path class="cls-1" d="M387.39 782.73 418.44 799.8 407.68 780.65 407.68 780.65 407.68 780.65 407.68 780.65 387.39 782.73z"/><path class="cls-1" d="M376.66 760.47 398.4 764.13 403.47 727.13 372.3 758.86 376.66 760.47z"/><path class="cls-1" d="M372.3 758.86 366.7 764.57 376.66 760.47 372.3 758.86z"/><path class="cls-1" d="M423.06 660.64 382 660.64 403.47 727.14 423.06 660.64z"/><path class="cls-1" d="M407.68 780.64 407.68 780.64 443.76 780.64 455.43 761.92 407.76 780.64 407.68 780.64z"/><path class="cls-1" d="M403.47 727.13 382 660.64 381.19 660.67 382.19 661.08 382.19 660.67 366.7 764.57 372.3 758.86 403.47 727.13z"/><path class="cls-1" d="M455.43 761.43 442.88 726.64 403.47 726.64 455.43 761.43z"/><path class="cls-1" d="M456.19 653.81 456.19 586 425.8 575.87 456.19 653.81z"/><path class="cls-1" d="M423.06 660.64 456.53 653.81 426.15 575.87 423.06 660.64z"/><path class="cls-1" d="M456.53 586 534.7 499.08 463.59 523.74 456.53 586z"/><path class="cls-1" d="M534.7 499.08 467.76 486.92 463.59 523.74 534.7 499.08z"/><path class="cls-1" d="M411.83 577.86 382 660.64 423.06 660.64 411.83 577.86z"/><path class="cls-1" d="M398.4 764.13 455.43 761.92 403.47 727.13 398.4 764.13z"/><path class="cls-1" d="M456.53 586 463.59 523.74 467.76 486.92 426.15 575.87 456.53 586z"/><path class="cls-1" d="M442.88 727.13 456.53 653.81 423.06 660.64 442.88 727.13z"/><path class="cls-1" d="M403.47 726.64 442.88 726.64 423.06 660.15 403.47 726.64z"/><path class="cls-1" d="M717.23 440.46 729.12 346.66 693.01 340.93 717.23 440.46z"/><path class="cls-1" d="M637.08 122.51 534.04 69.23 523.91 140.57 637.08 122.51z"/><path class="cls-1" d="M416.68 103.8 317.82 0.53 247.36 62.95 416.68 103.8z"/><path class="cls-1" d="M534.04 69.23 466.66 108.42 523.91 140.57 534.04 69.23z"/><path class="cls-1" d="M441.23 190.77 448.33 243.78 466.66 108.42 397.52 25.19 416.68 103.8 441.23 190.77z"/><path class="cls-1" d="M397.52 25.19 317.82 0.53 416.68 103.8 397.52 25.19z"/><path class="cls-1" d="M523.91 140.57 466.66 108.42 448.33 243.78 523.91 140.57z"/><path class="cls-1" d="M732.64 248.02 734.84 166.99 711.94 174.91 732.64 248.02z"/><path class="cls-1" d="M648.09 94.33 534.04 69.23 637.08 122.51 648.09 94.33z"/><path class="cls-1" d="M734.84 166.99 648.09 94.33 711.94 174.91 734.84 166.99z"/><path class="cls-1" d="M711.94 174.91 648.09 94.33 637.08 122.51 711.94 174.91z"/><path class="cls-1" d="M247.36 62.95 142.33 93.01 197.16 115.47 247.36 62.95z"/><path class="cls-1" d="M107.32 267.06 14.84 336.75 74.29 384.09 107.32 267.06z"/><path class="cls-1" d="M78.26 185.81 14.84 336.75 107.32 267.06 78.26 185.81z"/><path class="cls-1" d="M74.29 384.09 0.75 456.75 84.86 474.37 74.29 384.09z"/><path class="cls-1" d="M203.59 193.91 78.26 185.81 107.32 267.06 203.59 193.91z"/><path class="cls-1" d="M14.84 336.75 0.75 456.75 74.29 384.09 14.84 336.75z"/><path class="cls-1" d="M142.33 93.01 78.26 185.81 197.16 115.47 142.33 93.01z"/><path class="cls-1" d="M781.08 269.15 734.84 166.99 732.64 248.02 781.08 269.15z"/><path class="cls-1" d="M236.79 22.99 142.33 93.01 247.36 62.95 236.79 22.99z"/><path class="cls-1" d="M197.16 115.47 78.26 185.81 203.59 193.91 197.16 115.47z"/><path class="cls-1" d="M317.82 0.53 236.79 22.99 247.36 62.95 317.82 0.53z"/><path class="cls-1" d="M627.09 589.74 696.97 653.81 636.64 575.87 627.09 589.74z"/><path class="cls-1" d="M532.16 875.43 560.68 808.22 509.82 784.38 532.16 875.43z"/><path class="cls-1" d="M482.95 796.6 532.16 875.43 509.82 784.38 482.95 796.6z"/><path class="cls-1" d="M509.82 784.38 560.68 808.22 517.08 761.92 509.82 784.38z"/><path class="cls-1" d="M679.36 770.12 696.97 653.64 530.73 653.64 679.36 770.12z"/><path class="cls-1" d="M560.68 808.22 679.36 770.29 530.73 653.81 560.68 808.22z"/><path class="cls-1" d="M517.08 761.92 560.68 808.22 530.73 653.81 517.08 761.92z"/><path class="cls-1" d="M475.03 836.46 532.16 875.43 482.95 796.6 475.03 836.46z"/><path class="cls-1" d="M458.84 896.02 536.58 899.71 537.67 899.21 475.03 836.46 458.84 896.02z"/><path class="cls-1" d="M1131.29,1671.58l.69-.52-1.09.5Z" transform="translate(-594.31 -771.86)"/><path class="cls-1" d="M1016.72,1723.58s33.35,5,35.34,5.28,75.4-54.42,79.23-57.28l-.4,0Z" transform="translate(-594.31 -771.86)"/><path class="cls-1" d="M681.56 527.21 740.57 575.87 717.23 440.46 681.56 527.21z"/><path class="cls-1" d="M740.57 575.87 802.22 395.54 770.07 379.25 740.57 575.87z"/><path class="cls-1" d="M717.23 440.46 740.57 575.87 770.07 379.25 717.23 440.46z"/><path class="cls-1" d="M802.22 395.54 780.86 271.38 770.07 379.25 802.22 395.54z"/><path class="cls-1" d="M770.07 379.25 780.86 271.38 780.86 271.38 780.86 271.38 781.08 269.15 729.12 346.66 770.07 379.25z"/><path class="cls-1" d="M729.12 346.66 781.08 269.15 732.64 248.02 729.12 346.66z"/><path class="cls-1" d="M84.86 474.37 0.75 456.75 109.52 571.69 84.86 474.37z"/><path class="cls-1" d="M530.73 653.64 696.97 653.64 627.09 589.57 530.73 653.64z"/><path class="cls-1" d="M681.45 527.33 681.56 527.65 681.27 527.52 636.64 575.87 696.97 653.81 681.56 527.21 681.45 527.33z"/><path class="cls-1" d="M696.97 653.81 740.57 575.87 681.56 527.21 696.97 653.81z"/><path class="cls-1" d="M537.67 899.21 532.16 875.43 475.03 836.46 537.67 899.21z"/><path class="cls-1" d="M1149.05,1968.86l111.41-39.63-20.26-58.13S1150.37,1968.42,1149.05,1968.86Z" transform="translate(-594.31 -771.86)"/><path class="cls-1" d="M1240.2,1871.1l-68.69-26.42s-23.78,124.62-22.46,124.18S1240.2,1871.1,1240.2,1871.1Z" transform="translate(-594.31 -771.86)"/><path class="cls-1" d="M1149.05,1968.86c-1.32.44,22.46-124.18,22.46-124.18l-67.6,51Z" transform="translate(-594.31 -771.86)"/><path class="cls-1" d="M577.19 1072.82 594.81 939.83 525.67 1011.5 577.19 1072.82z"/><path class="cls-1" d="M509.6 1123.8 577.19 1072.82 525.67 1011.5 509.6 1123.8z"/><path class="cls-1" d="M565.3 1396.93 636.2 1288.16 556.93 1243.69 565.3 1396.93z"/><path class="cls-1" d="M525.67 1011.32 594.81 939.64 515.21 940.2 525.67 1011.32z"/><path class="cls-1" d="M514.22 1365.23 565.3 1396.93 556.93 1243.69 514.22 1365.23z"/><path class="cls-1" d="M636.2 1288.16 666.15 1157.37 556.93 1243.69 636.2 1288.16z"/><path class="cls-1" d="M292.5 840.42 320.68 901.52 373.08 804.97 292.5 840.42z"/><path class="cls-1" d="M696.59 653.81 740.19 689.81 740.19 575.87 696.59 653.81z"/><path class="cls-1" d="M679.36 770.29 740.57 689.81 696.97 653.81 679.36 770.29z"/><path class="cls-1" d="M740.19 689.81 749.65 635.81 740.19 575.87 740.19 689.81z"/><path class="cls-1" d="M711.72 884.13 740.57 689.81 679.36 770.29 711.72 884.13z"/><path class="cls-1" d="M447.28 1474.88 565.3 1396.93 514.22 1365.23 447.28 1474.88z"/><path class="cls-1" d="M532.16 875.43 594.81 939.83 560.68 808.22 532.16 875.43z"/><path class="cls-1" d="M594.81 939.83 711.72 884.13 679.36 770.29 594.81 939.83z"/><path class="cls-1" d="M1131.29,1671.84l.69,0-22.46,40.62,79.6-.55L1132,1671.33Z" transform="translate(-594.31 -771.86)"/><path class="cls-1" d="M537.67 899.21 594.81 939.83 532.16 875.43 537.67 899.21z"/><path class="cls-1" d="M560.68 808.22 594.81 939.83 679.36 770.29 560.68 808.22z"/><path class="cls-1" d="M313.4 1430.84 396.19 1477.08 398.83 1261.52 313.4 1430.84z"/><path class="cls-1" d="M331.91 1017.12 187.03 973.3 288.48 1088.95 331.91 1017.12z"/><path class="cls-1" d="M272.46 957.01 187.03 973.3 331.91 1017.12 272.46 957.01z"/><path class="cls-1" d="M187.03 973.3 164.57 1103.21 288.48 1088.95 187.03 973.3z"/><path class="cls-1" d="M193.19 810.03 187.03 973.3 272.46 957.01 193.19 810.03z"/><path class="cls-1" d="M457.74 1263.06 447.28 1474.88 514.22 1365.23 457.74 1263.06z"/><path class="cls-1" d="M128.02 861.01 187.03 973.3 193.19 810.03 128.02 861.01z"/><path class="cls-1" d="M109.52 571.69 98.51 689.7 161.71 680.68 109.52 571.69z"/><path class="cls-1" d="M161.71 680.68 98.51 689.7 193.19 810.03 161.71 680.68z"/><path class="cls-1" d="M164.57 1103.21 135.94 1133.59 291.39 1211.1 164.57 1103.21z"/><path class="cls-1" d="M98.51 689.7 128.02 861.01 193.19 810.03 98.51 689.7z"/><path class="cls-1" d="M288.48 1088.95 164.57 1103.21 291.39 1211.1 288.48 1088.95z"/><path class="cls-1" d="M0.75 456.75 64.07 609.23 98.51 689.7 109.52 571.69 0.75 456.75z"/><path class="cls-1" d="M399.19 1261.52 396.54 1477.08 457.64 1263.06 399.19 1261.52z"/><path class="cls-1" d="M249.94 1325.15 313.85 1430.84 399.28 1261.52 249.94 1325.15z"/><path class="cls-1" d="M396.64 1477.08 447.28 1474.88 457.74 1263.06 396.64 1477.08z"/><path class="cls-1" d="M148.72 1212.86 198.92 1319.43 220.05 1236.64 148.72 1212.86z"/><path class="cls-1" d="M291.39 1211.1 135.94 1133.59 220.05 1236.64 291.39 1211.1z"/><path class="cls-1" d="M135.94 1133.59 148.72 1212.86 220.05 1236.64 135.94 1133.59z"/><path class="cls-1" d="M220.05 1236.64 198.92 1319.43 249.94 1325.15 220.05 1236.64z"/><path class="cls-1" d="M198.92 1319.43 313.85 1430.84 249.94 1325.15 198.92 1319.43z"/><path class="cls-1" d="M556.93 1243.69 666.15 1157.37 554.73 1197.01 556.93 1243.69z"/><path class="cls-1" d="M630.04 551.43 636.64 575.87 681.27 527.52 681.07 527.44 630.04 551.43z"/><path class="cls-1" d="M681.07 527.44 681.27 527.52 681.45 527.33 681.43 527.27 681.07 527.44z"/><path class="cls-1" d="M604.93 543.06 636.64 575.87 630.04 551.43 604.93 543.06z"/><path class="cls-1" d="M681.45 527.33 681.56 527.21 681.43 527.27 681.45 527.33z"/><path class="cls-1" d="M681.43 527.27 681.56 527.21 681.42 527.24 681.43 527.27z"/><path class="cls-1" d="M681.42 527.24 681.56 527.21 717.23 440.46 660.86 466.05 681.42 527.24z"/><path class="cls-1" d="M575.73 594.61 636.64 575.87 590.47 579.56 575.73 594.61z"/><path class="cls-1" d="M578.07 557.59 590.47 561.46 590.47 561.46 590.47 561.46 636.64 575.87 604.93 543.06 578.07 557.59z"/><path class="cls-1" d="M627.09 589.74 636.64 575.87 575.73 594.61 627.09 589.74z"/><path class="cls-1" d="M528.31 248.02 448.33 243.78 519.83 361.52 528.31 248.02z"/><path class="cls-1" d="M646.17 170.95 524.19 140.57 524.19 179.87 646.17 170.95z"/><path class="cls-1" d="M637.08 122.51 523.91 140.57 645.89 170.95 637.08 122.51z"/><path class="cls-1" d="M530.73 653.81 627.09 589.74 575.73 594.61 530.73 653.81z"/><path class="cls-1" d="M524.19 140.57 448.61 243.78 524.19 179.87 524.19 140.57z"/><path class="cls-1" d="M660.86 466.05 717.23 440.46 693.01 340.93 660.86 466.05z"/><path class="cls-1" d="M523.91 179.87 448.33 243.78 528.31 248.02 523.91 179.87z"/><path class="cls-1" d="M711.94 174.91 637.08 122.51 645.89 170.95 711.94 174.91z"/><path class="cls-1" d="M732.64 248.02 711.94 174.91 645.89 170.95 732.64 248.02z"/><path class="cls-1" d="M693.01 340.93 732.64 248.02 619.47 285.01 693.01 340.93z"/><path class="cls-1" d="M729.12 346.66 732.64 248.02 693.01 340.93 729.12 346.66z"/><path class="cls-1" d="M619.47 285.01 732.64 248.02 645.89 170.95 619.47 285.01z"/><path class="cls-1" d="M590.19 579.56 636.36 575.87 590.19 561.46 590.19 579.56z"/><path class="cls-1" d="M458.84 896.02 475.03 836.46 425.15 842.62 458.84 896.02z"/><path class="cls-1" d="M394 896.64 458.84 896.32 425.15 842.92 394 896.64z"/><path class="cls-1" d="M422.4 951.35 458.84 895.64 394 895.98 422.4 951.35z"/><path class="cls-1" d="M1069.34,1608.31l7.93-39.85c.55,0-35,38.31-35,38.31Z" transform="translate(-594.31 -771.86)"/><path class="cls-1" d="M425.15 842.62 475.03 836.46 447.94 834.91 425.15 842.62z"/><path class="cls-1" d="M376.66 840.42 320.68 901.52 394 896.35 376.66 840.42z"/><path class="cls-1" d="M347.54 862.88 320.68 901.52 376.66 840.42 347.54 862.88z"/><path class="cls-1" d="M376.66 840.42 373.08 804.97 320.68 901.52 347.54 862.88 376.66 840.42z"/><path class="cls-1" d="M1042.26,1606.77s35.56-38.31,35-38.31l-47.45,1.32Z" transform="translate(-594.31 -771.86)"/><path class="cls-1" d="M320.68 901.52 422.4 951.72 394 896.35 320.68 901.52z"/><path class="cls-1" d="M551.46 592.55 530.73 653.81 575.73 594.61 551.46 592.55z"/><path class="cls-1" d="M517.08 761.92 530.73 653.81 503.65 721.63 517.08 761.92z"/><path class="cls-1" d="M481.41 761.64 517.08 761.64 503.65 721.35 481.41 761.64z"/><path class="cls-1" d="M503.65 721.63 530.73 653.81 495.61 581.81 503.65 721.63z"/><path class="cls-1" d="M495.61 581.81 530.73 653.81 551.46 592.55 495.61 581.81z"/><path class="cls-1" d="M470.18 777.34 482.95 796.6 482.07 769.63 470.18 777.34z"/><path class="cls-1" d="M482.95 796.6 509.82 784.38 482.07 769.63 482.95 796.6z"/><path class="cls-1" d="M435.5 797.92 482.95 796.6 470.18 777.34 435.5 797.92z"/><path class="cls-1" d="M509.82 784.38 517.08 761.92 482.07 769.63 509.82 784.38z"/><path class="cls-1" d="M482.07 769.35 517.08 761.64 481.41 761.64 482.07 769.35z"/><path class="cls-1" d="M342.15 935.87 331.91 1017.12 387.39 962.95 342.15 935.87z"/><path class="cls-1" d="M292.5 840.42 272.46 957.01 320.68 901.52 292.5 840.42z"/><path class="cls-1" d="M320.68 901.52 272.46 957.01 342.15 935.87 320.68 901.52z"/><path class="cls-1" d="M272.46 957.01 331.91 1017.12 342.15 935.87 272.46 957.01z"/><path class="cls-1" d="M1109.52,1712.24l22.46-40.63-.69,0c-3.83,2.86-77.3,57.6-79.23,57.28Z" transform="translate(-594.31 -771.86)"/><path class="cls-1" d="M387.39 962.95 331.91 1017.12 427.36 1014.14 387.39 962.95z"/><path class="cls-1" d="M193.19 810.03 272.46 957.01 292.5 840.42 193.19 810.03z"/><path class="cls-1" d="M430.16 1135.36 331.91 1017.12 363.94 1128.75 430.16 1135.36z"/><path class="cls-1" d="M300.06 667.21 300.09 667.58 299.77 667.02 202.99 605.59 161.71 680.68 300.64 667.58 300.06 667.21z"/><path class="cls-1" d="M161.71 680.68 193.19 810.03 300.64 667.58 161.71 680.68z"/><path class="cls-1" d="M300.64 667.58 193.19 810.03 292.5 840.42 300.64 667.58z"/><path class="cls-1" d="M141.01 602.96 161.71 680.68 202.99 605.59 141.01 602.96z"/><path class="cls-1" d="M331.91 1017.12 288.48 1088.95 363.94 1128.75 331.91 1017.12z"/><path class="cls-1" d="M331.91 1017.12 430.16 1135.36 525.67 1011.5 427.36 1014.14 331.91 1017.12z"/><path class="cls-1" d="M525.67 1011.5 515.21 940.38 457.74 957.01 525.67 1011.5z"/><path class="cls-1" d="M457.74 1263.06 509.6 1123.8 430.16 1135.36 457.74 1263.06z"/><path class="cls-1" d="M519.83 361.64 448.33 243.9 408.86 361.64 519.83 361.64z"/><path class="cls-1" d="M509.6 1123.8 525.67 1011.5 430.16 1135.36 509.6 1123.8z"/><path class="cls-1" d="M288.48 1088.95 291.39 1211.1 363.94 1128.75 288.48 1088.95z"/><path class="cls-1" d="M291.39 1211.1 399.28 1261.52 363.94 1128.75 291.39 1211.1z"/><path class="cls-1" d="M399.28 1261.52 457.74 1263.06 430.16 1135.36 399.28 1261.52z"/><path class="cls-1" d="M363.94 1128.75 399.28 1261.52 430.16 1135.36 363.94 1128.75z"/><path class="cls-1" d="M427.36 1014.14 525.67 1011.5 457.74 957.01 427.36 1014.14z"/><path class="cls-1" d="M313.74 198.37 441.23 190.77 358.82 120.25 313.74 198.37z"/><path class="cls-1" d="M441.23 190.77 416.68 103.8 358.82 120.25 441.23 190.77z"/><path class="cls-1" d="M247.36 62.95 197.16 115.47 358.82 120.25 247.36 62.95z"/><path class="cls-1" d="M370.55 239.15 441.23 190.77 313.74 198.37 370.55 239.15z"/><path class="cls-1" d="M416.68 103.8 247.36 62.95 358.82 120.25 416.68 103.8z"/><path class="cls-1" d="M408.86 361.52 448.33 243.78 298.38 252.2 408.86 361.52z"/><path class="cls-1" d="M313.74 198.37 298.38 252.2 370.55 239.15 313.74 198.37z"/><path class="cls-1" d="M448.33 243.78 441.23 190.77 370.55 239.15 448.33 243.78z"/><path class="cls-1" d="M197.16 115.47 203.59 193.91 358.82 120.25 197.16 115.47z"/><path class="cls-1" d="M298.38 252.2 448.33 243.78 370.55 239.15 298.38 252.2z"/><path class="cls-1" d="M358.82 120.25 203.59 193.91 313.74 198.37 358.82 120.25z"/><path class="cls-1" d="M74.29 384.09 84.86 474.37 127.8 414.37 74.29 384.09z"/><path class="cls-1" d="M84.86 474.37 109.52 571.69 127.8 414.37 84.86 474.37z"/><path class="cls-1" d="M107.32 267.06 74.29 384.09 127.8 414.37 107.32 267.06z"/><path class="cls-1" d="M127.8 414.37 109.52 571.69 141.01 602.96 127.8 414.37z"/><path class="cls-1" d="M109.52 571.69 161.71 680.68 141.01 602.96 109.52 571.69z"/><path class="cls-1" d="M313.74 198.37 203.59 193.91 298.38 252.2 313.74 198.37z"/><path class="cls-1" d="M298.38 252.2 203.59 193.91 174.7 311.32 298.38 252.2z"/><path class="cls-1" d="M203.59 193.91 107.32 267.06 174.7 311.32 203.59 193.91z"/><path class="cls-1" d="M174.7 311.32 107.32 267.06 127.8 414.37 174.7 311.32z"/></svg>