<?xml version="1.0" encoding="iso-8859-1"?>
<!-- Generator: Adobe Illustrator 19.0.0, SVG Export Plug-In . SVG Version: 6.00 Build 0)  -->
<svg version="1.1" id="Capa_1" xmlns="http://www.w3.org/2000/svg" xmlns:xlink="http://www.w3.org/1999/xlink" x="0px" y="0px"
	 viewBox="0 0 512 512" style="enable-background:new 0 0 512 512;" xml:space="preserve">
<g>
	<g>
		<path d="M117.333,85.333h-64c-5.888,0-10.667,4.779-10.667,10.667s4.779,10.667,10.667,10.667h64
			c5.888,0,10.667-4.779,10.667-10.667S123.221,85.333,117.333,85.333z"/>
	</g>
</g>
<g>
	<g>
		<path d="M117.333,192h-64c-5.888,0-10.667,4.779-10.667,10.667s4.779,10.667,10.667,10.667h64c5.888,0,10.667-4.779,10.667-10.667
			S123.221,192,117.333,192z"/>
	</g>
</g>
<g>
	<g>
		<path d="M117.333,298.667h-64c-5.888,0-10.667,4.779-10.667,10.667S47.445,320,53.333,320h64c5.888,0,10.667-4.779,10.667-10.667
			S123.221,298.667,117.333,298.667z"/>
	</g>
</g>
<g>
	<g>
		<path d="M117.333,405.333h-64c-5.888,0-10.667,4.779-10.667,10.667c0,5.888,4.779,10.667,10.667,10.667h64
			c5.888,0,10.667-4.779,10.667-10.667C128,410.112,123.221,405.333,117.333,405.333z"/>
	</g>
</g>
<g>
	<g>
		<path d="M416,0H117.333C87.936,0,64,23.915,64,53.333v405.333C64,488.085,87.936,512,117.333,512H416
			c29.397,0,53.333-23.915,53.333-53.333V53.333C469.333,23.915,445.397,0,416,0z M448,458.667c0,17.643-14.357,32-32,32H117.333
			c-17.643,0-32-14.357-32-32V53.333c0-17.643,14.357-32,32-32H416c17.643,0,32,14.357,32,32V458.667z"/>
	</g>
</g>
<g>
	<g>
		<path d="M138.667,64c-17.643,0-32,14.357-32,32c0,17.643,14.357,32,32,32c17.643,0,32-14.357,32-32S156.309,64,138.667,64z
			 M138.667,106.667c-5.888,0-10.667-4.8-10.667-10.667c0-5.867,4.779-10.667,10.667-10.667s10.667,4.8,10.667,10.667
			C149.333,101.867,144.555,106.667,138.667,106.667z"/>
	</g>
</g>
<g>
	<g>
		<path d="M138.667,170.667c-17.643,0-32,14.357-32,32c0,17.643,14.357,32,32,32c17.643,0,32-14.357,32-32
			C170.667,185.024,156.309,170.667,138.667,170.667z M138.667,213.333c-5.888,0-10.667-4.8-10.667-10.667
			C128,196.8,132.779,192,138.667,192s10.667,4.8,10.667,10.667C149.333,208.533,144.555,213.333,138.667,213.333z"/>
	</g>
</g>
<g>
	<g>
		<path d="M138.667,277.333c-17.643,0-32,14.357-32,32c0,17.643,14.357,32,32,32c17.643,0,32-14.357,32-32
			C170.667,291.691,156.309,277.333,138.667,277.333z M138.667,320c-5.888,0-10.667-4.8-10.667-10.667
			c0-5.867,4.779-10.667,10.667-10.667s10.667,4.8,10.667,10.667C149.333,315.2,144.555,320,138.667,320z"/>
	</g>
</g>
<g>
	<g>
		<path d="M138.667,384c-17.643,0-32,14.357-32,32c0,17.643,14.357,32,32,32c17.643,0,32-14.357,32-32
			C170.667,398.357,156.309,384,138.667,384z M138.667,426.667c-5.888,0-10.667-4.8-10.667-10.667
			c0-5.867,4.779-10.667,10.667-10.667s10.667,4.8,10.667,10.667C149.333,421.867,144.555,426.667,138.667,426.667z"/>
	</g>
</g>
<g>
</g>
<g>
</g>
<g>
</g>
<g>
</g>
<g>
</g>
<g>
</g>
<g>
</g>
<g>
</g>
<g>
</g>
<g>
</g>
<g>
</g>
<g>
</g>
<g>
</g>
<g>
</g>
<g>
</g>
</svg>
