<?xml version="1.0" encoding="UTF-8" standalone="no"?>
<svg
   xmlns:dc="http://purl.org/dc/elements/1.1/"
   xmlns:cc="http://creativecommons.org/ns#"
   xmlns:rdf="http://www.w3.org/1999/02/22-rdf-syntax-ns#"
   xmlns:svg="http://www.w3.org/2000/svg"
   xmlns="http://www.w3.org/2000/svg"
   xmlns:sodipodi="http://sodipodi.sourceforge.net/DTD/sodipodi-0.dtd"
   xmlns:inkscape="http://www.inkscape.org/namespaces/inkscape"
   id="svg"
   version="1.1"
   width="400"
   height="400"
   viewBox="0, 0, 400,400"
   sodipodi:docname="github-icon.svg"
   inkscape:version="1.0.1 (3bc2e813f5, 2020-09-07)">
  <metadata
     id="metadata13">
    <rdf:RDF>
      <cc:Work
         rdf:about="">
        <dc:format>image/svg+xml</dc:format>
        <dc:type
           rdf:resource="http://purl.org/dc/dcmitype/StillImage" />
      </cc:Work>
    </rdf:RDF>
  </metadata>
  <defs
     id="defs11" />
  <sodipodi:namedview
     pagecolor="#ffffff"
     bordercolor="#666666"
     borderopacity="1"
     objecttolerance="10"
     gridtolerance="10"
     guidetolerance="10"
     inkscape:pageopacity="0"
     inkscape:pageshadow="2"
     inkscape:window-width="1718"
     inkscape:window-height="868"
     id="namedview9"
     showgrid="true"
     inkscape:zoom="1.26"
     inkscape:cx="147.73615"
     inkscape:cy="181.74915"
     inkscape:window-x="-7"
     inkscape:window-y="0"
     inkscape:window-maximized="0"
     inkscape:current-layer="svg" />
  <g
     id="svgg"
     transform="matrix(1.1126843,0,0,1.1102293,-18.64991,-24.779541)">
    <path
       id="path0"
       d="m 256.2,113.604 c -0.66,0.178 -2.19,0.533 -3.4,0.79 -4.639,0.984 -16.793,6.491 -22,9.967 -2.005,1.339 -3.154,1.741 -4.271,1.495 -4.212,-0.928 -5.477,-1.154 -8.329,-1.491 -16.424,-1.936 -44.463,-0.417 -49.475,2.681 -0.204,0.126 -1.036,-0.209 -1.848,-0.745 -14.728,-9.725 -31.176,-15.118 -33.658,-11.036 -3.088,5.079 -4.489,18.248 -2.844,26.735 1.113,5.74 1.256,5.097 -2.132,9.594 -4.26,5.656 -7.843,12.74 -7.843,15.509 0,0.467 -0.158,0.948 -0.351,1.067 -0.605,0.373 -0.962,4.945 -0.988,12.63 -0.034,10.065 1.012,18.201 3.084,24 0.354,0.99 0.646,2.029 0.649,2.309 0.008,0.688 3.531,7.743 5.272,10.557 4.961,8.021 16.657,16.427 27.134,19.501 0.77,0.226 2.355,0.704 3.522,1.061 4.174,1.28 10.422,2.509 16.807,3.306 l 2.129,0.266 -2.256,2.4 c -3.27,3.481 -5.254,7.022 -5.999,10.712 -0.603,2.988 -11.71,5.754 -17.403,4.334 -0.77,-0.192 -2.48,-0.583 -3.8,-0.869 -3.33,-0.722 -7.441,-3.645 -9.893,-7.033 -4.041,-5.582 -9.854,-11.616 -12.325,-12.793 -3.331,-1.588 -4.018,-1.751 -7.382,-1.751 -7.047,0 -7.323,1.792 -1,6.496 5.656,4.208 7.47,6.462 11.215,13.938 3.857,7.698 9.918,14.744 12.705,14.768 0.154,0.002 0.745,0.246 1.314,0.542 3.427,1.789 5.437,2.056 15.466,2.056 h 9.7 v 11.716 c 0,14.403 0.227,13.803 -7.573,20.032 -3.331,2.66 -3.106,4.183 0.68,4.607 7.662,0.857 15.864,-2.852 18.444,-8.341 0.822,-1.747 0.849,-2.329 0.849,-18.033 0,-10.391 0.158,-16.902 0.44,-18.104 0.748,-3.196 2.276,-6.077 3.222,-6.077 0.186,0 0.334,8.865 0.329,19.7 -0.011,24.94 -0.301,27.25 -3.919,31.176 -3.554,3.858 -0.658,6.795 4.609,4.673 4.568,-1.839 7.862,-4.432 10.139,-7.98 2.455,-3.826 2.79,-7.169 3.032,-30.24 0.213,-20.399 0.179,-20.109 2.329,-19.569 l 0.992,0.248 0.167,20.696 c 0.161,19.99 0.334,23.864 1.101,24.676 0.197,0.209 0.359,0.687 0.359,1.062 0,2.854 4.411,7.445 9.446,9.83 7.649,3.624 10.982,1.514 6.73,-4.262 -4.508,-6.124 -4.577,-6.575 -4.569,-30.21 0.005,-19.149 0.1,-20.401 1.482,-19.574 2.382,1.425 2.581,2.895 2.997,22.166 0.212,9.795 0.538,18.168 0.724,18.608 0.187,0.44 0.461,1.231 0.61,1.758 0.68,2.409 4.702,5.507 9.18,7.071 3.044,1.064 11.176,0.781 11.717,-0.407 0.542,-1.19 0.151,-1.693 -3.307,-4.253 -6.271,-4.642 -5.96,-3.345 -6.277,-26.169 -0.264,-19.039 -0.469,-23.247 -1.17,-23.98 -0.2,-0.209 -0.363,-0.77 -0.363,-1.247 0,-2.601 -2.374,-6.62 -5.924,-10.027 l -2.556,-2.454 1.54,-0.218 c 0.847,-0.12 2.89,-0.405 4.54,-0.632 1.65,-0.228 3.54,-0.516 4.2,-0.642 0.66,-0.125 2.19,-0.412 3.4,-0.639 4.367,-0.818 14.97,-4.047 15.78,-4.805 0.209,-0.196 0.648,-0.356 0.976,-0.356 0.572,0 4.641,-2.266 7.714,-4.296 5.24,-3.462 13.418,-14.503 14.664,-19.798 0.221,-0.938 0.788,-3.236 1.26,-5.106 2.258,-8.938 3.128,-27.65 1.59,-34.2 -1.252,-5.332 -1.724,-6.997 -2.664,-9.4 -1.896,-4.846 -3.507,-7.602 -6.901,-11.8 -3.233,-3.999 -4.084,-5.51 -3.831,-6.8 1.403,-7.163 1.066,-20.067 -0.641,-24.5 -0.602,-1.562 -1.23,-3.08 -1.52,-3.673 -0.591,-1.208 -3.563,-1.831 -5.827,-1.223"
       stroke="none"
       fill="#fbfbfb"
       fill-rule="evenodd" />
    <path
       id="path1"
       d="m 238.3,119.429 c -1.495,0.811 -1.404,1.149 0.1,0.371 0.66,-0.341 1.2,-0.706 1.2,-0.81 0,-0.258 -0.043,-0.243 -1.3,0.439 m -3.4,1.767 c -1.806,1.101 -1.637,1.37 0.2,0.318 1.848,-1.058 1.923,-1.114 1.467,-1.113 -0.202,0.001 -0.952,0.359 -1.667,0.795 m 30.187,2.87 c 0.242,2.931 0.445,3.329 0.475,0.934 0.014,-1.1 -0.127,-2.24 -0.313,-2.534 -0.198,-0.312 -0.265,0.352 -0.162,1.6 m -76.771,-0.969 c 1.383,0.078 3.543,0.077 4.8,-0.002 1.256,-0.079 0.124,-0.143 -2.516,-0.142 -2.64,0 -3.668,0.065 -2.284,0.144 m 16.202,0.001 c 1.715,0.075 4.415,0.074 6,-0.001 1.585,-0.076 0.182,-0.138 -3.118,-0.137 -3.3,0.001 -4.597,0.062 -2.882,0.138 m -26.022,0.834 c -0.276,0.176 0.624,0.25 2,0.165 3.394,-0.21 3.824,-0.428 0.904,-0.459 -1.32,-0.014 -2.627,0.118 -2.904,0.294 m 38.004,-0.045 c 0.605,0.091 1.595,0.091 2.2,0 0.605,-0.092 0.11,-0.167 -1.1,-0.167 -1.21,0 -1.705,0.075 -1.1,0.167 m 6,0.789 c 0.385,0.1 1.015,0.1 1.4,0 0.385,-0.101 0.07,-0.183 -0.7,-0.183 -0.77,0 -1.085,0.082 -0.7,0.183 m 42.831,13.124 c 0.002,1.54 0.074,2.121 0.161,1.291 0.087,-0.83 0.085,-2.09 -0.003,-2.8 -0.089,-0.71 -0.16,-0.031 -0.158,1.509 m -0.931,5.576 c 0,0.757 0.138,1.462 0.307,1.567 0.169,0.104 0.241,-0.515 0.158,-1.377 -0.184,-1.934 -0.465,-2.048 -0.465,-0.19 m 2.4,4.424 c 0.746,0.77 1.447,1.4 1.557,1.4 0.11,0 -0.411,-0.63 -1.157,-1.4 -0.746,-0.77 -1.447,-1.4 -1.557,-1.4 -0.11,0 0.411,0.63 1.157,1.4 m -140.974,6.1 c -0.864,1.105 -0.933,1.29 -0.263,0.704 0.802,-0.7 1.86,-2.204 1.551,-2.204 -0.063,0 -0.642,0.675 -1.288,1.5 m -6.07,11.871 c -0.121,0.314 -0.152,0.989 -0.07,1.5 0.109,0.683 0.202,0.533 0.351,-0.571 0.21,-1.553 0.099,-1.919 -0.281,-0.929 m -0.795,3.187 c -0.118,0.307 -0.153,1.252 -0.078,2.1 0.127,1.429 0.151,1.388 0.327,-0.558 0.194,-2.144 0.131,-2.533 -0.249,-1.542 M 278.52,174.8 c 0,1.21 0.075,1.705 0.167,1.1 0.091,-0.605 0.091,-1.595 0,-2.2 -0.092,-0.605 -0.167,-0.11 -0.167,1.1 m -160.271,-0.585 c -0.137,0.358 -0.213,3.471 -0.168,6.918 l 0.081,6.267 0.219,-6.8 c 0.237,-7.356 0.237,-7.345 -0.132,-6.385 m 160.679,8.185 c 0,1.43 0.073,2.015 0.161,1.3 0.089,-0.715 0.089,-1.885 0,-2.6 -0.088,-0.715 -0.161,-0.13 -0.161,1.3 m -0.4,9.6 c 0,1.43 0.073,2.015 0.161,1.3 0.089,-0.715 0.089,-1.885 0,-2.6 -0.088,-0.715 -0.161,-0.13 -0.161,1.3 m -159.604,0.2 c 0.002,1.32 0.077,1.812 0.166,1.093 0.089,-0.719 0.087,-1.799 -0.004,-2.4 -0.091,-0.601 -0.164,-0.013 -0.162,1.307 m 0.682,5.233 c 0.003,0.862 0.164,1.816 0.357,2.121 0.215,0.339 0.269,-0.205 0.141,-1.4 -0.262,-2.437 -0.506,-2.79 -0.498,-0.721 m 158.095,1.167 c 0.004,0.88 0.086,1.193 0.182,0.695 0.096,-0.497 0.092,-1.217 -0.008,-1.6 -0.1,-0.382 -0.179,0.025 -0.174,0.905 m -157.295,2.633 c 0.003,0.532 0.183,1.237 0.4,1.567 0.276,0.422 0.317,0.185 0.136,-0.8 -0.317,-1.725 -0.544,-2.051 -0.536,-0.767 m 154.84,8.034 c -0.025,0.367 -0.15,0.997 -0.276,1.4 -0.218,0.695 -0.207,0.696 0.227,0.02 0.251,-0.391 0.376,-1.021 0.276,-1.4 -0.162,-0.619 -0.185,-0.621 -0.227,-0.02 m -1.752,4.836 -0.706,1.297 0.806,-0.944 c 0.686,-0.804 1.052,-1.662 0.706,-1.653 -0.055,0.001 -0.418,0.586 -0.806,1.3 m -9.302,12.797 -3.592,3.7 3.7,-3.592 c 2.035,-1.975 3.7,-3.64 3.7,-3.7 0,-0.29 -0.472,0.156 -3.808,3.592 M 132.8,224.518 c 0,0.102 0.847,0.879 1.881,1.727 1.035,0.848 1.753,1.333 1.595,1.078 -0.336,-0.544 -3.476,-3.078 -3.476,-2.805 M 114.661,236.3 c -0.103,0.165 0.921,0.25 2.276,0.189 4.411,-0.2 4.933,-0.36 1.387,-0.425 -1.912,-0.035 -3.561,0.071 -3.663,0.236 m 12.139,2.154 c 0.11,0.09 1.91,1.775 4,3.746 l 3.8,3.582 -3.2,-3.319 c -1.76,-1.825 -3.56,-3.51 -4,-3.745 -0.44,-0.234 -0.71,-0.353 -0.6,-0.264 m 47.6,3.42 c 1.961,0.324 2.142,0.466 1.567,1.231 -0.49,0.65 -0.477,0.652 0.202,0.033 1.008,-0.919 0.459,-1.548 -1.293,-1.484 -1.049,0.039 -1.187,0.103 -0.476,0.22 m 48.976,0.164 c -0.149,0.241 0.056,0.736 0.455,1.1 0.679,0.62 0.692,0.617 0.201,-0.034 -0.454,-0.604 -0.398,-0.746 0.422,-1.075 0.926,-0.37 0.927,-0.379 0.07,-0.404 -0.482,-0.014 -0.999,0.172 -1.148,0.413 M 120,245.8 c 0.746,0.77 1.447,1.4 1.557,1.4 0.11,0 -0.411,-0.63 -1.157,-1.4 -0.746,-0.77 -1.447,-1.4 -1.557,-1.4 -0.11,0 0.411,0.63 1.157,1.4 m 53.326,-0.1 c -0.676,0.715 -1.435,1.75 -1.686,2.3 -0.39,0.854 -0.382,0.888 0.052,0.232 0.279,-0.423 1.114,-1.458 1.855,-2.3 1.64,-1.866 1.483,-2.032 -0.221,-0.232 m -32.543,8 c 1.658,1.766 2.017,2.084 2.017,1.783 0,-0.064 -0.855,-0.919 -1.9,-1.9 l -1.9,-1.783 1.783,1.9 m 28.266,-0.685 c -0.137,0.358 -0.231,1.041 -0.208,1.518 0.026,0.548 0.162,0.353 0.369,-0.53 0.35,-1.487 0.255,-2.07 -0.161,-0.988 m 61.595,0.385 c 0.329,1.471 0.558,1.79 0.55,0.767 -0.003,-0.422 -0.189,-1.037 -0.412,-1.367 -0.297,-0.438 -0.334,-0.276 -0.138,0.6 M 144,256.364 c 0.55,0.45 1.18,0.819 1.4,0.821 0.428,0.003 -0.295,-0.551 -1.6,-1.225 -0.531,-0.275 -0.464,-0.139 0.2,0.404 m 87.496,1.082 c 0.116,1.075 0.276,2.029 0.357,2.121 0.319,0.362 0.112,-3.002 -0.216,-3.521 -0.215,-0.339 -0.269,0.205 -0.141,1.4 M 164.4,257.6 c -0.33,0.213 -1.14,0.417 -1.8,0.454 -1.085,0.06 -1.103,0.081 -0.189,0.224 0.556,0.087 1.636,-0.113 2.4,-0.444 0.764,-0.332 1.119,-0.607 0.789,-0.612 -0.33,-0.005 -0.87,0.165 -1.2,0.378 m -16.8,0.394 c 0.33,0.217 1.035,0.397 1.567,0.4 1.284,0.008 0.958,-0.219 -0.767,-0.536 -0.985,-0.181 -1.222,-0.14 -0.8,0.136 m 51.403,0.878 c -0.32,0.871 -0.427,35.491 -0.109,34.99 0.162,-0.254 0.297,-8.247 0.3,-17.762 0.006,-17.031 0.018,-17.3 0.806,-17.3 0.789,0 0.8,0.267 0.8,19.776 0,10.877 0.135,19.86 0.3,19.962 0.165,0.102 0.21,-8.842 0.1,-19.876 L 201,258.6 l -0.902,-0.128 c -0.496,-0.07 -0.989,0.11 -1.095,0.4 m -44.703,0.221 c 0.935,0.084 2.465,0.084 3.4,0 0.935,-0.084 0.17,-0.153 -1.7,-0.153 -1.87,0 -2.635,0.069 -1.7,0.153 m 61.083,2.207 c -0.105,0.275 -0.144,9.14 -0.087,19.7 l 0.104,19.2 0.2,-19.7 c 0.11,-10.835 0.149,-19.7 0.087,-19.7 -0.061,0 -0.198,0.225 -0.304,0.5 M 183,261.6 c -0.136,0.22 -0.058,0.4 0.173,0.4 0.286,0 0.454,6.4 0.527,20.1 l 0.108,20.1 0.096,-20.5 c 0.089,-19.029 -0.023,-21.525 -0.904,-20.1 m 49.584,18.6 c 0,10.12 0.052,14.203 0.116,9.073 0.063,-5.131 0.063,-13.411 0,-18.4 -0.064,-4.99 -0.116,-0.793 -0.116,9.327 m -50.503,-16.713 c -0.61,1.588 -1.018,3.148 -0.763,2.912 0.305,-0.282 1.475,-3.74 1.318,-3.896 -0.071,-0.071 -0.32,0.372 -0.555,0.984 m 36.039,2.913 c 0,1.21 0.075,1.705 0.167,1.1 0.091,-0.605 0.091,-1.595 0,-2.2 -0.092,-0.605 -0.167,-0.11 -0.167,1.1 m -37.225,17.467 c -0.052,9.057 -0.199,16.797 -0.325,17.2 -0.208,0.661 -0.188,0.667 0.204,0.061 0.3,-0.464 0.401,-5.807 0.326,-17.2 l -0.109,-16.528 -0.096,16.467 M 167.102,282.5 c 0.196,14.689 0.329,16.039 0.413,4.2 0.047,-6.545 -0.05,-11.9 -0.215,-11.9 -0.165,-0.001 -0.254,3.464 -0.198,7.7 m -13.183,-7.002 c 1.825,0.074 4.705,0.074 6.4,-10e-4 1.695,-0.075 0.201,-0.136 -3.319,-0.135 -3.52,0 -4.906,0.062 -3.081,0.136 m 64.96,17.378 c -0.043,4.332 0.056,7.961 0.221,8.063 0.165,0.103 0.253,-2.182 0.196,-5.076 -0.195,-9.858 -0.337,-10.876 -0.417,-2.987 m -20.803,5.991 c -0.042,1.247 -0.18,2.597 -0.306,3 -0.215,0.685 -0.201,0.687 0.22,0.033 0.251,-0.391 0.386,-1.718 0.306,-3 l -0.145,-2.3 -0.075,2.267 m 3.625,2.533 c 0.004,0.88 0.086,1.193 0.182,0.695 0.096,-0.497 0.092,-1.217 -0.008,-1.6 -0.1,-0.382 -0.179,0.025 -0.174,0.905 m -37.715,1.3 -2.186,2.3 2.3,-2.186 c 2.137,-2.032 2.483,-2.414 2.186,-2.414 -0.062,0 -1.097,1.035 -2.3,2.3 m 51.872,0.1 c 0.317,1.725 0.544,2.051 0.536,0.767 -0.003,-0.532 -0.183,-1.237 -0.4,-1.567 -0.276,-0.422 -0.317,-0.185 -0.136,0.8 m -18.69,1.7 c -0.119,0.86 -0.058,1.35 0.144,1.148 0.193,-0.193 0.286,-0.867 0.207,-1.499 -0.132,-1.058 -0.16,-1.03 -0.351,0.351 m 40.805,0.418 c 0.535,0.599 1.615,1.449 2.4,1.889 1.036,0.581 1.173,0.607 0.499,0.097 -0.511,-0.387 -1.591,-1.237 -2.4,-1.889 -1.443,-1.162 -1.453,-1.164 -0.499,-0.097 m -15.59,1.582 c 0.981,1.045 1.836,1.9 1.9,1.9 0.301,0 -0.017,-0.359 -1.783,-2.017 l -1.9,-1.783 1.783,1.9 m -63.008,0 -1.175,1.3 1.3,-1.175 c 1.212,-1.095 1.484,-1.425 1.175,-1.425 -0.069,0 -0.654,0.585 -1.3,1.3 m 82.512,2.313 c 0.607,2.32 -6.991,3.453 -11.838,1.766 -0.963,-0.336 -1.825,-0.536 -1.916,-0.446 -0.59,0.591 4.291,1.467 8.172,1.467 4.036,0 4.419,-0.068 5.225,-0.926 0.905,-0.962 1.133,-2.064 0.507,-2.451 -0.199,-0.123 -0.267,0.142 -0.15,0.59 m -36.883,0.864 c 0.362,0.593 1.499,1.736 2.527,2.541 1.572,1.23 1.646,1.259 0.469,0.179 -0.77,-0.706 -1.907,-1.849 -2.527,-2.54 -1,-1.115 -1.053,-1.135 -0.469,-0.18 m -12.419,2.023 -1.985,2.1 2.1,-1.985 c 1.155,-1.092 2.1,-2.037 2.1,-2.1 0,-0.298 -0.371,0.034 -2.215,1.985 m -13.007,-0.2 -1.378,1.5 1.5,-1.378 c 1.396,-1.284 1.684,-1.622 1.378,-1.622 -0.066,0 -0.741,0.675 -1.5,1.5 m -13.673,-0.017 c 0.497,0.096 1.217,0.092 1.6,-0.008 0.382,-0.1 -0.025,-0.179 -0.905,-0.174 -0.88,0.004 -1.193,0.086 -0.695,0.182 m 55.695,2.828 c 0,0.391 -0.284,1.156 -0.632,1.7 l -0.632,0.989 0.832,-0.944 c 0.741,-0.841 1.156,-2.456 0.632,-2.456 -0.11,0 -0.2,0.32 -0.2,0.711 m -40.7,2.776 c 0.605,0.091 1.595,0.091 2.2,0 0.605,-0.092 0.11,-0.167 -1.1,-0.167 -1.21,0 -1.705,0.075 -1.1,0.167 m 36.6,-0.005 c 0.495,0.096 1.305,0.096 1.8,0 0.495,-0.095 0.09,-0.173 -0.9,-0.173 -0.99,0 -1.395,0.078 -0.9,0.173"
       stroke="none"
       fill="#7c7c7c"
       fill-rule="evenodd" />
    <path
       id="path2"
       d="m 255.849,112.751 c -0.426,0.167 0.467,0.285 2.062,0.272 1.546,-0.013 2.604,-0.155 2.35,-0.317 -0.584,-0.372 -3.423,-0.343 -4.412,0.045 m -123.367,1.8 c -0.438,0.742 -0.916,1.777 -1.061,2.3 -0.146,0.522 0.242,0.049 0.861,-1.051 l 1.126,-2 h 4.059 c 2.232,0 3.974,-0.135 3.872,-0.3 -0.102,-0.165 -1.958,-0.3 -4.123,-0.3 h -3.937 l -0.797,1.351 M 252.4,113.618 c -0.438,0.297 -0.276,0.334 0.6,0.138 1.471,-0.329 1.79,-0.558 0.767,-0.55 -0.422,0.003 -1.037,0.189 -1.367,0.412 m 10.215,1.282 c 0.869,1.526 1.276,2.682 2.636,7.5 0.434,1.537 0.239,17.234 -0.244,19.699 -0.405,2.065 -0.024,3.258 1.623,5.082 2.47,2.733 5.622,7.315 7.308,10.619 0.673,1.32 1.232,2.263 1.243,2.095 0.035,-0.557 -2.858,-6.295 -3.173,-6.295 -0.171,0 -0.527,-0.522 -0.792,-1.16 -0.264,-0.639 -0.916,-1.57 -1.448,-2.07 -0.532,-0.5 -0.968,-1.079 -0.968,-1.286 0,-0.207 -0.585,-0.94 -1.3,-1.63 -2.141,-2.065 -3.197,-5.652 -1.9,-6.454 0.248,-0.153 0.4,-3.73 0.4,-9.4 0,-5.67 -0.152,-9.247 -0.4,-9.4 -0.22,-0.136 -0.4,-0.856 -0.4,-1.6 0,-0.744 -0.18,-1.464 -0.4,-1.6 -0.22,-0.136 -0.397,-0.552 -0.394,-0.924 0.008,-0.809 -2.05,-4.876 -2.467,-4.876 -0.161,0 0.143,0.765 0.676,1.7 M 144,114.572 c 0.99,0.262 2.07,0.59 2.4,0.729 0.33,0.139 1.45,0.529 2.488,0.867 2.794,0.909 14.335,6.902 15.795,8.202 0.724,0.644 1.088,0.518 0.511,-0.177 -0.277,-0.334 -1.154,-0.905 -1.949,-1.267 -0.795,-0.363 -1.735,-0.905 -2.089,-1.204 -2.586,-2.186 -15.82,-7.799 -18.092,-7.674 -0.476,0.026 -0.055,0.261 0.936,0.524 m 104.4,0.011 c -0.77,0.301 -2.181,0.838 -3.135,1.193 -2.473,0.918 -11.622,5.431 -11.889,5.864 -0.124,0.199 -0.994,0.713 -1.935,1.141 -0.941,0.429 -1.942,1.058 -2.225,1.399 -0.313,0.378 -1.236,0.641 -2.365,0.673 -1.802,0.051 -1.814,0.059 -0.451,0.322 1.489,0.287 1.82,0.159 5.6,-2.176 2.801,-1.729 12.466,-6.599 13.098,-6.599 0.263,0 1.068,-0.332 1.79,-0.737 0.722,-0.405 2.032,-0.926 2.912,-1.158 0.88,-0.232 1.24,-0.433 0.8,-0.446 -0.44,-0.013 -1.43,0.223 -2.2,0.524 m -117.751,4.432 c -0.137,0.358 -0.234,0.951 -0.215,1.318 0.019,0.367 0.193,0.136 0.387,-0.513 0.377,-1.262 0.244,-1.887 -0.172,-0.805 m -0.782,2.852 c -0.147,0.146 -0.246,0.911 -0.221,1.7 l 0.046,1.433 0.312,-1.6 c 0.327,-1.681 0.301,-1.972 -0.137,-1.533 m 55.595,0.833 c -0.102,0.165 6.26,0.3 14.138,0.3 7.878,0 14.24,-0.135 14.138,-0.3 -0.102,-0.165 -6.464,-0.3 -14.138,-0.3 -7.674,0 -14.036,0.135 -14.138,0.3 m -7.062,0.9 c -0.33,0.213 -1.264,0.391 -2.076,0.394 -0.812,0.003 -1.586,0.183 -1.72,0.4 -0.237,0.383 1.415,0.24 3.196,-0.277 0.44,-0.128 2.24,-0.356 4,-0.507 l 3.2,-0.275 -3,-0.061 c -1.65,-0.034 -3.27,0.113 -3.6,0.326 m 36.4,-0.177 c 1.458,0.317 5.534,0.394 5.353,0.101 -0.11,-0.178 -1.495,-0.303 -3.077,-0.278 -1.582,0.026 -2.606,0.106 -2.276,0.177 m 6.4,0.8 c 1.486,0.324 3.526,0.38 3.348,0.093 -0.107,-0.174 -1.04,-0.295 -2.072,-0.27 -1.032,0.026 -1.606,0.106 -1.276,0.177 m -54.492,1.377 c 0.472,0.44 0.984,0.8 1.137,0.8 0.154,0 -0.047,-0.36 -0.445,-0.8 -0.398,-0.44 -0.91,-0.8 -1.137,-0.8 -0.228,0 -0.027,0.36 0.445,0.8 m 4.696,-0.406 c -0.152,0.246 0.251,0.3 1.076,0.143 1.769,-0.337 1.921,-0.537 0.41,-0.537 -0.683,0 -1.352,0.177 -1.486,0.394 m -42.352,1.306 c -0.328,1.224 -0.263,12.73 0.076,13.585 0.15,0.377 0.272,-2.728 0.272,-6.9 0,-4.172 -0.024,-7.585 -0.053,-7.585 -0.03,0 -0.162,0.405 -0.295,0.9 M 169,126 c -0.292,0.473 0.099,0.473 1.2,0 0.771,-0.331 0.769,-0.345 -0.076,-0.372 -0.482,-0.015 -0.988,0.152 -1.124,0.372 m -39.4,16.91 c 0,0.793 0.169,1.547 0.376,1.675 0.225,0.139 0.283,-0.376 0.144,-1.276 -0.31,-2.009 -0.52,-2.17 -0.52,-0.399 m 0.8,3.628 c 0,0.516 -0.36,1.264 -0.8,1.662 -0.44,0.398 -0.8,0.921 -0.8,1.162 10e-4,0.241 0.451,-0.085 1,-0.724 0.861,-1.001 1.397,-3.038 0.8,-3.038 -0.11,0 -0.2,0.422 -0.2,0.938 m -2.925,4.584 c -0.591,0.617 -1.075,1.281 -1.075,1.475 0,0.195 0.315,0.003 0.7,-0.427 1.979,-2.207 2.273,-3.03 0.375,-1.048 m -2.3,3.178 c -1.2,1.354 -2.098,2.91 -1.832,3.176 0.109,0.109 0.502,-0.403 0.874,-1.139 0.372,-0.735 1.047,-1.742 1.5,-2.237 0.452,-0.495 0.735,-0.9 0.628,-0.9 -0.108,0 -0.634,0.495 -1.17,1.1 m 150.453,7.3 c 0.205,0.66 0.569,1.785 0.809,2.5 0.485,1.44 1.046,3.666 1.539,6.1 l 0.324,1.6 0.05,-1.676 c 0.027,-0.922 -0.13,-1.788 -0.35,-1.924 -0.22,-0.136 -0.4,-0.856 -0.4,-1.6 0,-0.744 -0.18,-1.464 -0.4,-1.6 -0.22,-0.136 -0.4,-0.676 -0.4,-1.2 0,-0.524 -0.18,-1.064 -0.4,-1.2 -0.22,-0.136 -0.4,-0.687 -0.4,-1.224 0,-0.537 -0.167,-0.976 -0.372,-0.976 -0.23,0 -0.23,0.46 0,1.2 m -154.951,0.868 c -1.248,2.811 -1.739,4.679 -2.348,8.932 -0.596,4.157 -0.845,15.427 -0.363,16.389 0.224,0.446 0.497,2.161 0.607,3.811 0.345,5.175 0.685,7.787 1.062,8.18 0.201,0.209 0.365,0.752 0.365,1.206 0,0.454 0.36,1.81 0.8,3.014 0.44,1.204 0.8,2.479 0.8,2.833 0,0.771 1.209,3.291 1.459,3.041 0.096,-0.096 -0.086,-0.782 -0.405,-1.524 -2.79,-6.483 -4.326,-16.273 -4.324,-27.55 0.001,-7.173 0.328,-11.583 0.904,-12.18 0.201,-0.209 0.366,-0.886 0.366,-1.505 0,-0.619 0.158,-1.438 0.351,-1.82 0.899,-1.778 1.666,-3.811 1.5,-3.977 -0.1,-0.101 -0.449,0.417 -0.774,1.15 m 158.038,12.869 c 0.177,4.901 0.369,5.343 0.431,0.987 0.029,-2.132 -0.082,-3.961 -0.247,-4.063 -0.166,-0.102 -0.249,1.282 -0.184,3.076 m 0.171,13.93 c -0.047,2.567 -0.202,4.997 -0.345,5.4 -0.194,0.548 -0.14,0.624 0.213,0.3 0.328,-0.3 0.433,-1.951 0.345,-5.4 l -0.126,-4.967 -0.087,4.667 m -0.81,8.2 c -0.042,1.137 -0.192,2.397 -0.335,2.8 -0.196,0.556 -0.143,0.626 0.222,0.291 0.305,-0.28 0.427,-1.301 0.334,-2.8 l -0.146,-2.358 -0.075,2.067 m -0.809,4.859 c -0.037,0.73 -0.222,1.63 -0.411,2 -0.53,1.037 -0.866,3.728 -0.432,3.459 0.207,-0.128 0.376,-0.816 0.376,-1.529 0,-0.713 0.192,-1.488 0.427,-1.723 0.235,-0.235 0.356,-1.126 0.268,-1.98 -0.153,-1.477 -0.164,-1.488 -0.228,-0.227 m -1.715,7.187 c -0.131,0.794 -0.073,1.168 0.149,0.946 0.202,-0.202 0.3,-0.792 0.218,-1.313 -0.126,-0.801 -0.182,-0.744 -0.367,0.367 m -0.905,2.768 c -0.166,0.705 -0.621,1.695 -1.011,2.2 -0.389,0.506 -1.291,1.992 -2.004,3.303 -2.775,5.102 -8.998,11.744 -12.98,13.856 -1.349,0.715 -2.902,1.628 -3.452,2.029 -0.946,0.69 -3.163,1.632 -7.179,3.05 -0.979,0.345 -1.587,0.692 -1.352,0.771 0.76,0.253 7.579,-2.422 8.692,-3.411 0.462,-0.409 1.829,-1.218 3.039,-1.797 3.73,-1.785 11.297,-9.859 13.97,-14.906 0.693,-1.307 1.626,-2.957 2.076,-3.666 0.449,-0.71 0.746,-1.61 0.659,-2 -0.105,-0.477 -0.256,-0.289 -0.458,0.571 M 125.6,215.538 c 0,0.186 0.388,0.681 0.862,1.1 l 0.862,0.762 -0.708,-1.1 c -0.73,-1.134 -1.016,-1.349 -1.016,-0.762 m 2.4,3.937 c 0,0.195 0.914,1.248 2.031,2.34 1.118,1.092 2.292,2.48 2.611,3.085 0.318,0.605 0.763,1.1 0.989,1.1 0.225,0 -0.094,-0.669 -0.711,-1.487 -1.485,-1.971 -4.92,-5.488 -4.92,-5.038 m 8.185,8.433 c 1.092,1.15 2.195,2.092 2.451,2.092 0.256,0 0.698,0.279 0.98,0.62 0.283,0.341 1.284,0.97 2.225,1.399 0.941,0.428 1.818,0.954 1.95,1.167 0.424,0.686 9.284,4.673 9.625,4.331 0.106,-0.105 -0.575,-0.508 -1.512,-0.895 -3.784,-1.562 -6.529,-2.883 -8.357,-4.022 -1.059,-0.66 -2.679,-1.65 -3.599,-2.2 -0.921,-0.55 -2.062,-1.36 -2.535,-1.8 -2.363,-2.198 -2.994,-2.554 -1.228,-0.692 m -22.385,8.451 c -2.32,1.354 -0.7,6.841 2.019,6.841 0.251,0 0.783,0.36 1.181,0.8 0.398,0.44 0.926,0.8 1.173,0.8 0.578,0 5.827,5.279 5.827,5.861 0,0.243 0.257,0.654 0.571,0.915 0.314,0.261 1.791,2.938 3.282,5.949 3.406,6.879 8.562,13.675 10.375,13.675 0.246,0 0.774,0.36 1.172,0.8 0.398,0.44 1.009,0.8 1.356,0.8 0.359,0 0.041,-0.389 -0.734,-0.9 -4.834,-3.182 -8.09,-7.248 -11.899,-14.861 -1.442,-2.882 -2.735,-5.329 -2.873,-5.439 -0.139,-0.11 -0.746,-0.92 -1.349,-1.8 -1.169,-1.706 -4.368,-4.656 -6.937,-6.397 -6.359,-4.31 -5.538,-7.631 1.815,-7.342 1.95,0.076 3.462,0.004 3.36,-0.161 -0.394,-0.636 -7.095,-0.267 -8.339,0.459 m 11.611,1.392 c 2.819,1.366 7.448,5.686 10.983,10.249 2.406,3.105 2.566,3.298 4.346,5.255 0.956,1.052 2.396,2.3 3.2,2.773 l 1.46,0.86 -0.762,-0.844 c -0.419,-0.464 -0.979,-0.844 -1.245,-0.844 -0.514,0 -2.956,-2.63 -5.593,-6.023 -5.092,-6.552 -12.189,-12.777 -14.567,-12.777 -0.336,0 0.644,0.608 2.178,1.351 m 29.179,0.233 c 0.142,0.229 0.727,0.416 1.3,0.416 1.254,0 1.109,-0.192 -0.424,-0.56 -0.743,-0.178 -1.045,-0.129 -0.876,0.144 M 244,238 l -1,0.32 1.076,0.04 c 0.592,0.022 1.188,-0.14 1.324,-0.36 0.281,-0.455 0.02,-0.455 -1.4,0 m -83.785,1.624 c 0.128,0.207 0.882,0.376 1.675,0.376 1.771,0 1.61,-0.21 -0.399,-0.52 -0.9,-0.139 -1.415,-0.081 -1.276,0.144 M 238,239.6 l -1.4,0.295 1.4,0.046 c 0.77,0.026 1.67,-0.128 2,-0.341 0.727,-0.47 0.233,-0.47 -2,0 m -73.796,0.806 c 0.134,0.217 0.803,0.394 1.486,0.394 1.511,0 1.359,-0.2 -0.41,-0.537 -0.825,-0.157 -1.228,-0.103 -1.076,0.143 m 69.596,-0.006 -1.6,0.286 1.676,0.057 c 0.922,0.031 1.788,-0.123 1.924,-0.343 0.136,-0.22 0.102,-0.374 -0.076,-0.343 -0.178,0.031 -1.044,0.185 -1.924,0.343 m -66.369,0.85 c 0.119,0.192 1.151,0.336 2.293,0.318 2.37,-0.036 2.137,-0.218 -0.617,-0.485 -1.041,-0.101 -1.795,-0.026 -1.676,0.167 M 229,241.2 l -2,0.274 1.8,0.057 c 0.99,0.031 2.07,-0.118 2.4,-0.331 0.33,-0.213 0.42,-0.362 0.2,-0.331 -0.22,0.031 -1.3,0.18 -2.4,0.331 m -55.985,0.824 c 0.128,0.207 0.874,0.376 1.658,0.376 1.3,0 1.377,0.062 0.876,0.7 -0.5,0.638 -0.486,0.65 0.168,0.137 0.394,-0.31 0.574,-0.691 0.4,-0.848 -0.506,-0.454 -3.366,-0.791 -3.102,-0.365 m 51.41,0.016 c -0.961,0.384 -0.939,0.426 1.666,3.075 3.581,3.642 5.079,7.073 5.885,13.485 l 0.302,2.4 0.061,-2.476 c 0.034,-1.362 -0.119,-2.588 -0.339,-2.724 -0.22,-0.136 -0.4,-0.856 -0.4,-1.6 0,-0.744 -0.18,-1.464 -0.4,-1.6 -0.22,-0.136 -0.4,-0.561 -0.4,-0.945 0,-1.427 -2.077,-4.793 -4.218,-6.837 -2.043,-1.949 -2.156,-2.15 -1.496,-2.651 0.835,-0.633 0.681,-0.663 -0.661,-0.127 m -51.078,2.859 c -0.651,0.715 -1.534,1.931 -1.961,2.701 -0.427,0.77 -0.99,1.67 -1.251,2 -0.636,0.807 -1.722,3.99 -1.729,5.071 -0.006,0.909 -1.865,2.129 -3.244,2.129 -0.393,0 -0.826,0.18 -0.962,0.4 -0.136,0.22 -0.732,0.403 -1.324,0.406 -0.592,0.003 -1.346,0.183 -1.676,0.4 -1.292,0.847 3.955,-0.471 6.5,-1.632 0.784,-0.358 1.102,-0.8 1.106,-1.538 0.007,-1.195 0.816,-3.69 1.456,-4.49 0.241,-0.3 0.75,-1.176 1.132,-1.946 0.382,-0.77 1.338,-2.072 2.124,-2.893 0.787,-0.821 1.336,-1.586 1.221,-1.701 -0.114,-0.115 -0.741,0.377 -1.392,1.093 M 146.2,257.2 c 1.101,0.473 1.492,0.473 1.2,0 -0.136,-0.22 -0.642,-0.387 -1.124,-0.372 -0.845,0.027 -0.847,0.041 -0.076,0.372 m 1.833,0.543 c 0.443,0.379 2.784,0.608 2.563,0.251 -0.134,-0.217 -0.803,-0.394 -1.486,-0.394 -0.684,0 -1.168,0.064 -1.077,0.143 m 5.682,0.953 c 1.273,0.08 3.253,0.079 4.4,-0.002 1.147,-0.08 0.105,-0.145 -2.315,-0.144 -2.42,10e-4 -3.358,0.066 -2.085,0.146 m 45.42,17.504 c -0.331,21.961 -0.844,27.919 -2.651,30.788 -0.656,1.041 -0.772,1.411 -0.328,1.045 1.544,-1.273 2.199,-3.804 2.495,-9.633 0.095,-1.87 0.351,-3.76 0.57,-4.2 0.249,-0.502 0.356,-7.275 0.287,-18.2 l -0.108,-17.4 -0.265,17.6 m 1.502,2.6 c 0.048,18.079 0.275,23.127 1.144,25.4 0.81,2.122 2.299,4.968 2.827,5.406 0.324,0.269 0.124,-0.343 -0.444,-1.36 -1.532,-2.74 -2.564,-5.824 -2.564,-7.66 0,-0.894 -0.178,-1.804 -0.396,-2.022 -0.248,-0.248 -0.438,-7.737 -0.508,-19.98 L 200.585,259 l 0.052,19.8 m 15.23,-17.733 c -0.417,0.416 -0.315,39.717 0.106,41.105 0.205,0.675 0.588,1.976 0.851,2.89 0.264,0.915 1.176,2.583 2.028,3.708 0.851,1.126 1.548,2.223 1.548,2.438 0,0.216 0.165,0.392 0.367,0.392 0.201,0 0.547,0.495 0.768,1.1 0.239,0.654 0.415,0.824 0.433,0.42 0.032,-0.68 -2.068,-4.088 -2.797,-4.538 -0.728,-0.45 -2.371,-4.154 -2.371,-5.345 0,-0.654 -0.18,-1.301 -0.4,-1.437 -0.258,-0.16 -0.394,-7.353 -0.384,-20.324 0.015,-18.999 0.052,-20.012 0.687,-18.876 1.08,1.934 1.367,5.865 1.649,22.6 0.27,16.019 0.388,17.226 1.908,19.549 0.858,1.313 3.679,4.051 4.174,4.051 0.202,0 -0.378,-0.674 -1.29,-1.498 -1.889,-1.707 -3.544,-4.141 -3.544,-5.214 0,-0.4 -0.176,-0.904 -0.391,-1.119 -0.235,-0.235 -0.458,-6.675 -0.561,-16.18 -0.191,-17.765 -0.336,-19.886 -1.53,-22.289 -0.928,-1.87 -0.875,-1.809 -1.251,-1.433 m 16.845,18.81 c 0.107,17.925 0.141,18.661 0.944,20.262 0.908,1.813 2.657,3.861 3.297,3.861 0.222,0 0.908,0.484 1.525,1.075 0.617,0.591 1.122,0.869 1.122,0.619 0,-0.251 -0.461,-0.78 -1.025,-1.175 -2.548,-1.787 -3.481,-2.754 -4.395,-4.558 l -0.98,-1.934 v -18.19 c 0,-10.004 -0.135,-18.273 -0.3,-18.375 -0.165,-0.102 -0.25,8.184 -0.188,18.415 m -50.636,-15.324 c -0.846,2.464 -0.876,3.125 -0.882,19.1 -0.005,12.498 -0.132,16.89 -0.521,17.947 -2.237,6.074 -9.586,10.201 -17.691,9.935 -2.259,-0.074 -4.023,0 -3.921,0.165 0.283,0.457 9.253,0.363 9.539,-0.1 0.136,-0.22 0.582,-0.4 0.99,-0.4 0.719,0 5.648,-2.429 6.753,-3.327 0.298,-0.243 0.925,-0.632 1.392,-0.865 0.467,-0.233 1.049,-0.824 1.293,-1.313 0.243,-0.489 0.719,-1.206 1.055,-1.592 1.145,-1.314 1.267,-3.094 1.401,-20.291 0.081,-10.49 0.286,-17.342 0.524,-17.58 0.216,-0.216 0.392,-0.795 0.392,-1.288 0,-0.493 0.18,-1.008 0.4,-1.144 0.522,-0.323 0.548,38.255 0.027,39.972 -0.205,0.675 -0.595,2.038 -0.867,3.028 -0.312,1.139 -1.13,2.466 -2.227,3.614 -0.953,0.997 -1.733,2.022 -1.733,2.276 0,0.254 0.9,-0.49 2,-1.653 1.1,-1.163 2,-2.414 2,-2.781 0,-0.367 0.159,-0.979 0.353,-1.361 1.091,-2.148 1.247,-5.246 1.247,-24.701 0,-11.107 -0.146,-20.194 -0.324,-20.194 -0.178,0 -0.718,1.149 -1.2,2.553 M 142,272.928 c 0,0.351 2.467,1.472 3.238,1.472 0.393,0 0.826,0.18 0.962,0.4 0.136,0.22 1.002,0.377 1.924,0.35 l 1.676,-0.05 -1.6,-0.289 c -1.418,-0.257 -3.352,-0.889 -5.5,-1.8 -0.385,-0.163 -0.7,-0.201 -0.7,-0.083 m 24.1,2.124 c 0.739,0.218 1.111,22.896 0.394,24 -0.806,1.241 -4.72,5.348 -5.096,5.348 -0.481,0 -3.798,3.258 -3.798,3.73 0,0.165 0.765,-0.435 1.7,-1.334 0.935,-0.9 2.898,-2.719 4.363,-4.044 3.685,-3.332 3.567,-2.776 3.444,-16.147 -0.104,-11.261 -0.13,-11.597 -0.907,-11.677 -0.622,-0.064 -0.644,-0.036 -0.1,0.124 m -15.838,0.648 c 0.102,0.165 3.134,0.3 6.738,0.3 3.604,0 6.636,-0.135 6.738,-0.3 0.102,-0.165 -2.93,-0.3 -6.738,-0.3 -3.808,0 -6.84,0.135 -6.738,0.3 m 90.253,30.8 c 0.367,0.275 0.936,0.86 1.264,1.3 0.327,0.44 0.601,0.609 0.608,0.375 0.018,-0.578 -1.509,-2.175 -2.079,-2.175 -0.254,0 -0.16,0.225 0.207,0.5 m -83.572,2.905 c -0.251,0.652 0.493,1.795 1.168,1.795 0.227,0 0.139,-0.315 -0.197,-0.7 -0.335,-0.385 -0.528,-0.925 -0.428,-1.2 0.26,-0.72 -0.266,-0.618 -0.543,0.105 m 35.795,2.285 c -1.463,1.491 -2.538,2.71 -2.388,2.71 0.372,0 5.451,-5.147 5.228,-5.299 -0.098,-0.066 -1.376,1.099 -2.84,2.589 m 34.662,-1.487 c 0.44,0.356 1.299,0.749 1.908,0.874 0.61,0.124 1.206,0.383 1.324,0.575 0.26,0.42 9.8,0.459 10.368,0.042 0.22,-0.162 0.665,-0.654 0.988,-1.094 0.491,-0.669 0.421,-0.652 -0.426,0.1 -1.854,1.646 -10.054,1.216 -14.125,-0.742 -0.83,-0.399 -0.83,-0.397 -0.037,0.245 m -22.2,0.486 c 0,0.503 1.143,1.501 1.412,1.232 0.106,-0.106 -0.168,-0.519 -0.61,-0.919 -0.441,-0.399 -0.802,-0.54 -0.802,-0.313 m 2.769,2.211 c 0.846,0.959 4.194,2.792 7.75,4.243 2.51,1.025 6.281,0.1 6.281,-1.54 0,-0.202 -0.463,0.097 -1.03,0.663 -1.764,1.765 -9.186,-0.292 -12.97,-3.593 l -1,-0.873 0.969,1.1 M 188,315.361 c -2.938,1.919 -7.503,2.373 -8.982,0.893 -0.56,-0.56 -1.018,-0.877 -1.018,-0.706 0,1.006 1.956,2.052 3.826,2.046 2.719,-0.008 7.774,-1.881 7.774,-2.88 0,-0.406 0.035,-0.42 -1.6,0.647"
       stroke="none"
       fill="#242424"
       fill-rule="evenodd" />
    <path
       id="path3"
       d="m 256.938,113.106 c -0.254,0.162 0.286,0.298 1.2,0.303 0.914,0.005 2.292,0.328 3.062,0.718 0.904,0.457 1.187,0.508 0.8,0.143 -1.169,-1.1 -4.102,-1.775 -5.062,-1.164 m -123.184,0.8 c -0.61,0.401 -1.986,3.226 -2.287,4.694 -0.232,1.135 -0.223,1.146 0.173,0.2 0.231,-0.55 0.811,-1.81 1.29,-2.8 l 0.87,-1.8 2.755,-0.12 c 3.539,-0.153 11.691,1.972 15.887,4.142 0.615,0.318 1.262,0.57 1.438,0.56 1.336,-0.074 -6.302,-3.029 -11.373,-4.4 -2.857,-0.772 -7.887,-1.046 -8.753,-0.476 m 120.346,-0.03 c 0.385,0.1 1.015,0.1 1.4,0 0.385,-0.101 0.07,-0.183 -0.7,-0.183 -0.77,0 -1.085,0.082 -0.7,0.183 m -5.9,1.515 c -2.297,1.082 -2.26,1.334 0.051,0.349 0.852,-0.363 2.089,-0.794 2.749,-0.959 1.083,-0.27 1.102,-0.301 0.2,-0.316 -0.55,-0.009 -1.9,0.408 -3,0.926 m -5.2,2.18 c -3.146,1.531 -2.642,1.568 0.646,0.047 1.405,-0.65 2.374,-1.189 2.154,-1.198 -0.22,-0.01 -1.48,0.508 -2.8,1.151 m -87,2.196 c 0,0.099 1.167,0.799 2.593,1.556 1.426,0.757 2.493,1.215 2.371,1.018 -0.252,-0.406 -4.964,-2.85 -4.964,-2.574 m 79.89,1.301 c -1.49,0.795 -2.648,1.507 -2.573,1.582 0.163,0.163 5.483,-2.628 5.483,-2.877 0,-0.258 0.012,-0.263 -2.91,1.295 m -105.641,1.547 c -0.137,0.358 -0.225,1.311 -0.196,2.118 0.048,1.311 0.085,1.254 0.342,-0.533 0.308,-2.129 0.26,-2.642 -0.146,-1.585 m 31.351,0.343 c 0,0.095 0.814,0.629 1.809,1.185 0.996,0.556 1.703,0.839 1.573,0.628 -0.259,-0.419 -3.382,-2.094 -3.382,-1.813 m 28.8,0.221 c -3.019,0.134 0.598,0.247 9.132,0.286 7.772,0.036 14.072,0.016 14,-0.045 -0.305,-0.253 -18.537,-0.443 -23.132,-0.241 m 40.494,0.701 c -0.917,0.595 -1.599,1.148 -1.517,1.23 0.157,0.157 3.423,-1.908 3.423,-2.163 0,-0.267 -0.224,-0.157 -1.906,0.933 m 34.098,7.92 c -0.008,9.051 -0.002,9.114 0.347,3.874 0.202,-3.04 0.206,-6.988 0.008,-9.2 -0.3,-3.343 -0.348,-2.614 -0.355,5.326 M 181.2,124 l -2.6,0.262 2.4,0.029 c 1.32,0.016 2.85,-0.115 3.4,-0.291 1.201,-0.385 0.617,-0.385 -3.2,0 m 33.6,0.008 c 0.992,0.31 5.487,0.525 5.167,0.247 -0.092,-0.079 -1.517,-0.238 -3.167,-0.352 -1.693,-0.117 -2.564,-0.072 -2,0.105 M 176,124.8 c -1.367,0.288 -1.372,0.295 -0.2,0.319 0.66,0.014 1.56,-0.13 2,-0.319 0.962,-0.413 0.164,-0.413 -1.8,0 m 47.8,0.416 c 2.877,0.7 4.492,0.882 4.71,0.53 0.117,-0.19 -0.444,-0.368 -1.248,-0.394 -0.804,-0.026 -2.272,-0.155 -3.262,-0.287 l -1.8,-0.239 1.6,0.39 m -51.4,0.384 c -0.824,0.264 -0.859,0.326 -0.2,0.354 0.44,0.019 1.07,-0.141 1.4,-0.354 0.701,-0.453 0.214,-0.453 -1.2,0 m -42.948,1.7 c -0.327,1.22 -0.264,11.128 0.076,11.985 0.15,0.377 0.272,-2.368 0.272,-6.1 0,-3.732 -0.024,-6.785 -0.053,-6.785 -0.03,0 -0.162,0.405 -0.295,0.9 m 0.554,14.533 c 0.003,0.862 0.164,1.816 0.357,2.121 0.215,0.339 0.269,-0.205 0.141,-1.4 -0.262,-2.437 -0.506,-2.79 -0.498,-0.721 m 136.793,6.368 c 0.769,0.879 1.556,1.779 1.749,1.999 0.192,0.22 0.163,0.04 -0.065,-0.4 -0.228,-0.44 -1.015,-1.34 -1.749,-1.999 l -1.334,-1.199 1.399,1.599 M 130.323,148.3 c -0.705,0.821 -1.233,1.7 -1.022,1.7 0.082,0 0.548,-0.54 1.036,-1.2 0.964,-1.304 0.955,-1.628 -0.014,-0.5 m -2.194,3 c -0.445,0.495 -0.953,1.17 -1.128,1.5 -0.338,0.637 -0.246,0.55 1.375,-1.3 0.53,-0.605 0.873,-1.1 0.763,-1.1 -0.11,0 -0.564,0.405 -1.01,0.9 m 141.291,0.312 c 0.853,1.027 2.568,3.603 3.321,4.988 0.239,0.44 0.44,0.611 0.447,0.38 0.018,-0.614 -2.97,-5.109 -3.843,-5.782 -0.627,-0.483 -0.615,-0.417 0.075,0.414 M 125.717,154.5 c -0.867,0.947 -2.279,3.5 -1.938,3.5 0.11,0 0.496,-0.585 0.858,-1.3 0.361,-0.715 1.027,-1.705 1.48,-2.2 0.452,-0.495 0.732,-0.9 0.622,-0.9 -0.11,0 -0.57,0.405 -1.022,0.9 m 148.853,6.214 c 0.331,0.939 0.802,2.017 1.046,2.396 0.393,0.61 0.413,0.598 0.173,-0.11 -0.912,-2.692 -1.134,-3.24 -1.46,-3.596 -0.199,-0.218 -0.09,0.372 0.241,1.31 m -153.279,1.973 c -0.863,2.309 -0.999,2.751 -1.285,4.202 -0.162,0.819 -0.14,1.394 0.05,1.277 0.189,-0.117 0.344,-0.61 0.344,-1.095 0,-0.485 0.357,-1.858 0.793,-3.051 0.436,-1.192 0.73,-2.231 0.653,-2.307 -0.076,-0.076 -0.326,0.362 -0.555,0.974 M 276.25,165.2 c 0.14,0.77 0.411,1.76 0.604,2.2 0.24,0.549 0.27,0.361 0.096,-0.6 -0.14,-0.77 -0.411,-1.76 -0.604,-2.2 -0.24,-0.549 -0.27,-0.361 -0.096,0.6 m 0.978,4.233 c 0.016,0.642 0.188,1.527 0.382,1.967 0.237,0.534 0.276,0.202 0.117,-1 -0.281,-2.12 -0.539,-2.62 -0.499,-0.967 M 119.264,170.2 c -0.041,0.88 -0.168,2.05 -0.281,2.6 l -0.206,1 0.431,-0.986 c 0.236,-0.542 0.363,-1.712 0.281,-2.6 l -0.149,-1.614 -0.076,1.6 M 278.2,183.6 c 0,6.27 0.111,10.05 0.248,8.4 0.324,-3.923 0.327,-13.899 0.005,-17.2 -0.139,-1.43 -0.253,2.53 -0.253,8.8 M 118.564,181 c -10e-4,3.74 0.059,5.324 0.133,3.52 0.074,-1.805 0.075,-4.865 10e-4,-6.8 -0.073,-1.936 -0.134,-0.46 -0.134,3.28 m 0.542,10.2 c 0.113,1.87 0.27,3.475 0.35,3.567 0.266,0.307 0.053,-4.553 -0.253,-5.767 -0.167,-0.661 -0.211,0.328 -0.097,2.2 m 0.79,5.846 c 0.116,1.075 0.276,2.029 0.357,2.121 0.319,0.362 0.112,-3.002 -0.216,-3.521 -0.215,-0.339 -0.269,0.205 -0.141,1.4 m 157.56,-0.562 c -0.135,0.504 -0.226,1.636 -0.202,2.516 0.038,1.378 0.092,1.271 0.389,-0.772 0.355,-2.429 0.252,-3.382 -0.187,-1.744 m -1.427,8.545 c -0.275,1.228 -0.423,2.31 -0.329,2.404 0.094,0.095 0.397,-0.833 0.671,-2.062 0.275,-1.228 0.423,-2.31 0.329,-2.404 -0.094,-0.095 -0.397,0.833 -0.671,2.062 M 122.225,206.4 c 0.258,1.323 2.117,5.36 2.156,4.684 0.011,-0.174 -0.341,-1.022 -0.781,-1.884 -0.44,-0.862 -0.803,-1.89 -0.806,-2.284 -0.003,-0.394 -0.194,-0.986 -0.424,-1.316 -0.308,-0.441 -0.346,-0.23 -0.145,0.8 m 152.824,2.215 c -0.137,0.358 -0.234,0.951 -0.215,1.318 0.019,0.367 0.193,0.136 0.387,-0.513 0.377,-1.262 0.244,-1.887 -0.172,-0.805 m -0.603,2.805 c -0.025,0.451 -0.197,0.991 -0.382,1.2 -0.585,0.661 -2.138,3.38 -1.931,3.38 0.476,0 2.693,-4.146 2.535,-4.741 -0.131,-0.493 -0.187,-0.452 -0.222,0.161 m -147.841,4.345 c 0.384,0.641 1.054,1.766 1.487,2.5 0.433,0.734 0.871,1.335 0.973,1.335 0.279,0 -1.386,-2.857 -2.332,-4 l -0.828,-1 0.7,1.165 m 143.633,3.3 c -0.836,1.453 -2.259,3.472 -3.163,4.488 l -1.644,1.847 1.608,-1.507 c 1.477,-1.384 5.198,-6.989 4.862,-7.325 -0.079,-0.079 -0.828,1.044 -1.663,2.497 M 131.177,222.2 c 2.99,3.326 3.569,3.87 2.127,2 -0.678,-0.88 -1.92,-2.23 -2.759,-3 -0.998,-0.916 -0.78,-0.57 0.632,1 m 4.623,4.558 c 1.257,1.377 3.743,3.321 3.271,2.557 -0.15,-0.243 -1.218,-1.214 -2.372,-2.157 -1.764,-1.441 -1.907,-1.505 -0.899,-0.4 m 127.189,0.86 c -0.142,0.23 -1.159,1.13 -2.26,2 -1.1,0.87 -1.791,1.582 -1.535,1.582 0.491,0 4.805,-3.977 4.33,-3.991 -0.152,-0.005 -0.393,0.179 -0.535,0.409 M 140.8,230.579 c 0,0.11 0.54,0.48 1.2,0.821 0.66,0.341 1.2,0.531 1.2,0.421 0,-0.11 -0.54,-0.48 -1.2,-0.821 -0.66,-0.341 -1.2,-0.531 -1.2,-0.421 m 116.3,1.25 c -1.495,0.811 -1.404,1.149 0.1,0.371 0.66,-0.341 1.2,-0.706 1.2,-0.81 0,-0.258 -0.043,-0.243 -1.3,0.439 m -113.252,0.648 c 0.285,0.461 3.389,2.019 3.601,1.807 0.095,-0.094 -0.724,-0.615 -1.818,-1.157 -1.095,-0.541 -1.897,-0.834 -1.783,-0.65 m 109.071,1.685 c -1.764,0.642 -2.125,1.099 -0.5,0.633 0.73,-0.21 1.51,-0.564 1.734,-0.788 0.466,-0.466 0.475,-0.467 -1.234,0.155 M 148.6,234.904 c 0.44,0.264 1.34,0.69 2,0.946 4.663,1.81 5.68,2.145 6.394,2.104 0.801,-0.047 0.801,-0.048 0.006,-0.234 -1.96,-0.46 -5.752,-1.885 -7.895,-2.969 -1.032,-0.522 -1.43,-0.401 -0.505,0.153 m 99.304,1.211 c -1.263,0.454 -2.225,0.897 -2.138,0.984 0.182,0.183 3.663,-0.956 4.603,-1.505 0.99,-0.58 0.037,-0.378 -2.465,0.521 M 113.9,237.029 c -2.049,1.111 -1.334,3.052 1.953,5.305 1.071,0.733 1.497,0.949 0.947,0.478 -5.4,-4.615 -5.142,-5.584 1.6,-6.022 l 3.8,-0.247 -3.6,-0.056 c -2.522,-0.038 -3.929,0.124 -4.7,0.542 m 128.7,0.78 c -1.1,0.306 -2.165,0.564 -2.367,0.573 -0.201,0.01 -0.272,0.112 -0.157,0.228 0.22,0.22 4.694,-0.847 5.051,-1.204 0.311,-0.31 -0.319,-0.21 -2.527,0.403 m -81.8,1.396 c 0.33,0.211 1.125,0.386 1.767,0.389 1.547,0.008 1.21,-0.223 -0.767,-0.526 -1.09,-0.167 -1.409,-0.123 -1,0.137 m 76.6,-0.005 -1.6,0.286 1.4,0.051 c 0.77,0.028 1.67,-0.124 2,-0.337 0.655,-0.423 0.562,-0.423 -1.8,0 m -72.8,0.781 c 0.768,0.348 2.91,0.575 2.567,0.272 -0.092,-0.081 -0.887,-0.257 -1.767,-0.391 -1.115,-0.169 -1.358,-0.133 -0.8,0.119 m 68.6,0.019 -1.8,0.28 1.6,0.054 c 0.88,0.029 1.87,-0.121 2.2,-0.334 0.33,-0.213 0.42,-0.363 0.2,-0.334 -0.22,0.03 -1.21,0.18 -2.2,0.334 m -65.134,0.849 c 0.294,0.186 1.434,0.327 2.534,0.313 2.395,-0.03 1.997,-0.233 -0.934,-0.475 -1.248,-0.103 -1.912,-0.036 -1.6,0.162 m 58.834,0.238 c 0.605,0.091 1.595,0.091 2.2,0 0.605,-0.092 0.11,-0.167 -1.1,-0.167 -1.21,0 -1.705,0.075 -1.1,0.167 m -4.3,1.313 c 0.398,0.44 0.748,0.8 0.776,0.8 0.029,0 0.053,-0.36 0.053,-0.8 0,-0.525 -0.267,-0.8 -0.777,-0.8 -0.751,0 -0.752,0.026 -0.052,0.8 m -89.788,2.22 c 0.983,1.11 2.688,3.158 3.788,4.55 1.1,1.392 2.506,3.093 3.125,3.78 1.033,1.148 -0.018,-0.278 -4.091,-5.55 -0.85,-1.1 -2.235,-2.63 -3.078,-3.4 -1.439,-1.315 -1.424,-1.277 0.256,0.62 m -11.224,2.302 c 1.424,1.473 2.655,2.678 2.736,2.678 0.323,0 -1.829,-2.314 -3.524,-3.789 -1.208,-1.051 -0.949,-0.686 0.788,1.111 M 225.764,245.4 c 0.55,0.55 1.129,1 1.288,1 0.158,0 -0.135,-0.45 -0.652,-1 -0.517,-0.55 -1.096,-1 -1.288,-1 -0.192,0 0.102,0.45 0.652,1 m -52.435,0.7 c -0.445,0.495 -0.953,1.17 -1.128,1.5 -0.338,0.637 -0.246,0.55 1.375,-1.3 0.53,-0.605 0.873,-1.1 0.763,-1.1 -0.11,0 -0.564,0.405 -1.01,0.9 m 54.477,1.612 c 0.386,0.612 0.803,1.012 0.926,0.889 0.123,-0.123 -0.193,-0.623 -0.702,-1.112 l -0.926,-0.889 0.702,1.112 m -56.924,2.039 c -0.724,1.228 -1.631,3.528 -1.202,3.049 0.355,-0.397 2.324,-4.4 2.163,-4.4 -0.09,0 -0.523,0.608 -0.961,1.351 m 57.964,-0.351 c 0.007,0.22 0.36,1.12 0.783,2 0.423,0.88 0.657,1.15 0.52,0.6 -0.282,-1.133 -1.324,-3.212 -1.303,-2.6 m -100.554,7.61 c 1.603,3.161 3.053,5.832 3.222,5.937 0.17,0.105 -1.003,-2.396 -2.606,-5.557 -1.603,-3.161 -3.053,-5.832 -3.222,-5.937 -0.17,-0.105 1.003,2.396 2.606,5.557 m 40.962,-3.143 c -0.103,1.647 -0.583,2.229 -2.615,3.176 -1.121,0.522 -1.807,0.951 -1.523,0.953 2.041,0.016 4.682,-2.476 4.364,-4.117 l -0.171,-0.879 -0.055,0.867 m 61.146,0.243 c 0,0.573 0.187,1.158 0.416,1.3 0.273,0.169 0.322,-0.133 0.144,-0.876 -0.368,-1.533 -0.56,-1.678 -0.56,-0.424 m 0.84,3.723 c 0.022,0.862 0.187,2.017 0.367,2.567 0.204,0.621 0.244,0.091 0.105,-1.4 -0.258,-2.779 -0.53,-3.451 -0.472,-1.167 M 145.4,257.6 c 0.136,0.22 0.642,0.387 1.124,0.372 0.845,-0.027 0.847,-0.041 0.076,-0.372 -1.101,-0.473 -1.492,-0.473 -1.2,0 m 53.48,0.88 c -0.362,0.362 -0.457,4.778 -0.386,17.9 l 0.093,17.42 0.207,-17.6 0.206,-17.6 h 1 1 l 0.206,20 0.205,20 0.095,-20.057 c 0.084,-17.976 0.028,-20.083 -0.539,-20.3 -0.949,-0.365 -1.554,-0.296 -2.087,0.237 m -37.18,0.196 c 0.385,0.1 1.015,0.1 1.4,0 0.385,-0.101 0.07,-0.183 -0.7,-0.183 -0.77,0 -1.085,0.082 -0.7,0.183 m -9.624,0.584 c 0.508,0.143 2.274,0.26 3.924,0.26 1.65,0 3.416,-0.117 3.924,-0.26 0.508,-0.143 -1.258,-0.26 -3.924,-0.26 -2.666,0 -4.432,0.117 -3.924,0.26 m 30.753,2.194 c -0.456,0.58 -0.822,1.255 -0.813,1.5 0.009,0.245 0.285,-0.049 0.613,-0.654 1.268,-2.338 1.363,-1.125 1.471,18.8 l 0.108,19.9 0.096,-20.3 c 0.058,-12.277 -0.051,-20.3 -0.275,-20.3 -0.204,0 -0.744,0.474 -1.2,1.054 m 32.214,-0.421 c -0.321,0.834 -0.222,38.422 0.104,39.95 0.139,0.65 0.253,-8.065 0.253,-19.367 0,-21.786 0.055,-22.386 1.787,-19.545 0.445,0.731 0.811,1.128 0.812,0.883 0.005,-1.533 -2.484,-3.151 -2.956,-1.921 m 17.049,18.68 -0.092,18.314 1.007,1.986 c 0.553,1.093 1.097,1.987 1.208,1.987 0.111,0 -0.207,-0.765 -0.707,-1.7 -0.897,-1.68 -0.91,-1.923 -1.116,-20.3 l -0.208,-18.6 -0.092,18.313 M 132.308,264.2 c 0.518,0.959 3.299,3.93 3.276,3.501 -0.009,-0.166 -0.847,-1.201 -1.862,-2.301 -1.016,-1.1 -1.652,-1.64 -1.414,-1.2 m 85.988,1.683 c 0.225,3.159 0.436,3.575 0.466,0.917 0.014,-1.21 -0.122,-2.433 -0.302,-2.717 -0.184,-0.289 -0.256,0.506 -0.164,1.8 m -37.643,1.353 c -0.139,0.695 -0.213,8.577 -0.165,17.514 l 0.088,16.25 0.212,-17.4 c 0.117,-9.57 0.191,-17.451 0.165,-17.514 -0.026,-0.063 -0.161,0.455 -0.3,1.15 m -43.483,2.075 c 0.715,0.93 3.935,3.097 4.55,3.061 0.275,-0.016 0.224,-0.144 -0.12,-0.3 -0.91,-0.412 -2.881,-1.72 -3.988,-2.646 -0.732,-0.612 -0.847,-0.642 -0.442,-0.115 M 218.925,276 c -0.012,3.85 0.102,11.05 0.253,16 l 0.276,9 0.02,-6.8 c 0.012,-3.74 -0.102,-10.94 -0.253,-16 l -0.274,-9.2 -0.022,7 M 144,273.355 c 0,0.392 4.357,1.502 5.24,1.335 0.754,-0.142 0.675,-0.193 -0.366,-0.236 -0.73,-0.029 -1.63,-0.209 -2,-0.399 -0.848,-0.434 -2.874,-0.927 -2.874,-0.7 m 21.9,1.338 1.7,0.153 v 11.597 c 0,13.165 0.1,12.676 -3.343,16.357 l -2.057,2.2 2.132,-2 C 168.061,299.503 168,299.782 168,286.216 V 274.4 l -1.9,0.07 -1.9,0.07 1.7,0.153 m -12.2,0.405 c 1.925,0.073 5.075,0.073 7,0 1.925,-0.073 0.35,-0.133 -3.5,-0.133 -3.85,0 -5.425,0.06 -3.5,0.133 m 44.393,20.502 c 0,0.77 0.082,1.085 0.183,0.7 0.1,-0.385 0.1,-1.015 0,-1.4 -0.101,-0.385 -0.183,-0.07 -0.183,0.7 m -0.369,3.8 c 0.002,1.32 0.077,1.812 0.166,1.093 0.089,-0.719 0.087,-1.799 -0.004,-2.4 -0.091,-0.601 -0.164,-0.013 -0.162,1.307 m 4.377,2.4 c 0.004,0.88 0.086,1.193 0.182,0.695 0.096,-0.497 0.092,-1.217 -0.008,-1.6 -0.1,-0.382 -0.179,0.025 -0.174,0.905 m -22.322,0.265 c -0.493,1.555 -2.258,3.95 -3.347,4.542 -0.568,0.309 -0.821,0.568 -0.563,0.577 1.257,0.043 5.143,-5.105 4.408,-5.84 -0.112,-0.112 -0.336,0.212 -0.498,0.721 m 40.247,0.425 c 0.206,0.717 0.374,1.362 0.374,1.431 0,0.271 4.132,4.479 4.397,4.479 0.155,0 -0.68,-0.961 -1.855,-2.136 -1.329,-1.329 -2.233,-2.618 -2.391,-3.409 -0.14,-0.699 -0.4,-1.361 -0.577,-1.471 -0.177,-0.11 -0.154,0.388 0.052,1.106 m -22.983,0.543 c -0.134,0.348 -0.243,1.04 -0.243,1.538 0,1.352 -2.765,5.366 -5.228,7.59 -1.195,1.078 -1.808,1.769 -1.363,1.534 2.544,-1.339 6.715,-7.08 7.118,-9.795 0.235,-1.581 0.122,-1.925 -0.284,-0.867 m 18.563,0.2 c 0.003,0.532 0.183,1.237 0.4,1.567 0.276,0.422 0.317,0.185 0.136,-0.8 -0.317,-1.725 -0.544,-2.051 -0.536,-0.767 m -32.346,1.634 c -0.1,1.774 -1.525,4.604 -3.274,6.501 -1.052,1.142 -1.584,2.054 -1.465,2.513 0.172,0.663 0.19,0.66 0.233,-0.036 0.025,-0.416 0.775,-1.546 1.665,-2.512 1.878,-2.037 3.289,-5.04 3.06,-6.511 l -0.159,-1.022 -0.06,1.067 m 53.36,-0.561 c 0.209,0.168 0.92,0.753 1.58,1.299 l 1.2,0.992 -1.175,-1.298 c -0.646,-0.715 -1.357,-1.299 -1.58,-1.299 -0.251,0 -0.261,0.116 -0.025,0.306 m -76.94,2.264 c -1.03,0.974 -1.785,1.829 -1.677,1.9 0.109,0.072 1.055,-0.725 2.103,-1.77 2.406,-2.397 2.079,-2.497 -0.426,-0.13 m 66.92,2.63 c 0.66,0.437 1.38,0.795 1.6,0.796 0.22,0 -0.189,-0.358 -0.91,-0.797 -1.698,-1.036 -2.254,-1.035 -0.69,10e-4 m -55.8,0.6 c -0.55,0.314 -0.82,0.572 -0.6,0.572 0.22,0 0.85,-0.258 1.4,-0.572 0.55,-0.314 0.82,-0.572 0.6,-0.572 -0.22,0 -0.85,0.258 -1.4,0.572 m 49.047,1.226 c 0.598,0.784 1.216,2.089 1.374,2.9 0.28,1.439 0.288,1.445 0.333,0.234 0.041,-1.105 -1.911,-4.56 -2.577,-4.56 -0.12,0 0.272,0.642 0.87,1.426 M 166.2,310.845 c -1.32,0.187 -3.48,0.263 -4.8,0.168 -2.166,-0.155 -2.244,-0.135 -0.8,0.201 1.779,0.415 7.353,0.114 8.234,-0.444 0.311,-0.197 0.386,-0.337 0.166,-0.311 -0.22,0.025 -1.48,0.199 -2.8,0.386 m 67.3,0.251 c 1.375,0.078 3.625,0.078 5,0 1.375,-0.078 0.25,-0.142 -2.5,-0.142 -2.75,0 -3.875,0.064 -2.5,0.142 m -25.297,1.248 c 0.801,0.95 5.134,3.317 6.997,3.823 0.55,0.149 -0.528,-0.467 -2.397,-1.369 -1.868,-0.902 -3.846,-2.035 -4.397,-2.519 l -1,-0.879 0.797,0.944 m -20.403,2.402 c -1.693,0.974 -4.068,1.635 -6.4,1.783 l -2,0.127 2.206,0.072 c 2.329,0.076 6.071,-1.033 7.16,-2.123 0.761,-0.76 0.549,-0.729 -0.966,0.141 m 32.78,1.23 c -0.209,0.207 -1.28,0.444 -2.38,0.528 l -2,0.152 2.051,0.072 c 1.406,0.049 2.208,-0.117 2.549,-0.528 0.547,-0.659 0.386,-0.823 -0.22,-0.224"
       stroke="none"
       fill="#848484"
       fill-rule="evenodd" />
    <path
       id="path4"
       d="m 192.8,23.6 c 0,0.251 -2.592,0.4 -6.976,0.4 -4.22,0 -7.074,0.158 -7.224,0.4 -0.136,0.22 -1.587,0.4 -3.224,0.4 -1.717,0 -2.976,0.169 -2.976,0.4 0,0.229 -1.2,0.4 -2.8,0.4 -1.6,0 -2.8,0.171 -2.8,0.4 0,0.22 -0.9,0.4 -2,0.4 -1.1,0 -2,0.161 -2,0.358 0,0.196 -1.621,0.485 -3.603,0.642 -1.981,0.157 -3.702,0.446 -3.823,0.643 -0.122,0.196 -0.83,0.357 -1.574,0.357 -0.744,0 -1.464,0.18 -1.6,0.4 -0.136,0.22 -0.856,0.4 -1.6,0.4 -0.744,0 -1.464,0.18 -1.6,0.4 -0.136,0.22 -0.676,0.4 -1.2,0.4 -0.524,0 -1.064,0.18 -1.2,0.4 -0.136,0.22 -0.867,0.4 -1.624,0.4 -0.757,0 -1.376,0.18 -1.376,0.4 0,0.22 -0.54,0.4 -1.2,0.4 -0.66,0 -1.2,0.18 -1.2,0.4 0,0.22 -0.54,0.4 -1.2,0.4 -0.66,0 -1.2,0.18 -1.2,0.4 0,0.22 -0.439,0.4 -0.976,0.4 -0.537,0 -1.088,0.18 -1.224,0.4 -0.136,0.22 -0.597,0.4 -1.024,0.4 -0.427,0 -0.776,0.18 -0.776,0.4 0,0.22 -0.54,0.4 -1.2,0.4 -0.66,0 -1.2,0.18 -1.2,0.4 0,0.22 -0.45,0.4 -1,0.4 -0.55,0 -1,0.18 -1,0.4 0,0.22 -0.45,0.4 -1,0.4 -0.55,0 -1,0.18 -1,0.4 0,0.22 -0.45,0.4 -1,0.4 -0.55,0 -1,0.18 -1,0.4 0,0.22 -0.36,0.4 -0.8,0.4 -0.44,0 -0.8,0.18 -0.8,0.4 0,0.22 -0.36,0.4 -0.8,0.4 -0.44,0 -0.8,0.18 -0.8,0.4 0,0.22 -0.36,0.4 -0.8,0.4 -0.44,0 -0.8,0.18 -0.8,0.4 0,0.22 -0.36,0.4 -0.8,0.4 -0.44,0 -0.8,0.18 -0.8,0.4 0,0.22 -0.416,0.4 -0.925,0.4 -0.508,0 -1.311,0.36 -1.783,0.8 -0.472,0.44 -1.136,0.8 -1.475,0.8 -0.339,0 -0.617,0.18 -0.617,0.4 0,0.22 -0.297,0.4 -0.66,0.4 -0.625,0 -4.912,1.912 -5.34,2.382 -0.11,0.121 -0.695,0.474 -1.3,0.786 -0.605,0.312 -1.1,0.717 -1.1,0.9 0,0.182 -0.36,0.332 -0.8,0.332 -0.44,0 -0.8,0.18 -0.8,0.4 0,0.22 -0.36,0.4 -0.8,0.4 -0.44,0 -0.8,0.18 -0.8,0.4 0,0.22 -0.236,0.4 -0.525,0.4 -0.288,0 -0.873,0.315 -1.3,0.7 -0.426,0.385 -1.27,0.955 -1.875,1.268 -0.605,0.312 -1.1,0.717 -1.1,0.9 0,0.182 -0.236,0.332 -0.525,0.332 -0.288,0 -0.873,0.315 -1.3,0.7 -0.426,0.385 -1.27,0.955 -1.875,1.268 C 94.495,55.08 94,55.485 94,55.668 94,55.85 93.802,56 93.56,56 c -0.241,0 -0.943,0.54 -1.56,1.2 -0.617,0.66 -1.343,1.2 -1.614,1.2 -0.27,0 -0.783,0.333 -1.139,0.741 -0.356,0.407 -1.187,1.019 -1.847,1.359 -0.66,0.341 -1.783,1.177 -2.496,1.86 -0.713,0.682 -1.463,1.24 -1.665,1.24 -0.203,0 -1.466,1.08 -2.807,2.4 -1.34,1.32 -2.528,2.4 -2.639,2.4 -0.111,0 -2.265,2.025 -4.786,4.5 -2.522,2.475 -5.633,5.49 -6.914,6.7 -1.28,1.21 -2.77,2.822 -3.311,3.581 -1.101,1.55 -1.983,2.597 -3.882,4.613 -0.715,0.758 -1.3,1.579 -1.3,1.824 0,0.245 -0.72,1.136 -1.6,1.982 -0.88,0.846 -1.6,1.692 -1.6,1.88 0,0.189 -0.36,0.603 -0.8,0.92 -0.44,0.317 -0.8,0.807 -0.8,1.088 0,0.282 -0.18,0.512 -0.4,0.512 -0.22,0 -0.4,0.23 -0.4,0.512 0,0.281 -0.36,0.771 -0.8,1.088 -0.44,0.317 -0.8,0.815 -0.8,1.106 0,0.292 -0.436,0.966 -0.969,1.499 -0.533,0.533 -1.085,1.335 -1.227,1.782 -0.142,0.447 -0.404,0.813 -0.582,0.813 -0.179,0 -0.549,0.54 -0.822,1.2 -0.273,0.66 -0.633,1.2 -0.8,1.2 -0.167,0 -0.527,0.54 -0.8,1.2 -0.273,0.66 -0.655,1.2 -0.849,1.2 -0.193,0 -0.351,0.347 -0.351,0.771 0,0.425 -0.27,1.042 -0.6,1.372 -0.33,0.33 -0.6,0.793 -0.6,1.028 0,0.236 -0.18,0.429 -0.4,0.429 -0.22,0 -0.4,0.36 -0.4,0.8 0,0.44 -0.18,0.8 -0.4,0.8 -0.22,0 -0.4,0.27 -0.4,0.6 0,0.33 -0.18,0.6 -0.4,0.6 -0.22,0 -0.4,0.27 -0.4,0.6 0,0.33 -0.18,0.6 -0.4,0.6 -0.22,0 -0.4,0.36 -0.4,0.8 0,0.44 -0.18,0.8 -0.4,0.8 -0.22,0 -0.4,0.36 -0.4,0.8 0,0.44 -0.18,0.8 -0.4,0.8 -0.22,0 -0.4,0.36 -0.4,0.8 0,0.44 -0.18,0.8 -0.4,0.8 -0.22,0 -0.4,0.36 -0.4,0.8 0,0.44 -0.18,0.8 -0.4,0.8 -0.22,0 -0.4,0.36 -0.4,0.8 0,0.44 -0.18,0.8 -0.4,0.8 -0.22,0 -0.4,0.36 -0.4,0.8 0,0.44 -0.18,0.8 -0.4,0.8 -0.22,0 -0.4,0.345 -0.4,0.767 0,0.421 -0.135,0.826 -0.3,0.9 -0.165,0.073 -0.725,1.033 -1.244,2.133 -0.519,1.1 -1.104,2.313 -1.3,2.695 -0.196,0.382 -0.356,0.967 -0.356,1.3 0,0.333 -0.18,0.605 -0.4,0.605 -0.22,0 -0.4,0.349 -0.4,0.776 0,0.427 -0.18,0.888 -0.4,1.024 -0.22,0.136 -0.4,0.687 -0.4,1.224 0,0.537 -0.147,0.976 -0.328,0.976 -0.18,0 -0.572,0.9 -0.872,2 -0.3,1.1 -0.671,2 -0.826,2 -0.155,0 -0.406,0.99 -0.557,2.2 -0.151,1.21 -0.442,2.2 -0.646,2.2 -0.204,0 -0.371,0.54 -0.371,1.2 0,0.66 -0.18,1.2 -0.4,1.2 -0.22,0 -0.4,0.54 -0.4,1.2 0,0.66 -0.18,1.2 -0.4,1.2 -0.22,0 -0.4,0.529 -0.4,1.176 0,0.647 -0.18,1.288 -0.4,1.424 -0.22,0.136 -0.4,0.867 -0.4,1.624 0,0.757 -0.18,1.376 -0.4,1.376 -0.22,0 -0.4,0.72 -0.4,1.6 0,0.88 -0.18,1.6 -0.4,1.6 -0.22,0 -0.4,0.72 -0.4,1.6 0,0.88 -0.18,1.6 -0.4,1.6 -0.22,0 -0.4,0.619 -0.4,1.376 0,0.757 -0.18,1.488 -0.4,1.624 -0.22,0.136 -0.4,1.227 -0.4,2.424 0,1.197 -0.18,2.176 -0.4,2.176 -0.22,0 -0.4,0.9 -0.4,2 0,1.1 -0.18,2 -0.4,2 -0.225,0 -0.4,1.125 -0.4,2.576 0,1.417 -0.18,2.688 -0.4,2.824 -0.221,0.137 -0.4,1.937 -0.4,4.024 0,2.251 -0.162,3.776 -0.4,3.776 -0.26,0 -0.4,5.667 -0.4,16.2 0,10.533 0.14,16.2 0.4,16.2 0.237,0 0.4,1.467 0.4,3.6 0,2.133 0.163,3.6 0.4,3.6 0.229,0 0.4,1.2 0.4,2.8 0,1.6 0.171,2.8 0.4,2.8 0.22,0 0.4,0.979 0.4,2.176 0,1.197 0.18,2.288 0.4,2.424 0.22,0.136 0.4,1.047 0.4,2.024 0,0.977 0.18,1.776 0.4,1.776 0.22,0 0.4,0.72 0.4,1.6 0,0.88 0.18,1.6 0.4,1.6 0.22,0 0.4,0.799 0.4,1.776 0,0.977 0.18,1.888 0.4,2.024 0.22,0.136 0.4,0.777 0.4,1.424 0,0.647 0.18,1.176 0.4,1.176 0.22,0 0.4,0.619 0.4,1.376 0,0.757 0.18,1.488 0.4,1.624 0.22,0.136 0.4,0.777 0.4,1.424 0,0.647 0.18,1.176 0.4,1.176 0.22,0 0.4,0.54 0.4,1.2 0,0.66 0.18,1.2 0.4,1.2 0.22,0 0.4,0.45 0.4,1 0,0.55 0.162,1 0.361,1 0.198,0 0.486,1.08 0.639,2.4 0.153,1.32 0.441,2.4 0.639,2.4 0.199,0 0.361,0.439 0.361,0.976 0,0.537 0.18,1.088 0.4,1.224 0.22,0.136 0.4,0.597 0.4,1.024 0,0.427 0.18,0.776 0.4,0.776 0.22,0 0.4,0.343 0.4,0.762 0,0.659 0.486,1.827 2.05,4.933 0.193,0.382 0.35,0.967 0.35,1.3 0,0.333 0.18,0.605 0.4,0.605 0.22,0 0.4,0.36 0.4,0.8 0,0.44 0.18,0.8 0.4,0.8 0.22,0 0.4,0.36 0.4,0.8 0,0.44 0.18,0.8 0.4,0.8 0.22,0 0.4,0.36 0.4,0.8 0,0.44 0.18,0.8 0.4,0.8 0.22,0 0.4,0.36 0.4,0.8 0,0.44 0.18,0.8 0.4,0.8 0.22,0 0.4,0.36 0.4,0.8 0,0.44 0.18,0.8 0.4,0.8 0.22,0 0.4,0.36 0.4,0.8 0,0.44 0.18,0.8 0.4,0.8 0.22,0 0.4,0.36 0.4,0.8 0,0.44 0.18,0.8 0.4,0.8 0.22,0 0.4,0.36 0.4,0.8 0,0.44 0.136,0.8 0.302,0.8 0.167,0 0.558,0.585 0.87,1.3 0.312,0.715 0.896,1.591 1.298,1.947 0.401,0.356 0.73,0.941 0.73,1.3 0,0.359 0.18,0.653 0.4,0.653 0.22,0 0.4,0.36 0.4,0.8 0,0.44 0.162,0.8 0.361,0.8 0.198,0 0.537,0.506 0.753,1.124 0.215,0.619 0.638,1.39 0.939,1.716 0.301,0.325 0.772,0.989 1.047,1.475 0.275,0.487 0.725,1.283 1,1.77 0.275,0.486 0.719,1.123 0.986,1.414 0.267,0.292 0.801,1.064 1.186,1.716 0.385,0.652 0.842,1.185 1.014,1.185 0.173,0 0.314,0.268 0.314,0.597 0,0.328 0.36,0.821 0.8,1.096 0.44,0.275 0.8,0.744 0.8,1.043 0,0.299 0.54,1.047 1.2,1.664 0.66,0.617 1.2,1.297 1.2,1.512 0,0.215 0.72,1.133 1.6,2.04 0.88,0.907 1.6,1.794 1.6,1.97 0,0.177 0.585,0.98 1.3,1.784 0.715,0.804 1.84,2.126 2.5,2.938 1.431,1.762 16.101,16.556 16.417,16.556 0.121,0 0.633,0.405 1.14,0.9 2.106,2.06 3.847,3.5 4.232,3.5 0.225,0 1.152,0.72 2.059,1.6 0.907,0.88 1.825,1.6 2.04,1.6 0.215,0 0.895,0.54 1.512,1.2 0.617,0.66 1.369,1.2 1.672,1.2 0.303,0 0.811,0.36 1.128,0.8 0.317,0.44 0.805,0.8 1.085,0.8 0.279,0 1.024,0.54 1.655,1.2 0.631,0.66 1.27,1.2 1.42,1.2 0.15,0 0.66,0.36 1.132,0.8 0.472,0.44 1.095,0.8 1.383,0.8 0.289,0 0.525,0.18 0.525,0.4 0,0.22 0.236,0.4 0.525,0.4 0.288,0 0.873,0.324 1.3,0.72 0.426,0.396 1.585,1.161 2.575,1.7 0.99,0.539 1.89,1.087 2,1.218 0.11,0.132 0.695,0.36 1.3,0.508 0.605,0.148 1.1,0.446 1.1,0.662 0,0.215 0.36,0.392 0.8,0.392 0.44,0 0.8,0.18 0.8,0.4 0,0.22 0.27,0.4 0.6,0.4 0.33,0 0.6,0.18 0.6,0.4 0,0.22 0.36,0.4 0.8,0.4 0.44,0 0.8,0.18 0.8,0.4 0,0.22 0.36,0.4 0.8,0.4 0.44,0 0.8,0.18 0.8,0.4 0,0.22 0.36,0.4 0.8,0.4 0.44,0 0.8,0.18 0.8,0.4 0,0.22 0.278,0.4 0.617,0.4 0.339,0 1.003,0.36 1.475,0.8 0.472,0.44 1.275,0.8 1.783,0.8 0.509,0 0.925,0.18 0.925,0.4 0,0.22 0.36,0.4 0.8,0.4 0.44,0 0.8,0.18 0.8,0.4 0,0.22 0.36,0.4 0.8,0.4 0.44,0 0.8,0.18 0.8,0.4 0,0.22 0.36,0.4 0.8,0.4 0.44,0 0.8,0.18 0.8,0.4 0,0.22 0.36,0.4 0.8,0.4 0.44,0 0.8,0.18 0.8,0.4 0,0.22 0.362,0.4 0.805,0.4 0.443,0 1.118,0.159 1.5,0.353 0.382,0.195 1.235,0.576 1.895,0.847 0.66,0.271 1.513,0.652 1.895,0.847 0.382,0.194 1.042,0.353 1.466,0.353 0.425,0 0.832,0.14 0.906,0.312 0.207,0.486 9.03,3.288 10.353,3.288 0.649,0 1.18,0.18 1.18,0.4 0,0.22 0.529,0.4 1.176,0.4 0.647,0 1.288,0.18 1.424,0.4 0.136,0.22 0.867,0.4 1.624,0.4 0.757,0 1.376,0.18 1.376,0.4 0,0.22 0.72,0.4 1.6,0.4 0.88,0 1.6,0.18 1.6,0.4 0,0.22 0.9,0.4 2,0.4 1.1,0 2,0.18 2,0.4 0,0.22 0.81,0.4 1.8,0.4 0.99,0 1.8,0.18 1.8,0.4 0,0.22 0.9,0.4 2,0.4 1.1,0 2,0.18 2,0.4 0,0.229 1.2,0.4 2.8,0.4 1.6,0 2.8,0.171 2.8,0.4 0,0.231 1.259,0.4 2.976,0.4 1.637,0 3.088,0.18 3.224,0.4 0.15,0.242 3.004,0.4 7.224,0.4 4.384,0 6.976,0.149 6.976,0.4 0,0.241 1.667,0.4 4.2,0.4 2.533,0 4.2,-0.159 4.2,-0.4 0,-0.251 2.6,-0.4 7,-0.4 4.4,0 7,-0.149 7,-0.4 0,-0.233 1.333,-0.4 3.2,-0.4 1.867,0 3.2,-0.167 3.2,-0.4 0,-0.226 1.133,-0.4 2.6,-0.4 1.467,0 2.6,-0.174 2.6,-0.4 0,-0.222 1.067,-0.4 2.4,-0.4 1.333,0 2.4,-0.178 2.4,-0.4 0,-0.22 0.9,-0.4 2,-0.4 1.1,0 2,-0.18 2,-0.4 0,-0.22 0.72,-0.4 1.6,-0.4 0.88,0 1.6,-0.18 1.6,-0.4 0,-0.22 0.63,-0.4 1.4,-0.4 0.77,0 1.4,-0.18 1.4,-0.4 0,-0.22 0.72,-0.4 1.6,-0.4 0.88,0 1.6,-0.18 1.6,-0.4 0,-0.22 0.72,-0.4 1.6,-0.4 0.88,0 1.6,-0.159 1.6,-0.354 0,-0.195 0.987,-0.477 2.194,-0.628 1.206,-0.151 2.297,-0.441 2.423,-0.646 0.127,-0.205 0.659,-0.372 1.183,-0.372 0.524,0 1.064,-0.18 1.2,-0.4 0.136,-0.22 0.676,-0.4 1.2,-0.4 0.524,0 1.064,-0.18 1.2,-0.4 0.136,-0.22 0.687,-0.4 1.224,-0.4 0.537,0 0.976,-0.147 0.976,-0.328 0,-0.18 0.9,-0.572 2,-0.872 1.1,-0.3 2,-0.692 2,-0.872 0,-0.181 0.439,-0.328 0.976,-0.328 0.537,0 1.088,-0.18 1.224,-0.4 0.136,-0.22 0.597,-0.4 1.024,-0.4 0.427,0 0.776,-0.18 0.776,-0.4 0,-0.22 0.36,-0.4 0.8,-0.4 0.44,0 0.8,-0.18 0.8,-0.4 0,-0.22 0.45,-0.4 1,-0.4 0.55,0 1,-0.18 1,-0.4 0,-0.22 0.253,-0.4 0.562,-0.4 0.666,0 3.979,-1.668 4.171,-2.1 0.074,-0.165 0.479,-0.3 0.9,-0.3 0.422,0 0.767,-0.18 0.767,-0.4 0,-0.22 0.36,-0.4 0.8,-0.4 0.44,0 0.8,-0.18 0.8,-0.4 0,-0.22 0.36,-0.4 0.8,-0.4 0.44,0 0.8,-0.18 0.8,-0.4 0,-0.22 0.36,-0.4 0.8,-0.4 0.44,0 0.8,-0.18 0.8,-0.4 0,-0.22 0.32,-0.4 0.712,-0.4 0.391,0 0.971,-0.36 1.288,-0.8 0.317,-0.44 0.897,-0.8 1.288,-0.8 0.392,0 0.712,-0.18 0.712,-0.4 0,-0.22 0.335,-0.4 0.744,-0.4 0.409,0 1.407,-0.45 2.218,-1 0.81,-0.55 1.646,-1 1.856,-1 0.21,0 0.382,-0.158 0.382,-0.351 0,-0.194 0.54,-0.576 1.2,-0.849 0.66,-0.273 1.2,-0.655 1.2,-0.849 0,-0.193 0.236,-0.351 0.525,-0.351 0.288,0 0.911,-0.36 1.383,-0.8 0.472,-0.44 1.096,-0.8 1.387,-0.8 0.291,0 0.788,-0.36 1.105,-0.8 0.317,-0.44 0.78,-0.8 1.029,-0.8 0.249,0 1.017,-0.54 1.708,-1.2 0.691,-0.66 1.488,-1.2 1.771,-1.2 0.283,0 0.775,-0.36 1.092,-0.8 0.317,-0.44 0.715,-0.8 0.884,-0.8 0.34,0 1.523,-0.923 2.948,-2.3 0.512,-0.495 1.048,-0.9 1.189,-0.9 0.142,0 0.735,-0.51 1.319,-1.133 0.583,-0.624 1.499,-1.368 2.035,-1.655 1.283,-0.685 1.618,-0.967 4.642,-3.912 1.413,-1.375 2.664,-2.5 2.78,-2.5 0.518,0 8.603,-8.454 8.603,-8.995 0,-0.333 0.176,-0.605 0.391,-0.605 0.581,0 6.009,-5.605 6.009,-6.204 0,-0.107 0.72,-0.937 1.6,-1.844 0.88,-0.907 1.6,-1.808 1.6,-2.004 0,-0.195 0.558,-0.939 1.24,-1.652 0.683,-0.713 1.519,-1.836 1.86,-2.496 0.34,-0.66 0.952,-1.491 1.359,-1.847 0.408,-0.356 0.741,-0.851 0.741,-1.1 0,-0.249 0.18,-0.453 0.4,-0.453 0.22,0 0.4,-0.27 0.4,-0.6 0,-0.33 0.18,-0.6 0.4,-0.6 0.22,0 0.4,-0.23 0.4,-0.512 0,-0.281 0.36,-0.771 0.8,-1.088 0.44,-0.317 0.8,-0.857 0.8,-1.2 0,-0.343 0.36,-0.883 0.8,-1.2 0.44,-0.317 0.8,-0.857 0.8,-1.2 0,-0.343 0.36,-0.883 0.8,-1.2 0.44,-0.317 0.8,-0.814 0.8,-1.105 0,-0.291 0.36,-0.915 0.8,-1.387 0.44,-0.472 0.8,-1.095 0.8,-1.383 0,-0.289 0.18,-0.525 0.4,-0.525 0.22,0 0.4,-0.36 0.4,-0.8 0,-0.44 0.18,-0.8 0.4,-0.8 0.22,0 0.4,-0.36 0.4,-0.8 0,-0.44 0.15,-0.8 0.332,-0.8 0.183,0 0.588,-0.495 0.9,-1.1 0.312,-0.605 0.661,-1.19 0.775,-1.3 0.115,-0.11 0.832,-1.46 1.593,-3 0.761,-1.54 1.506,-2.89 1.655,-3.001 0.149,-0.11 0.398,-0.875 0.553,-1.7 0.154,-0.824 0.441,-1.499 0.637,-1.499 0.195,0 0.355,-0.36 0.355,-0.8 0,-0.44 0.18,-0.8 0.4,-0.8 0.22,0 0.4,-0.36 0.4,-0.8 0,-0.44 0.18,-0.8 0.4,-0.8 0.22,0 0.4,-0.36 0.4,-0.8 0,-0.44 0.18,-0.8 0.4,-0.8 0.22,0 0.4,-0.36 0.4,-0.8 0,-0.44 0.18,-0.8 0.4,-0.8 0.22,0 0.4,-0.45 0.4,-1 0,-0.55 0.18,-1 0.4,-1 0.22,0 0.4,-0.349 0.4,-0.776 0,-0.427 0.18,-0.888 0.4,-1.024 0.22,-0.136 0.4,-0.687 0.4,-1.224 0,-0.537 0.18,-0.976 0.4,-0.976 0.22,0 0.4,-0.54 0.4,-1.2 0,-0.66 0.18,-1.2 0.4,-1.2 0.22,0 0.4,-0.349 0.4,-0.776 0,-0.427 0.18,-0.888 0.4,-1.024 0.22,-0.136 0.4,-0.687 0.4,-1.224 0,-0.537 0.18,-0.976 0.4,-0.976 0.22,0 0.4,-0.54 0.4,-1.2 0,-0.66 0.18,-1.2 0.4,-1.2 0.22,0 0.4,-0.54 0.4,-1.2 0,-0.66 0.18,-1.2 0.4,-1.2 0.22,0 0.4,-0.63 0.4,-1.4 0,-0.77 0.18,-1.4 0.4,-1.4 0.22,0 0.4,-0.54 0.4,-1.2 0,-0.66 0.18,-1.2 0.4,-1.2 0.22,0 0.4,-0.72 0.4,-1.6 0,-0.88 0.18,-1.6 0.4,-1.6 0.22,0 0.4,-0.72 0.4,-1.6 0,-0.88 0.162,-1.6 0.36,-1.6 0.198,0 0.462,-0.765 0.587,-1.7 0.547,-4.089 0.759,-5.118 1.095,-5.326 0.197,-0.122 0.358,-1.075 0.358,-2.118 0,-1.043 0.175,-2.071 0.389,-2.285 0.214,-0.214 0.511,-2.68 0.661,-5.48 0.149,-2.8 0.424,-5.091 0.611,-5.091 0.186,0 0.339,-2.07 0.339,-4.6 0,-2.8 0.157,-4.6 0.4,-4.6 0.257,0 0.4,-4 0.4,-11.2 0,-7.2 -0.143,-11.2 -0.4,-11.2 -0.244,0 -0.4,-1.867 -0.4,-4.8 0,-2.64 -0.153,-4.8 -0.34,-4.8 -0.187,0 -0.463,-2.184 -0.614,-4.853 -0.151,-2.669 -0.448,-5.177 -0.66,-5.574 -0.212,-0.396 -0.386,-1.416 -0.386,-2.267 0,-0.85 -0.162,-1.717 -0.359,-1.926 -0.197,-0.209 -0.457,-1.1 -0.577,-1.98 -0.377,-2.763 -0.707,-4.372 -1.064,-5.2 -0.19,-0.44 -0.456,-1.43 -0.592,-2.2 -0.135,-0.77 -0.347,-1.985 -0.471,-2.7 -0.123,-0.715 -0.385,-1.3 -0.581,-1.3 -0.196,0 -0.356,-0.392 -0.356,-0.872 0,-0.92 -0.66,-3.256 -1.249,-4.423 -0.193,-0.382 -0.351,-1.046 -0.351,-1.476 0,-0.43 -0.18,-0.893 -0.4,-1.029 -0.22,-0.136 -0.4,-0.687 -0.4,-1.224 0,-0.537 -0.18,-0.976 -0.4,-0.976 -0.22,0 -0.4,-0.54 -0.4,-1.2 0,-0.66 -0.18,-1.2 -0.4,-1.2 -0.22,0 -0.4,-0.36 -0.4,-0.8 0,-0.44 -0.18,-0.8 -0.4,-0.8 -0.22,0 -0.4,-0.54 -0.4,-1.2 0,-0.66 -0.18,-1.2 -0.4,-1.2 -0.22,0 -0.4,-0.439 -0.4,-0.976 0,-0.537 -0.18,-1.088 -0.4,-1.224 -0.22,-0.136 -0.4,-0.597 -0.4,-1.024 0,-0.427 -0.18,-0.776 -0.4,-0.776 -0.22,0 -0.4,-0.335 -0.4,-0.744 0,-0.802 -2.405,-5.769 -2.9,-5.989 -0.165,-0.074 -0.3,-0.479 -0.3,-0.9 0,-0.422 -0.164,-0.767 -0.365,-0.767 -0.201,0 -0.486,-0.72 -0.635,-1.6 -0.149,-0.88 -0.434,-1.6 -0.635,-1.6 -0.201,0 -0.365,-0.36 -0.365,-0.8 0,-0.44 -0.135,-0.801 -0.3,-0.803 -0.359,-0.004 -1.3,-1.941 -1.3,-2.677 0,-0.286 -0.159,-0.52 -0.353,-0.52 -0.195,0 -0.454,-0.315 -0.576,-0.7 -0.22,-0.696 -1.484,-2.918 -1.876,-3.3 -0.113,-0.11 -0.633,-1.047 -1.154,-2.082 -0.522,-1.036 -1.284,-2.243 -1.695,-2.684 -0.41,-0.44 -0.746,-1.038 -0.746,-1.329 0,-0.291 -0.36,-0.788 -0.8,-1.105 -0.44,-0.317 -0.8,-0.857 -0.8,-1.2 0,-0.343 -0.36,-0.883 -0.8,-1.2 -0.44,-0.317 -0.8,-0.857 -0.8,-1.2 0,-0.343 -0.36,-0.883 -0.8,-1.2 -0.44,-0.317 -0.8,-0.857 -0.8,-1.2 0,-0.343 -0.36,-0.883 -0.8,-1.2 -0.44,-0.317 -0.8,-0.807 -0.8,-1.088 0,-0.282 -0.18,-0.512 -0.4,-0.512 -0.22,0 -0.4,-0.27 -0.4,-0.6 0,-0.33 -0.168,-0.6 -0.373,-0.6 -0.205,0 -0.483,-0.346 -0.617,-0.77 -0.135,-0.423 -0.957,-1.503 -1.827,-2.4 C 338.712,92.333 338,91.441 338,91.248 c 0,-0.193 -0.72,-1.093 -1.6,-2 -0.88,-0.907 -1.6,-1.816 -1.6,-2.021 0,-0.205 -1.44,-1.826 -3.2,-3.603 -1.76,-1.776 -3.2,-3.321 -3.2,-3.433 0,-0.314 -8.21,-8.591 -8.52,-8.591 -0.151,0 -1.728,-1.44 -3.504,-3.2 -1.777,-1.76 -3.404,-3.2 -3.617,-3.2 -0.212,0 -1.001,-0.585 -1.753,-1.3 -0.752,-0.715 -2.101,-1.84 -2.998,-2.5 -0.896,-0.66 -1.882,-1.425 -2.19,-1.7 -0.309,-0.275 -0.714,-0.5 -0.901,-0.5 -0.187,0 -0.6,-0.36 -0.917,-0.8 -0.317,-0.44 -0.825,-0.8 -1.128,-0.8 -0.303,0 -1.055,-0.54 -1.672,-1.2 -0.617,-0.66 -1.369,-1.2 -1.672,-1.2 -0.303,0 -0.811,-0.36 -1.128,-0.8 -0.317,-0.44 -0.857,-0.8 -1.2,-0.8 -0.343,0 -0.883,-0.36 -1.2,-0.8 -0.317,-0.44 -0.814,-0.8 -1.105,-0.8 -0.291,0 -0.915,-0.36 -1.387,-0.8 -0.472,-0.44 -1.095,-0.8 -1.383,-0.8 -0.289,0 -0.525,-0.18 -0.525,-0.4 0,-0.22 -0.27,-0.4 -0.6,-0.4 -0.33,0 -0.6,-0.152 -0.6,-0.337 0,-0.186 -0.855,-0.771 -1.9,-1.3 -1.045,-0.53 -1.96,-1.098 -2.033,-1.263 -0.074,-0.165 -0.479,-0.3 -0.9,-0.3 -0.422,0 -0.767,-0.142 -0.767,-0.316 0,-0.422 -4.101,-2.484 -4.94,-2.484 -0.363,0 -0.66,-0.18 -0.66,-0.4 0,-0.22 -0.36,-0.4 -0.8,-0.4 -0.44,0 -0.8,-0.18 -0.8,-0.4 0,-0.22 -0.345,-0.4 -0.767,-0.4 -0.421,0 -0.826,-0.135 -0.9,-0.3 -0.192,-0.432 -3.505,-2.1 -4.171,-2.1 -0.309,0 -0.562,-0.18 -0.562,-0.4 0,-0.22 -0.45,-0.4 -1,-0.4 -0.55,0 -1,-0.18 -1,-0.4 0,-0.22 -0.36,-0.4 -0.8,-0.4 -0.44,0 -0.8,-0.18 -0.8,-0.4 0,-0.22 -0.36,-0.4 -0.8,-0.4 -0.44,0 -0.8,-0.18 -0.8,-0.4 0,-0.22 -0.54,-0.4 -1.2,-0.4 -0.66,0 -1.2,-0.18 -1.2,-0.4 0,-0.22 -0.349,-0.4 -0.776,-0.4 -0.427,0 -0.888,-0.18 -1.024,-0.4 -0.136,-0.22 -0.687,-0.4 -1.224,-0.4 -0.537,0 -0.976,-0.18 -0.976,-0.4 0,-0.22 -0.439,-0.4 -0.976,-0.4 -0.537,0 -1.088,-0.18 -1.224,-0.4 -0.136,-0.22 -0.687,-0.4 -1.224,-0.4 -0.537,0 -0.976,-0.18 -0.976,-0.4 0,-0.22 -0.54,-0.4 -1.2,-0.4 -0.66,0 -1.2,-0.18 -1.2,-0.4 0,-0.22 -0.54,-0.4 -1.2,-0.4 -0.66,0 -1.2,-0.18 -1.2,-0.4 0,-0.22 -0.529,-0.4 -1.176,-0.4 -0.647,0 -1.288,-0.18 -1.424,-0.4 -0.136,-0.22 -0.867,-0.4 -1.624,-0.4 -0.757,0 -1.376,-0.16 -1.376,-0.356 0,-0.196 -0.675,-0.471 -1.5,-0.612 -0.825,-0.14 -2.13,-0.361 -2.9,-0.491 -0.77,-0.13 -1.59,-0.387 -1.822,-0.573 -0.232,-0.185 -1.897,-0.459 -3.7,-0.61 -1.803,-0.15 -3.278,-0.427 -3.278,-0.616 0,-0.188 -1.08,-0.342 -2.4,-0.342 -1.333,0 -2.4,-0.178 -2.4,-0.4 0,-0.222 -1.067,-0.4 -2.4,-0.4 -1.333,0 -2.4,-0.178 -2.4,-0.4 0,-0.235 -1.4,-0.4 -3.4,-0.4 -2,0 -3.4,-0.165 -3.4,-0.4 0,-0.251 -2.6,-0.4 -7,-0.4 -4.4,0 -7,-0.149 -7,-0.4 0,-0.241 -1.667,-0.4 -4.2,-0.4 -2.533,0 -4.2,0.159 -4.2,0.4 m 67.966,89.285 c 1.577,0.492 3.656,3.458 3.64,5.191 -0.003,0.372 0.174,0.788 0.394,0.924 0.22,0.136 0.4,0.856 0.4,1.6 0,0.744 0.18,1.464 0.4,1.6 0.248,0.153 0.4,3.73 0.4,9.4 0,5.67 -0.152,9.247 -0.4,9.4 -1.297,0.802 -0.241,4.389 1.9,6.454 0.715,0.69 1.3,1.423 1.3,1.63 0,0.207 0.436,0.786 0.968,1.286 0.532,0.5 1.184,1.431 1.448,2.07 0.265,0.638 0.621,1.16 0.792,1.16 0.334,0 3.192,5.725 3.192,6.395 0,0.223 0.18,0.405 0.4,0.405 0.22,0 0.4,0.439 0.4,0.976 0,0.537 0.18,1.088 0.4,1.224 0.22,0.136 0.4,0.676 0.4,1.2 0,0.524 0.18,1.064 0.4,1.2 0.22,0.136 0.4,0.856 0.4,1.6 0,0.744 0.18,1.464 0.4,1.6 0.22,0.136 0.4,1.036 0.4,2 0,0.964 0.18,1.864 0.4,2 0.251,0.155 0.4,4.396 0.4,11.4 0,7.004 -0.149,11.245 -0.4,11.4 -0.22,0.136 -0.4,1.396 -0.4,2.8 0,1.404 -0.18,2.664 -0.4,2.8 -0.22,0.136 -0.4,1.036 -0.4,2 0,0.964 -0.18,1.864 -0.4,2 -0.22,0.136 -0.4,0.856 -0.4,1.6 0,0.744 -0.18,1.464 -0.4,1.6 -0.22,0.136 -0.4,0.766 -0.4,1.4 0,0.634 -0.18,1.264 -0.4,1.4 -0.22,0.136 -0.4,0.661 -0.4,1.168 0,0.506 -0.454,1.589 -1.009,2.407 -0.555,0.818 -1.476,2.409 -2.047,3.536 -2.32,4.579 -10.101,12.828 -13.744,14.571 -1.21,0.579 -2.577,1.388 -3.039,1.797 -0.461,0.41 -1.811,1.119 -3,1.575 -1.188,0.457 -2.791,1.073 -3.561,1.371 -0.77,0.297 -1.794,0.548 -2.276,0.557 -0.482,0.01 -0.988,0.198 -1.124,0.418 -0.136,0.22 -0.837,0.4 -1.557,0.4 -0.72,0 -1.433,0.123 -1.584,0.274 -0.539,0.54 -3.285,1.314 -4.679,1.32 -0.781,0.003 -1.591,0.169 -1.8,0.369 -0.377,0.36 -2.372,0.655 -7.367,1.088 -4.227,0.367 -4.483,0.836 -1.835,3.363 2.145,2.047 4.222,5.413 4.222,6.841 0,0.384 0.18,0.809 0.4,0.945 0.22,0.136 0.4,0.856 0.4,1.6 0,0.744 0.18,1.464 0.4,1.6 0.22,0.136 0.4,1.396 0.4,2.8 0,1.404 0.18,2.664 0.4,2.8 0.257,0.159 0.4,6.742 0.4,18.437 v 18.19 l 0.985,1.943 c 0.542,1.07 1.549,2.369 2.238,2.887 0.689,0.519 1.789,1.438 2.446,2.043 0.656,0.605 1.352,1.1 1.546,1.1 1.717,0 2.548,3.644 1.169,5.125 -0.874,0.938 -9.45,1.347 -11.089,0.528 -0.382,-0.19 -2.135,-1.041 -3.895,-1.89 -4.181,-2.017 -6.357,-4.167 -7.504,-7.414 -0.319,-0.901 -0.566,-6.592 -0.744,-17.149 -0.282,-16.735 -0.569,-20.666 -1.649,-22.6 -0.635,-1.136 -0.672,-0.123 -0.687,18.876 -0.01,12.971 0.126,20.164 0.384,20.324 0.22,0.136 0.4,0.783 0.4,1.437 0,1.191 1.643,4.895 2.371,5.345 0.213,0.131 0.936,1.053 1.608,2.049 3.111,4.609 0.021,8.586 -5.06,6.512 -3.225,-1.316 -6.897,-3.256 -7.564,-3.996 -0.415,-0.461 -1.163,-0.995 -1.662,-1.186 -0.499,-0.191 -1.073,-0.782 -1.275,-1.315 -0.203,-0.533 -0.548,-1.079 -0.768,-1.215 -0.364,-0.225 -1.927,-3.286 -2.669,-5.231 -0.858,-2.246 -1.105,-7.295 -1.244,-25.5 -0.096,-12.65 -0.295,-19.9 -0.544,-19.9 -0.251,0 -0.393,6.324 -0.393,17.52 0,10.286 -0.154,17.677 -0.373,17.9 -0.205,0.209 -0.456,2 -0.559,3.98 -0.252,4.851 -0.757,7.483 -1.69,8.804 -0.428,0.606 -0.986,1.46 -1.24,1.899 -0.735,1.269 -5.062,5.497 -5.625,5.497 -0.282,0 -0.513,0.141 -0.513,0.314 0,0.999 -5.055,2.872 -7.774,2.88 -4.222,0.013 -5.33,-3.792 -2.093,-7.18 1.097,-1.148 1.915,-2.475 2.227,-3.614 0.272,-0.99 0.662,-2.353 0.867,-3.028 0.521,-1.717 0.495,-40.295 -0.027,-39.972 -0.22,0.136 -0.4,0.651 -0.4,1.144 0,0.493 -0.176,1.072 -0.392,1.288 -0.238,0.238 -0.443,7.09 -0.524,17.58 -0.134,17.197 -0.256,18.977 -1.401,20.291 -0.336,0.386 -0.812,1.103 -1.055,1.592 -0.244,0.489 -0.826,1.08 -1.293,1.313 -0.467,0.233 -1.094,0.622 -1.392,0.865 -1.105,0.898 -6.034,3.327 -6.753,3.327 -0.408,0 -0.854,0.18 -0.99,0.4 -0.791,1.28 -10.734,0.201 -11.639,-1.263 -0.534,-0.864 3.258,-5.937 4.437,-5.937 0.376,0 4.29,-4.107 5.096,-5.348 0.162,-0.248 0.297,-5.717 0.3,-12.152 l 0.006,-11.7 h -1.376 c -0.757,0 -1.488,0.18 -1.624,0.4 -0.149,0.24 -2.863,0.4 -6.8,0.4 -3.937,0 -6.651,-0.16 -6.8,-0.4 -0.136,-0.22 -1.036,-0.4 -2,-0.4 -0.964,0 -1.864,-0.18 -2,-0.4 -0.136,-0.22 -0.591,-0.4 -1.011,-0.4 -0.421,0 -1.406,-0.36 -2.189,-0.8 -0.783,-0.44 -1.751,-0.8 -2.15,-0.8 -0.399,0 -1.052,-0.36 -1.45,-0.8 -0.398,-0.44 -0.926,-0.8 -1.172,-0.8 -1.813,0 -6.969,-6.796 -10.375,-13.675 -1.491,-3.011 -2.968,-5.688 -3.282,-5.949 -0.314,-0.261 -0.571,-0.672 -0.571,-0.915 0,-0.582 -5.249,-5.861 -5.827,-5.861 -0.247,0 -0.775,-0.36 -1.173,-0.8 -0.398,-0.44 -0.93,-0.8 -1.181,-0.8 -2.719,0 -4.339,-5.487 -2.019,-6.841 1.351,-0.788 7.96,-1.071 8.4,-0.359 0.136,0.22 0.561,0.4 0.945,0.4 2.465,0 9.474,6.111 14.655,12.777 2.637,3.393 5.079,6.023 5.593,6.023 0.266,0 0.809,0.36 1.207,0.8 0.398,0.44 1.135,0.8 1.638,0.8 0.503,0 1.026,0.18 1.162,0.4 0.136,0.22 0.831,0.4 1.544,0.4 0.713,0 1.487,0.191 1.72,0.424 0.807,0.807 13.011,0.026 13.563,-0.868 0.121,-0.196 0.542,-0.356 0.935,-0.356 1.379,0 3.238,-1.22 3.244,-2.129 0.007,-1.081 1.093,-4.264 1.729,-5.071 0.261,-0.33 0.811,-1.23 1.224,-2 0.413,-0.77 1.651,-2.255 2.752,-3.3 l 2.002,-1.9 h -1.433 c -0.788,0 -1.544,-0.18 -1.68,-0.4 -0.136,-0.22 -1.396,-0.4 -2.8,-0.4 -1.404,0 -2.664,-0.18 -2.8,-0.4 -0.136,-0.22 -0.856,-0.4 -1.6,-0.4 -0.744,0 -1.464,-0.18 -1.6,-0.4 -0.136,-0.22 -1.036,-0.4 -2,-0.4 -0.964,0 -1.864,-0.18 -2,-0.4 -0.136,-0.22 -0.676,-0.4 -1.2,-0.4 -0.524,0 -1.064,-0.18 -1.2,-0.4 -0.136,-0.22 -0.856,-0.4 -1.6,-0.4 -0.744,0 -1.464,-0.18 -1.6,-0.4 -0.136,-0.22 -0.574,-0.4 -0.973,-0.4 -1.131,0 -9.401,-3.711 -9.836,-4.414 -0.132,-0.213 -1.009,-0.739 -1.95,-1.167 -0.941,-0.429 -1.942,-1.058 -2.225,-1.399 -0.282,-0.341 -0.724,-0.62 -0.98,-0.62 -0.256,0 -1.353,-0.9 -2.436,-2 -1.083,-1.1 -2.197,-2 -2.475,-2 -0.277,0 -0.765,-0.495 -1.083,-1.1 -0.318,-0.605 -1.413,-1.91 -2.434,-2.9 -1.021,-0.99 -2.146,-2.43 -2.499,-3.2 -0.354,-0.77 -0.901,-1.704 -1.215,-2.075 -0.85,-1.002 -4.894,-9.197 -4.894,-9.916 0,-0.341 -0.36,-1.605 -0.8,-2.809 -0.44,-1.204 -0.8,-2.56 -0.8,-3.014 0,-0.454 -0.164,-0.997 -0.365,-1.206 -0.377,-0.393 -0.717,-3.005 -1.062,-8.18 -0.11,-1.65 -0.383,-3.365 -0.607,-3.811 -0.808,-1.614 -0.017,-15.942 1.149,-20.789 0.786,-3.27 4.836,-11.639 6.295,-13.009 0.544,-0.512 0.99,-1.135 0.99,-1.386 0,-0.25 0.54,-0.973 1.2,-1.605 0.66,-0.632 1.2,-1.358 1.2,-1.613 0,-0.255 0.36,-0.789 0.8,-1.187 0.819,-0.741 1.123,-3.153 0.45,-3.569 -1.32,-0.816 -1.32,-22.046 0,-22.862 0.193,-0.119 0.35,-0.577 0.35,-1.017 0,-1.134 1.211,-4.712 2.115,-6.252 l 0.764,-1.3 h 3.937 c 2.193,0 4.046,0.177 4.184,0.4 0.136,0.22 0.76,0.4 1.388,0.4 2.714,0 15.682,5.451 18.368,7.722 0.354,0.299 1.294,0.841 2.089,1.204 0.795,0.362 1.672,0.933 1.949,1.267 0.277,0.334 0.695,0.607 0.929,0.607 0.234,0 0.844,0.394 1.357,0.875 0.718,0.675 1.039,0.766 1.405,0.4 0.261,-0.261 0.878,-0.475 1.371,-0.475 0.493,0 1.008,-0.18 1.144,-0.4 0.136,-0.22 0.831,-0.4 1.544,-0.4 0.713,0 1.467,-0.162 1.676,-0.359 0.472,-0.446 3.008,-0.834 7.18,-1.097 1.76,-0.111 3.371,-0.369 3.58,-0.573 0.531,-0.519 28.099,-0.49 28.42,0.029 0.136,0.22 1.576,0.4 3.2,0.4 1.624,0 3.064,0.18 3.2,0.4 0.136,0.22 1.126,0.4 2.2,0.4 1.074,0 2.064,0.18 2.2,0.4 0.406,0.657 4.032,0.484 4.616,-0.22 0.283,-0.341 1.284,-0.97 2.225,-1.399 0.941,-0.428 1.811,-0.942 1.935,-1.142 0.266,-0.431 10.829,-5.639 11.436,-5.639 0.231,0 1.097,-0.345 1.924,-0.767 0.827,-0.422 2.395,-0.953 3.484,-1.18 4.876,-1.017 5.927,-1.266 6.114,-1.453 0.366,-0.366 2.86,-0.206 4.432,0.285"
       stroke="none"
       fill="#040404"
       fill-rule="evenodd" />
  </g>
</svg>
