<svg id="svg" version="1.1" xmlns="http://www.w3.org/2000/svg" xmlns:xlink="http://www.w3.org/1999/xlink" width="400" height="400" viewBox="0, 0, 400,400"><g id="svgg"><path id="path0" d="M112.400 85.561 C 89.649 88.800,81.958 117.850,100.384 130.946 C 101.952 132.060,103.324 132.743,107.400 134.437 C 110.581 135.759,119.551 136.214,124.200 135.289 C 150.939 129.969,152.564 93.979,126.415 86.223 C 123.902 85.477,115.707 85.091,112.400 85.561 M253.600 152.781 C 249.084 153.439,246.523 154.024,243.800 155.020 C 242.260 155.583,240.444 156.214,239.764 156.423 C 234.674 157.985,226.176 164.887,220.643 171.955 C 217.450 176.033,217.629 176.430,217.502 165.000 L 217.400 155.800 193.175 155.697 L 168.951 155.594 168.861 229.000 L 168.772 302.406 193.086 302.303 L 217.400 302.200 217.640 258.000 C 217.790 230.427,218.033 213.198,218.285 212.200 C 223.934 189.808,252.932 182.891,263.753 201.355 C 268.558 209.556,268.530 209.228,268.781 259.000 L 269.000 302.200 293.200 302.200 L 317.400 302.200 317.525 257.400 C 317.607 227.900,317.508 211.507,317.233 209.400 C 317.004 207.640,316.638 204.760,316.421 203.000 C 315.282 193.758,312.017 183.833,307.888 177.061 C 298.027 160.885,283.608 153.031,263.000 152.608 C 259.040 152.527,254.810 152.605,253.600 152.781 M93.470 155.864 C 93.321 156.012,93.200 189.045,93.200 229.270 L 93.200 302.406 117.500 302.303 L 141.800 302.200 141.800 229.000 L 141.800 155.800 117.770 155.697 C 104.553 155.640,93.618 155.715,93.470 155.864 " stroke="none" fill="#fafafa" fill-rule="evenodd"></path><path id="path1" d="M115.516 85.097 C 116.899 85.175,119.059 85.174,120.316 85.095 C 121.572 85.016,120.440 84.952,117.800 84.953 C 115.160 84.953,114.132 85.018,115.516 85.097 M95.178 94.700 L 93.800 96.200 95.300 94.822 C 96.696 93.538,96.984 93.200,96.678 93.200 C 96.612 93.200,95.937 93.875,95.178 94.700 M89.740 110.400 C 89.740 112.270,89.809 113.035,89.893 112.100 C 89.977 111.165,89.977 109.635,89.893 108.700 C 89.809 107.765,89.740 108.530,89.740 110.400 M138.185 128.500 L 136.200 130.600 138.300 128.615 C 140.251 126.771,140.583 126.400,140.285 126.400 C 140.222 126.400,139.277 127.345,138.185 128.500 M115.300 136.296 C 116.565 136.375,118.635 136.375,119.900 136.296 C 121.165 136.216,120.130 136.151,117.600 136.151 C 115.070 136.151,114.035 136.216,115.300 136.296 M258.900 151.896 C 260.165 151.975,262.235 151.975,263.500 151.896 C 264.765 151.816,263.730 151.751,261.200 151.751 C 258.670 151.751,257.635 151.816,258.900 151.896 M248.021 153.179 C 247.646 153.416,248.070 153.465,249.221 153.318 C 250.199 153.192,251.075 153.025,251.167 152.945 C 251.542 152.619,248.555 152.840,248.021 153.179 M272.500 153.076 C 272.885 153.176,273.515 153.176,273.900 153.076 C 274.285 152.975,273.970 152.893,273.200 152.893 C 272.430 152.893,272.115 152.975,272.500 153.076 M93.062 155.500 C 92.893 155.772,111.002 155.768,133.200 155.491 C 137.930 155.432,130.876 155.342,117.524 155.292 C 104.172 155.241,93.164 155.335,93.062 155.500 M168.480 155.680 C 168.182 155.978,168.027 157.229,168.072 158.980 L 168.144 161.800 168.372 158.800 L 168.600 155.800 193.000 155.595 L 217.400 155.391 193.180 155.295 C 174.768 155.223,168.845 155.315,168.480 155.680 M217.771 164.800 C 217.771 169.750,217.828 171.775,217.899 169.300 C 217.969 166.825,217.969 162.775,217.899 160.300 C 217.828 157.825,217.771 159.850,217.771 164.800 M242.515 191.496 C 243.788 191.576,245.768 191.575,246.915 191.494 C 248.062 191.414,247.020 191.349,244.600 191.350 C 242.180 191.351,241.242 191.416,242.515 191.496 M226.575 198.100 L 225.400 199.400 226.700 198.225 C 227.415 197.579,228.000 196.994,228.000 196.925 C 228.000 196.616,227.670 196.888,226.575 198.100 M219.246 209.267 C 219.221 209.634,219.096 210.264,218.970 210.667 C 218.752 211.362,218.763 211.363,219.197 210.687 C 219.448 210.296,219.573 209.666,219.473 209.287 C 219.311 208.668,219.288 208.666,219.246 209.267 M317.746 214.200 C 317.747 216.400,317.814 217.249,317.895 216.087 C 317.976 214.924,317.976 213.124,317.893 212.087 C 317.811 211.049,317.745 212.000,317.746 214.200 M218.131 216.600 C 218.133 218.140,218.205 218.721,218.292 217.891 C 218.379 217.061,218.377 215.801,218.289 215.091 C 218.200 214.381,218.129 215.060,218.131 216.600 M267.720 216.400 C 267.720 217.610,267.795 218.105,267.887 217.500 C 267.978 216.895,267.978 215.905,267.887 215.300 C 267.795 214.695,267.720 215.190,267.720 216.400 M217.793 261.000 C 217.793 283.660,217.841 292.871,217.900 281.469 C 217.959 270.068,217.959 251.528,217.900 240.269 C 217.841 229.011,217.793 238.340,217.793 261.000 M168.189 275.000 C 168.189 289.960,168.239 296.022,168.300 288.471 C 168.361 280.920,168.361 268.680,168.300 261.271 C 168.239 253.862,168.189 260.040,168.189 275.000 " stroke="none" fill="#7c7c7c" fill-rule="evenodd"></path><path id="path2" d="M111.900 85.482 C 112.395 85.578,113.205 85.578,113.700 85.482 C 114.195 85.387,113.790 85.309,112.800 85.309 C 111.810 85.309,111.405 85.387,111.900 85.482 M121.900 85.482 C 122.395 85.578,123.205 85.578,123.700 85.482 C 124.195 85.387,123.790 85.309,122.800 85.309 C 121.810 85.309,121.405 85.387,121.900 85.482 M126.800 86.382 C 127.130 86.605,127.745 86.791,128.167 86.794 C 129.190 86.802,128.871 86.573,127.400 86.244 C 126.524 86.048,126.362 86.085,126.800 86.382 M104.800 87.400 C 104.250 87.714,103.980 87.972,104.200 87.972 C 104.420 87.972,105.050 87.714,105.600 87.400 C 106.150 87.086,106.420 86.828,106.200 86.828 C 105.980 86.828,105.350 87.086,104.800 87.400 M137.600 92.600 C 139.017 94.030,140.267 95.200,140.377 95.200 C 140.487 95.200,139.417 94.030,138.000 92.600 C 136.583 91.170,135.333 90.000,135.223 90.000 C 135.113 90.000,136.183 91.170,137.600 92.600 M145.314 111.000 C 145.317 112.100,145.395 112.503,145.487 111.895 C 145.579 111.286,145.577 110.386,145.482 109.895 C 145.387 109.403,145.311 109.900,145.314 111.000 M90.493 116.000 C 90.493 116.770,90.575 117.085,90.676 116.700 C 90.776 116.315,90.776 115.685,90.676 115.300 C 90.575 114.915,90.493 115.230,90.493 116.000 M142.678 121.805 C 142.312 122.572,142.095 123.200,142.196 123.200 C 142.470 123.200,143.684 120.751,143.501 120.568 C 143.414 120.481,143.044 121.038,142.678 121.805 M137.986 128.300 L 135.800 130.600 138.100 128.414 C 139.365 127.211,140.400 126.176,140.400 126.114 C 140.400 125.817,140.018 126.163,137.986 128.300 M97.000 128.400 C 97.859 129.280,98.652 130.000,98.762 130.000 C 98.872 130.000,98.259 129.280,97.400 128.400 C 96.541 127.520,95.748 126.800,95.638 126.800 C 95.528 126.800,96.141 127.520,97.000 128.400 M130.600 133.222 C 129.720 133.638,129.270 133.976,129.600 133.973 C 129.930 133.969,130.830 133.622,131.600 133.200 C 133.396 132.217,132.692 132.232,130.600 133.222 M258.700 152.296 C 260.075 152.374,262.325 152.374,263.700 152.296 C 265.075 152.218,263.950 152.154,261.200 152.154 C 258.450 152.154,257.325 152.218,258.700 152.296 M252.905 152.687 C 253.514 152.779,254.414 152.777,254.905 152.682 C 255.397 152.587,254.900 152.511,253.800 152.514 C 252.700 152.517,252.297 152.595,252.905 152.687 M267.700 152.687 C 268.305 152.778,269.295 152.778,269.900 152.687 C 270.505 152.595,270.010 152.520,268.800 152.520 C 267.590 152.520,267.095 152.595,267.700 152.687 M92.985 156.100 C 92.880 156.375,92.841 189.360,92.897 229.400 L 93.000 302.200 93.200 228.900 C 93.310 188.585,93.349 155.600,93.287 155.600 C 93.226 155.600,93.089 155.825,92.985 156.100 M141.800 228.938 L 141.800 302.200 117.400 302.405 L 93.000 302.609 117.220 302.705 C 135.632 302.777,141.555 302.685,141.920 302.320 C 142.466 301.774,142.645 156.198,142.100 155.862 C 141.935 155.760,141.800 188.644,141.800 228.938 M168.537 159.000 C 168.539 160.760,168.609 161.430,168.693 160.489 C 168.778 159.549,168.777 158.109,168.691 157.289 C 168.605 156.470,168.536 157.240,168.537 159.000 M234.500 158.846 C 233.137 159.719,232.695 160.306,233.900 159.643 C 234.818 159.139,236.256 158.027,236.000 158.019 C 235.890 158.016,235.215 158.388,234.500 158.846 M291.610 160.126 C 292.209 160.774,294.895 162.397,294.418 161.822 C 294.110 161.451,293.305 160.866,292.629 160.523 C 291.953 160.179,291.495 160.001,291.610 160.126 M305.199 173.100 C 305.722 173.815,306.213 174.400,306.289 174.400 C 306.593 174.400,305.601 172.900,304.945 172.367 C 304.513 172.016,304.610 172.296,305.199 173.100 M308.039 177.376 C 308.501 178.159,308.956 178.800,309.050 178.800 C 309.334 178.800,308.036 176.469,307.602 176.201 C 307.380 176.064,307.577 176.593,308.039 177.376 M310.417 181.656 C 310.408 181.797,310.756 182.697,311.191 183.656 C 311.626 184.615,311.979 185.130,311.974 184.800 C 311.967 184.213,310.450 181.151,310.417 181.656 M168.976 193.200 C 168.976 199.470,169.032 202.035,169.099 198.900 C 169.167 195.765,169.167 190.635,169.099 187.500 C 169.032 184.365,168.976 186.930,168.976 193.200 M242.912 191.095 C 243.964 191.177,245.584 191.176,246.512 191.092 C 247.440 191.008,246.580 190.941,244.600 190.942 C 242.620 190.943,241.860 191.012,242.912 191.095 M249.200 191.582 C 249.530 191.805,250.145 191.991,250.567 191.994 C 251.590 192.002,251.271 191.773,249.800 191.444 C 248.924 191.248,248.762 191.285,249.200 191.582 M229.000 195.835 L 227.800 196.866 229.100 196.006 C 229.815 195.533,230.400 195.068,230.400 194.973 C 230.400 194.673,230.231 194.778,229.000 195.835 M259.800 196.800 C 260.883 197.900,261.860 198.800,261.970 198.800 C 262.080 198.800,261.283 197.900,260.200 196.800 C 259.117 195.700,258.140 194.800,258.030 194.800 C 257.920 194.800,258.717 195.700,259.800 196.800 M223.978 200.700 L 222.600 202.200 224.100 200.822 C 225.496 199.538,225.784 199.200,225.478 199.200 C 225.412 199.200,224.737 199.875,223.978 200.700 M220.580 205.640 C 220.011 206.762,219.613 207.747,219.695 207.829 C 219.777 207.911,220.327 206.993,220.918 205.789 C 221.508 204.585,221.906 203.600,221.802 203.600 C 221.698 203.600,221.148 204.518,220.580 205.640 M316.920 206.400 C 316.920 207.610,316.995 208.105,317.087 207.500 C 317.178 206.895,317.178 205.905,317.087 205.300 C 316.995 204.695,316.920 205.190,316.920 206.400 M268.120 216.800 C 268.120 218.010,268.195 218.505,268.287 217.900 C 268.378 217.295,268.378 216.305,268.287 215.700 C 268.195 215.095,268.120 215.590,268.120 216.800 M317.599 260.000 L 317.400 302.200 293.200 302.200 L 269.000 302.200 268.797 261.200 L 268.594 220.200 268.497 261.020 C 268.423 292.345,268.512 301.952,268.880 302.320 C 269.629 303.069,316.930 303.007,317.553 302.257 C 317.882 301.860,317.976 290.429,317.901 259.757 L 317.798 217.800 317.599 260.000 M168.596 275.200 L 168.600 302.600 192.777 302.703 C 206.074 302.760,217.090 302.670,217.257 302.503 C 217.424 302.336,206.590 302.248,193.183 302.306 L 168.806 302.412 168.699 275.106 L 168.592 247.800 168.596 275.200 " stroke="none" fill="#848484" fill-rule="evenodd"></path><path id="path3" d="M179.402 0.495 C 176.322 0.702,173.712 1.012,173.602 1.184 C 173.491 1.356,171.645 1.627,169.500 1.786 C 167.355 1.945,165.600 2.217,165.600 2.390 C 165.600 2.564,164.251 2.832,162.603 2.987 C 160.954 3.141,159.512 3.418,159.398 3.602 C 159.285 3.787,158.023 4.062,156.596 4.215 C 155.168 4.368,154.000 4.652,154.000 4.847 C 154.000 5.041,153.595 5.204,153.100 5.208 C 152.273 5.216,150.952 5.492,145.400 6.815 C 144.300 7.078,143.220 7.431,143.000 7.601 C 142.780 7.771,141.835 8.036,140.900 8.190 C 139.965 8.344,139.200 8.614,139.200 8.790 C 139.200 8.965,138.390 9.231,137.400 9.379 C 136.410 9.528,135.600 9.807,135.600 10.000 C 135.600 10.193,134.790 10.472,133.800 10.621 C 132.810 10.769,132.000 11.050,132.000 11.245 C 132.000 11.440,131.685 11.606,131.300 11.614 C 130.915 11.621,129.880 11.975,129.000 12.400 C 128.120 12.825,127.130 13.180,126.800 13.189 C 126.470 13.198,125.717 13.457,125.127 13.765 C 124.537 14.073,123.502 14.446,122.827 14.594 C 122.152 14.742,121.600 15.029,121.600 15.232 C 121.600 15.434,121.375 15.606,121.100 15.614 C 120.825 15.621,119.880 15.975,119.000 16.400 C 118.120 16.825,117.175 17.179,116.900 17.186 C 116.625 17.194,116.400 17.366,116.400 17.568 C 116.400 17.771,115.860 18.055,115.200 18.200 C 114.540 18.345,114.000 18.629,114.000 18.832 C 114.000 19.034,113.775 19.206,113.500 19.214 C 113.225 19.221,112.280 19.575,111.400 20.000 C 110.520 20.425,109.590 20.779,109.333 20.786 C 109.077 20.794,108.807 20.935,108.733 21.100 C 108.660 21.265,107.520 21.926,106.200 22.570 C 104.880 23.213,103.710 23.843,103.600 23.970 C 103.490 24.096,102.500 24.650,101.400 25.200 C 100.300 25.750,99.310 26.290,99.200 26.400 C 98.880 26.720,97.485 27.564,96.400 28.095 C 95.850 28.364,95.310 28.689,95.200 28.818 C 95.090 28.947,94.010 29.632,92.800 30.340 C 89.234 32.425,88.852 32.678,87.239 34.007 C 86.710 34.443,86.054 34.800,85.782 34.800 C 85.509 34.800,85.182 35.070,85.055 35.400 C 84.929 35.730,84.615 36.000,84.358 36.000 C 84.102 36.000,83.494 36.429,83.008 36.953 C 82.522 37.477,81.778 38.017,81.354 38.151 C 80.930 38.286,79.991 38.937,79.267 39.598 C 78.543 40.259,77.807 40.800,77.631 40.800 C 77.456 40.800,76.661 41.385,75.867 42.100 C 74.383 43.435,72.843 44.731,70.418 46.686 C 67.844 48.761,66.769 49.787,58.278 58.264 C 50.086 66.443,45.956 70.827,45.656 71.662 C 45.577 71.882,45.037 72.587,44.456 73.228 C 43.875 73.870,42.920 74.928,42.332 75.580 C 41.745 76.232,41.148 77.134,41.005 77.583 C 40.863 78.032,40.603 78.400,40.427 78.400 C 40.252 78.400,39.589 79.165,38.954 80.100 C 38.319 81.035,37.620 82.003,37.400 82.251 C 37.180 82.499,36.730 83.106,36.400 83.600 C 36.070 84.094,35.599 84.709,35.353 84.968 C 35.107 85.226,34.785 85.817,34.638 86.282 C 34.490 86.746,34.106 87.227,33.785 87.350 C 33.463 87.474,33.200 87.851,33.200 88.187 C 33.200 88.524,33.061 88.800,32.892 88.800 C 32.722 88.800,32.141 89.610,31.600 90.600 C 31.059 91.590,30.512 92.400,30.383 92.400 C 30.254 92.400,29.902 93.030,29.600 93.800 C 29.298 94.570,28.904 95.200,28.725 95.200 C 28.546 95.200,28.400 95.364,28.400 95.565 C 28.400 95.766,27.770 96.887,27.000 98.056 C 26.230 99.225,25.600 100.411,25.600 100.691 C 25.600 100.971,25.434 101.200,25.232 101.200 C 25.029 101.200,24.745 101.740,24.600 102.400 C 24.455 103.060,24.176 103.600,23.980 103.600 C 23.596 103.600,21.600 107.575,21.600 108.339 C 21.600 108.592,21.440 108.800,21.243 108.800 C 21.047 108.800,20.763 109.293,20.612 109.896 C 20.460 110.499,20.196 111.084,20.025 111.196 C 19.536 111.516,16.800 117.409,16.800 118.142 C 16.800 118.504,16.620 118.800,16.400 118.800 C 16.180 118.800,15.994 119.025,15.986 119.300 C 15.979 119.575,15.625 120.520,15.200 121.400 C 14.775 122.280,14.421 123.225,14.414 123.500 C 14.406 123.775,14.249 124.000,14.064 124.000 C 13.879 124.000,13.490 124.990,13.200 126.200 C 12.910 127.410,12.523 128.400,12.341 128.400 C 12.159 128.400,11.894 129.120,11.754 130.000 C 11.613 130.880,11.352 131.600,11.173 131.600 C 10.995 131.600,10.728 132.410,10.579 133.400 C 10.431 134.390,10.165 135.200,9.990 135.200 C 9.814 135.200,9.549 135.919,9.400 136.798 C 9.252 137.677,8.982 138.488,8.800 138.600 C 8.618 138.712,8.348 139.522,8.200 140.400 C 8.052 141.278,7.766 142.097,7.565 142.222 C 7.364 142.346,7.200 142.773,7.200 143.171 C 7.200 143.570,6.856 144.971,6.437 146.286 C 6.017 147.600,5.546 149.693,5.390 150.938 C 5.235 152.182,4.966 153.200,4.793 153.200 C 4.620 153.200,4.353 154.280,4.200 155.601 C 4.047 156.921,3.774 158.092,3.595 158.203 C 3.415 158.314,3.141 159.754,2.987 161.403 C 2.832 163.051,2.568 164.400,2.400 164.400 C 2.232 164.400,1.964 165.975,1.804 167.900 C 1.645 169.825,1.376 171.490,1.207 171.600 C -0.322 172.596,-0.338 225.760,1.191 226.800 C 1.352 226.910,1.613 228.617,1.771 230.594 C 1.928 232.571,2.201 234.281,2.376 234.394 C 2.552 234.507,2.824 235.995,2.982 237.700 C 3.139 239.405,3.410 240.800,3.582 240.800 C 3.755 240.800,4.024 241.923,4.179 243.296 C 4.334 244.669,4.599 245.974,4.767 246.196 C 4.935 246.418,5.302 247.950,5.583 249.600 C 5.863 251.250,6.235 252.780,6.409 253.000 C 6.583 253.220,6.852 254.255,7.008 255.300 C 7.164 256.345,7.430 257.200,7.600 257.200 C 7.770 257.200,8.031 258.010,8.179 259.000 C 8.328 259.990,8.598 260.800,8.779 260.800 C 8.961 260.800,9.230 261.606,9.378 262.591 C 9.525 263.576,9.800 264.476,9.988 264.593 C 10.176 264.709,10.452 265.523,10.600 266.402 C 10.749 267.281,11.019 268.000,11.200 268.000 C 11.381 268.000,11.651 268.719,11.800 269.598 C 11.948 270.477,12.216 271.286,12.395 271.397 C 12.573 271.507,12.936 272.498,13.200 273.599 C 13.464 274.699,13.822 275.600,13.995 275.600 C 14.169 275.600,14.429 276.230,14.574 277.000 C 14.718 277.770,15.008 278.400,15.218 278.400 C 15.428 278.400,15.600 278.695,15.600 279.056 C 15.600 279.737,17.195 283.245,17.668 283.604 C 17.816 283.716,18.060 284.301,18.212 284.904 C 18.363 285.507,18.627 286.000,18.799 286.000 C 18.971 286.000,19.229 286.630,19.374 287.400 C 19.518 288.170,19.794 288.800,19.986 288.800 C 20.179 288.800,20.455 289.340,20.600 290.000 C 20.745 290.660,21.010 291.200,21.188 291.200 C 21.367 291.200,21.636 291.695,21.787 292.300 C 21.937 292.905,22.564 294.220,23.179 295.222 C 23.793 296.224,24.422 297.439,24.575 297.922 C 24.729 298.405,25.022 298.800,25.227 298.800 C 25.432 298.800,25.600 299.057,25.600 299.371 C 25.600 299.686,25.827 300.181,26.105 300.471 C 26.382 300.762,26.877 301.526,27.205 302.169 C 28.360 304.438,28.593 304.800,28.895 304.800 C 29.063 304.800,29.200 304.989,29.200 305.219 C 29.200 305.450,29.920 306.723,30.800 308.048 C 31.680 309.373,32.400 310.609,32.400 310.795 C 32.400 310.981,32.535 311.193,32.700 311.267 C 33.133 311.459,34.800 313.899,34.800 314.341 C 34.800 314.546,35.070 314.818,35.400 314.945 C 35.730 315.071,36.000 315.451,36.000 315.787 C 36.000 316.124,36.135 316.401,36.300 316.403 C 36.465 316.404,37.043 317.079,37.585 317.903 C 38.126 318.726,39.475 320.570,40.582 322.000 C 41.689 323.430,42.775 324.835,42.997 325.122 C 43.219 325.409,43.850 326.145,44.400 326.757 C 44.950 327.368,45.843 328.484,46.385 329.235 C 46.927 329.986,47.917 331.201,48.585 331.935 C 51.299 334.918,57.873 341.798,58.935 342.765 C 59.559 343.334,61.656 345.330,63.595 347.200 C 67.080 350.561,69.278 352.516,72.000 354.676 C 72.770 355.287,73.544 356.015,73.720 356.293 C 73.896 356.572,74.225 356.800,74.451 356.800 C 74.677 356.800,75.402 357.340,76.062 358.000 C 76.722 358.660,77.421 359.200,77.617 359.200 C 77.812 359.200,78.509 359.695,79.164 360.300 C 81.020 362.013,81.496 362.370,82.585 362.866 C 83.143 363.120,83.600 363.480,83.600 363.664 C 83.600 363.849,83.830 364.000,84.111 364.000 C 84.392 364.000,84.930 364.360,85.307 364.800 C 85.684 365.240,86.264 365.600,86.596 365.600 C 86.928 365.600,87.200 365.786,87.200 366.013 C 87.200 366.239,87.515 366.544,87.900 366.690 C 88.285 366.836,88.819 367.145,89.086 367.378 C 90.358 368.483,90.723 368.722,91.531 368.978 C 92.009 369.130,92.400 369.401,92.400 369.580 C 92.400 369.760,92.715 370.010,93.100 370.136 C 93.485 370.263,94.520 370.822,95.400 371.380 C 96.280 371.938,97.450 372.619,98.000 372.893 C 98.550 373.167,99.238 373.618,99.529 373.895 C 99.819 374.173,100.314 374.400,100.629 374.400 C 100.943 374.400,101.200 374.566,101.200 374.768 C 101.200 374.971,101.740 375.255,102.400 375.400 C 103.060 375.545,103.600 375.788,103.600 375.940 C 103.600 376.092,104.455 376.663,105.500 377.208 C 106.545 377.754,107.490 378.315,107.600 378.456 C 107.710 378.596,108.565 378.940,109.500 379.219 C 110.435 379.498,111.200 379.864,111.200 380.032 C 111.200 380.199,111.740 380.455,112.400 380.600 C 113.060 380.745,113.600 381.009,113.600 381.187 C 113.600 381.365,114.230 381.629,115.000 381.774 C 115.770 381.918,116.400 382.194,116.400 382.386 C 116.400 382.579,116.940 382.855,117.600 383.000 C 118.260 383.145,118.800 383.421,118.800 383.614 C 118.800 383.806,119.430 384.082,120.200 384.226 C 120.970 384.371,121.600 384.649,121.600 384.845 C 121.600 385.040,121.825 385.206,122.100 385.214 C 122.375 385.221,123.320 385.575,124.200 386.000 C 125.080 386.425,126.205 386.779,126.700 386.786 C 127.195 386.794,127.600 386.967,127.600 387.171 C 127.600 387.376,128.590 387.764,129.800 388.035 C 131.010 388.306,132.000 388.663,132.000 388.828 C 132.000 388.994,132.720 389.251,133.600 389.400 C 134.480 389.549,135.200 389.819,135.200 390.000 C 135.200 390.181,135.919 390.451,136.798 390.600 C 137.677 390.748,138.494 391.029,138.614 391.223 C 138.735 391.418,139.725 391.695,140.816 391.840 C 141.907 391.985,142.800 392.243,142.800 392.414 C 142.800 392.585,143.700 392.849,144.800 393.000 C 145.900 393.151,146.800 393.421,146.800 393.598 C 146.800 393.776,147.880 394.047,149.200 394.200 C 150.520 394.353,151.600 394.618,151.600 394.789 C 151.600 394.959,153.310 395.334,155.400 395.621 C 157.490 395.908,159.200 396.272,159.200 396.431 C 159.200 396.589,160.461 396.845,162.002 397.000 C 163.542 397.155,164.890 397.422,164.996 397.593 C 165.101 397.764,166.946 398.035,169.094 398.195 C 171.242 398.356,173.090 398.624,173.200 398.791 C 174.200 400.314,225.400 400.314,226.400 398.791 C 226.510 398.624,228.355 398.356,230.500 398.196 C 232.645 398.036,234.400 397.767,234.400 397.599 C 234.400 397.431,235.750 397.167,237.400 397.013 C 239.050 396.858,240.400 396.599,240.400 396.437 C 240.400 396.275,242.114 395.907,244.208 395.620 C 246.303 395.332,248.103 394.957,248.209 394.786 C 248.314 394.615,249.300 394.351,250.400 394.200 C 251.500 394.049,252.490 393.779,252.600 393.600 C 252.710 393.421,253.701 393.151,254.800 393.000 C 255.900 392.849,256.800 392.585,256.800 392.414 C 256.800 392.243,257.700 391.984,258.800 391.838 C 259.900 391.692,260.800 391.419,260.800 391.232 C 260.800 391.044,261.610 390.769,262.600 390.621 C 263.590 390.472,264.400 390.202,264.400 390.020 C 264.400 389.838,265.022 389.572,265.783 389.430 C 266.544 389.287,267.669 388.908,268.283 388.588 C 268.897 388.267,269.670 387.998,270.000 387.989 C 270.330 387.980,271.320 387.625,272.200 387.200 C 273.080 386.775,274.004 386.421,274.254 386.414 C 274.504 386.406,275.224 386.131,275.854 385.802 C 276.484 385.474,277.315 385.204,277.700 385.202 C 278.085 385.201,278.400 385.034,278.400 384.832 C 278.400 384.629,278.940 384.345,279.600 384.200 C 280.260 384.055,280.800 383.785,280.800 383.600 C 280.800 383.415,281.340 383.145,282.000 383.000 C 282.660 382.855,283.200 382.591,283.200 382.413 C 283.200 382.235,283.830 381.971,284.600 381.826 C 285.370 381.682,286.000 381.406,286.000 381.214 C 286.000 381.021,286.540 380.745,287.200 380.600 C 287.860 380.455,288.400 380.199,288.400 380.032 C 288.400 379.864,289.165 379.498,290.100 379.219 C 291.035 378.940,291.890 378.596,292.000 378.456 C 292.110 378.315,293.055 377.754,294.100 377.208 C 295.145 376.663,296.000 376.092,296.000 375.940 C 296.000 375.788,296.540 375.545,297.200 375.400 C 297.860 375.255,298.400 375.010,298.400 374.856 C 298.400 374.702,298.895 374.362,299.500 374.102 C 300.569 373.642,301.994 372.806,302.400 372.400 C 302.510 372.290,303.635 371.666,304.900 371.014 C 306.165 370.362,307.200 369.687,307.200 369.514 C 307.200 369.341,307.476 369.200,307.813 369.200 C 308.149 369.200,308.522 368.946,308.641 368.636 C 308.761 368.326,309.295 367.963,309.829 367.828 C 310.363 367.694,310.800 367.408,310.800 367.192 C 310.800 366.977,311.076 366.800,311.413 366.800 C 311.749 366.800,312.129 366.530,312.255 366.200 C 312.382 365.870,312.709 365.600,312.982 365.600 C 313.254 365.600,313.910 365.243,314.439 364.807 C 315.952 363.560,316.134 363.434,317.300 362.832 C 317.905 362.520,318.400 362.115,318.400 361.932 C 318.400 361.750,318.610 361.600,318.866 361.600 C 319.123 361.600,319.618 361.335,319.966 361.011 C 322.648 358.519,323.267 358.000,323.553 358.000 C 323.732 358.000,324.491 357.462,325.240 356.805 C 325.988 356.147,327.590 354.781,328.800 353.768 C 336.520 347.308,348.314 335.508,353.956 328.600 C 354.854 327.500,356.042 326.098,356.595 325.484 C 357.148 324.870,357.600 324.221,357.600 324.042 C 357.600 323.863,358.005 323.276,358.500 322.737 C 358.995 322.199,359.850 321.172,360.400 320.457 C 360.950 319.741,361.805 318.671,362.300 318.078 C 362.794 317.485,363.199 316.852,363.200 316.671 C 363.200 316.491,363.425 316.108,363.700 315.820 C 363.975 315.533,364.470 314.895,364.800 314.403 C 365.130 313.910,365.715 313.095,366.100 312.591 C 366.485 312.086,366.800 311.477,366.800 311.237 C 366.800 310.997,366.977 310.800,367.192 310.800 C 367.408 310.800,367.694 310.363,367.828 309.829 C 367.963 309.295,368.326 308.761,368.636 308.641 C 368.946 308.522,369.200 308.149,369.200 307.813 C 369.200 307.476,369.341 307.200,369.514 307.200 C 369.687 307.200,370.362 306.165,371.014 304.900 C 371.666 303.635,372.335 302.540,372.500 302.467 C 372.665 302.393,372.800 302.073,372.800 301.754 C 372.800 301.436,373.054 301.078,373.364 300.959 C 373.674 300.839,374.048 300.262,374.196 299.675 C 374.343 299.088,374.584 298.516,374.732 298.404 C 375.345 297.937,379.600 289.619,379.600 288.886 C 379.600 288.619,379.766 288.400,379.968 288.400 C 380.171 288.400,380.455 287.860,380.600 287.200 C 380.745 286.540,381.015 286.000,381.200 286.000 C 381.385 286.000,381.655 285.460,381.800 284.800 C 381.945 284.140,382.221 283.600,382.414 283.600 C 382.606 283.600,382.882 282.970,383.026 282.200 C 383.171 281.430,383.435 280.800,383.613 280.800 C 383.791 280.800,384.055 280.260,384.200 279.600 C 384.345 278.940,384.629 278.400,384.832 278.400 C 385.034 278.400,385.201 278.085,385.202 277.700 C 385.204 277.315,385.474 276.484,385.802 275.854 C 386.131 275.224,386.400 274.539,386.400 274.332 C 386.400 274.125,386.747 273.195,387.171 272.264 C 387.595 271.334,388.070 270.038,388.226 269.386 C 388.382 268.734,388.649 268.020,388.819 267.800 C 388.989 267.580,389.255 266.725,389.409 265.900 C 389.563 265.075,389.838 264.400,390.020 264.400 C 390.202 264.400,390.472 263.590,390.621 262.600 C 390.769 261.610,391.044 260.800,391.232 260.800 C 391.419 260.800,391.692 259.900,391.838 258.800 C 391.984 257.700,392.243 256.800,392.414 256.800 C 392.585 256.800,392.849 255.900,393.000 254.800 C 393.151 253.701,393.421 252.710,393.600 252.600 C 393.779 252.490,394.049 251.500,394.200 250.400 C 394.351 249.300,394.615 248.314,394.786 248.209 C 394.957 248.103,395.332 246.303,395.620 244.208 C 395.907 242.114,396.275 240.400,396.437 240.400 C 396.599 240.400,396.858 239.047,397.013 237.394 C 397.168 235.741,397.434 234.302,397.605 234.197 C 397.775 234.092,398.045 232.339,398.205 230.303 C 398.365 228.266,398.631 226.510,398.796 226.400 C 400.249 225.431,400.262 176.585,398.809 175.600 C 398.647 175.490,398.384 173.602,398.226 171.404 C 398.067 169.207,397.795 167.317,397.621 167.204 C 397.447 167.092,397.176 165.605,397.018 163.900 C 396.861 162.195,396.600 160.800,396.438 160.800 C 396.276 160.800,395.924 159.144,395.654 157.119 C 395.384 155.095,395.009 153.250,394.821 153.019 C 394.632 152.789,394.349 151.565,394.192 150.300 C 394.036 149.035,393.772 148.000,393.605 148.000 C 393.439 148.000,393.184 147.100,393.038 146.000 C 392.892 144.900,392.616 144.000,392.424 144.000 C 392.232 144.000,391.951 143.100,391.800 142.000 C 391.649 140.901,391.378 139.910,391.197 139.798 C 391.017 139.687,390.748 138.877,390.600 137.998 C 390.451 137.119,390.186 136.400,390.010 136.400 C 389.835 136.400,389.569 135.590,389.421 134.600 C 389.272 133.610,389.005 132.800,388.827 132.800 C 388.648 132.800,388.391 132.125,388.255 131.300 C 388.119 130.475,387.753 129.317,387.441 128.727 C 387.130 128.137,386.754 127.102,386.606 126.427 C 386.458 125.752,386.171 125.200,385.968 125.200 C 385.766 125.200,385.600 124.920,385.600 124.578 C 385.600 124.017,385.110 122.777,383.371 118.940 C 383.057 118.246,382.800 117.481,382.800 117.240 C 382.800 116.998,382.634 116.800,382.432 116.800 C 382.229 116.800,381.945 116.260,381.800 115.600 C 381.655 114.940,381.379 114.400,381.186 114.400 C 380.994 114.400,380.718 113.770,380.574 113.000 C 380.429 112.230,380.171 111.600,379.999 111.600 C 379.827 111.600,379.575 111.157,379.439 110.615 C 379.303 110.073,378.564 108.558,377.796 107.247 C 377.028 105.937,376.400 104.671,376.400 104.433 C 376.400 104.195,376.234 104.000,376.032 104.000 C 375.829 104.000,375.545 103.460,375.400 102.800 C 375.255 102.140,374.971 101.600,374.768 101.600 C 374.566 101.600,374.400 101.324,374.400 100.987 C 374.400 100.651,374.141 100.276,373.824 100.154 C 373.508 100.033,373.134 99.408,372.993 98.767 C 372.852 98.125,372.588 97.600,372.407 97.600 C 372.226 97.600,371.877 97.105,371.630 96.500 C 370.947 94.823,369.857 93.037,369.300 92.680 C 369.025 92.504,368.800 92.099,368.800 91.780 C 368.800 91.461,368.620 91.200,368.400 91.200 C 368.180 91.200,368.000 90.958,368.000 90.661 C 368.000 90.187,367.634 89.645,366.007 87.717 C 365.783 87.451,365.600 87.041,365.600 86.804 C 365.600 86.568,365.330 86.271,365.000 86.145 C 364.670 86.018,364.400 85.662,364.400 85.353 C 364.400 85.045,364.040 84.484,363.600 84.107 C 363.160 83.730,362.800 83.220,362.800 82.973 C 362.800 82.726,362.440 82.198,362.000 81.800 C 361.560 81.402,361.200 80.900,361.200 80.684 C 361.200 80.468,360.750 79.875,360.200 79.365 C 359.650 78.855,359.200 78.259,359.200 78.039 C 359.200 77.819,358.975 77.496,358.700 77.320 C 358.425 77.144,357.763 76.370,357.230 75.600 C 356.696 74.830,356.021 74.056,355.730 73.880 C 355.438 73.704,355.200 73.315,355.200 73.016 C 355.200 72.716,354.689 72.041,354.065 71.516 C 353.441 70.991,352.740 70.222,352.508 69.808 C 350.917 66.965,333.479 49.814,327.285 45.000 C 327.002 44.780,326.121 44.015,325.329 43.300 C 324.536 42.585,323.747 42.000,323.575 42.000 C 323.403 42.000,322.663 41.445,321.931 40.766 C 319.759 38.751,319.441 38.514,318.537 38.235 C 318.062 38.089,317.573 37.706,317.450 37.385 C 317.326 37.063,317.032 36.800,316.796 36.800 C 316.559 36.800,316.149 36.617,315.883 36.393 C 313.955 34.766,313.413 34.400,312.939 34.400 C 312.642 34.400,312.400 34.246,312.400 34.057 C 312.400 33.678,308.118 30.800,307.555 30.800 C 307.360 30.800,307.200 30.642,307.200 30.449 C 307.200 30.255,306.615 29.858,305.900 29.565 C 305.185 29.273,304.362 28.801,304.071 28.517 C 303.781 28.233,303.286 28.000,302.971 28.000 C 302.657 28.000,302.400 27.863,302.400 27.695 C 302.400 27.393,302.038 27.160,299.769 26.005 C 299.126 25.677,298.362 25.182,298.071 24.905 C 297.781 24.627,297.301 24.400,297.005 24.400 C 296.709 24.400,296.407 24.247,296.333 24.060 C 296.179 23.665,289.493 20.400,288.839 20.400 C 288.598 20.400,288.400 20.234,288.400 20.032 C 288.400 19.829,287.860 19.545,287.200 19.400 C 286.540 19.255,286.000 18.985,286.000 18.800 C 286.000 18.615,285.460 18.345,284.800 18.200 C 284.140 18.055,283.600 17.779,283.600 17.586 C 283.600 17.394,282.970 17.118,282.200 16.974 C 281.430 16.829,280.800 16.565,280.800 16.387 C 280.800 16.209,280.260 15.945,279.600 15.800 C 278.940 15.655,278.400 15.385,278.400 15.200 C 278.400 15.015,277.815 14.738,277.100 14.586 C 276.385 14.433,275.620 14.172,275.400 14.005 C 275.180 13.839,274.055 13.466,272.900 13.176 C 271.745 12.886,270.800 12.523,270.800 12.369 C 270.800 12.215,270.170 11.971,269.400 11.826 C 268.630 11.682,268.000 11.412,268.000 11.227 C 268.000 11.042,267.190 10.769,266.200 10.621 C 265.210 10.472,264.400 10.193,264.400 10.000 C 264.400 9.807,263.590 9.528,262.600 9.379 C 261.610 9.231,260.800 8.961,260.800 8.779 C 260.800 8.598,259.988 8.327,258.995 8.178 C 258.002 8.029,257.098 7.759,256.986 7.577 C 256.873 7.395,255.931 7.123,254.891 6.973 C 253.851 6.822,252.797 6.538,252.550 6.342 C 252.302 6.145,250.637 5.771,248.850 5.511 C 247.062 5.250,245.600 4.908,245.600 4.750 C 245.600 4.593,244.430 4.338,243.000 4.185 C 241.570 4.032,240.400 3.763,240.400 3.588 C 240.400 3.412,239.050 3.142,237.400 2.987 C 235.750 2.833,234.400 2.564,234.400 2.390 C 234.400 2.217,232.645 1.945,230.500 1.786 C 228.355 1.627,226.510 1.364,226.400 1.201 C 225.692 0.152,192.035 -0.354,179.402 0.495 M126.860 85.500 C 127.135 85.775,127.689 86.000,128.091 86.000 C 131.757 86.000,141.440 94.239,143.148 98.810 C 143.433 99.575,143.809 100.476,143.983 100.813 C 144.156 101.150,144.432 102.050,144.595 102.813 C 144.759 103.576,145.032 104.380,145.202 104.600 C 145.731 105.283,146.033 112.086,145.638 114.400 C 144.845 119.038,144.372 120.408,142.145 124.518 C 141.383 125.925,136.847 130.800,136.301 130.800 C 136.077 130.800,135.603 131.120,135.247 131.511 C 134.362 132.483,130.701 134.307,128.992 134.628 C 128.222 134.772,127.498 135.042,127.383 135.227 C 127.269 135.412,126.097 135.685,124.779 135.834 C 123.461 135.983,122.286 136.262,122.167 136.453 C 121.889 136.904,112.914 136.907,112.635 136.456 C 112.518 136.267,111.421 135.995,110.198 135.851 C 108.974 135.707,107.664 135.435,107.286 135.246 C 106.909 135.056,105.252 134.294,103.605 133.551 C 97.954 131.002,93.831 126.302,90.632 118.763 C 89.375 115.800,89.450 104.277,90.744 101.701 C 90.937 101.316,91.487 100.190,91.965 99.200 C 93.454 96.116,93.882 95.514,96.469 92.867 C 99.693 89.569,104.011 86.803,106.900 86.186 C 107.615 86.033,108.380 85.766,108.600 85.592 C 109.749 84.686,125.965 84.604,126.860 85.500 M268.400 152.007 C 273.428 152.593,276.980 153.234,277.380 153.627 C 277.589 153.832,278.130 154.000,278.583 154.000 C 279.772 154.000,285.436 156.076,287.958 157.436 C 289.145 158.076,290.988 159.065,292.054 159.633 C 294.017 160.679,299.408 164.996,300.956 166.762 C 305.029 171.405,306.387 173.049,306.393 173.342 C 306.397 173.531,306.906 174.341,307.525 175.142 C 308.775 176.762,311.819 182.900,313.207 186.600 C 313.702 187.920,314.253 189.360,314.431 189.800 C 314.609 190.240,314.875 191.410,315.023 192.400 C 315.170 193.390,315.427 194.380,315.595 194.600 C 315.762 194.820,316.020 195.900,316.167 197.000 C 316.315 198.100,316.604 199.450,316.810 200.000 C 318.265 203.882,319.179 301.163,317.775 302.568 C 316.945 303.398,269.305 303.545,268.480 302.720 C 268.113 302.353,267.993 292.515,267.972 261.020 C 267.956 238.349,267.788 218.450,267.599 216.800 C 267.179 213.133,266.466 209.275,266.010 208.200 C 265.823 207.760,265.249 206.320,264.735 205.000 C 264.221 203.680,263.659 202.420,263.486 202.200 C 263.313 201.980,262.773 201.241,262.286 200.559 C 259.964 197.305,255.661 193.600,254.204 193.600 C 253.898 193.600,253.542 193.430,253.414 193.223 C 253.286 193.016,252.331 192.723,251.291 192.573 C 250.251 192.422,249.187 192.130,248.927 191.923 C 248.315 191.436,240.835 191.747,238.028 192.376 C 236.189 192.788,233.206 194.144,229.445 196.279 C 228.321 196.917,223.668 201.647,222.982 202.849 C 221.485 205.472,220.000 208.763,220.000 209.459 C 220.000 209.888,219.793 210.447,219.540 210.700 C 219.284 210.956,218.994 212.950,218.886 215.190 C 218.779 217.406,218.536 219.316,218.346 219.433 C 218.155 219.551,218.000 238.240,218.000 261.181 C 218.000 298.685,217.939 302.738,217.367 302.957 C 216.420 303.321,169.079 303.238,168.503 302.872 C 168.108 302.621,168.025 287.268,168.103 228.875 L 168.200 155.195 193.000 155.297 L 217.800 155.400 218.000 164.800 L 218.200 174.200 219.346 172.400 C 220.635 170.375,230.508 160.400,231.223 160.400 C 231.477 160.400,232.341 159.896,233.142 159.281 C 234.677 158.103,238.309 156.140,240.000 155.574 C 240.550 155.391,242.260 154.782,243.800 154.222 C 245.340 153.662,247.500 153.100,248.600 152.972 C 249.700 152.844,250.960 152.577,251.400 152.378 C 252.969 151.669,263.528 151.439,268.400 152.007 M142.400 228.957 C 142.400 295.845,142.341 302.737,141.767 302.957 C 140.465 303.457,93.389 303.229,92.880 302.720 C 92.356 302.196,92.144 155.989,92.667 155.467 C 92.813 155.320,104.063 155.200,117.667 155.200 L 142.400 155.200 142.400 228.957 " stroke="none" fill="#040404" fill-rule="evenodd"></path><path id="path4" d="M110.000 85.088 C 109.450 85.187,108.843 85.418,108.652 85.602 C 108.460 85.786,109.000 85.785,109.852 85.599 C 110.703 85.414,111.850 85.182,112.400 85.085 C 113.259 84.934,113.231 84.909,112.200 84.909 C 111.540 84.909,110.550 84.990,110.000 85.088 M124.833 85.344 C 125.305 85.750,127.243 85.993,127.010 85.616 C 126.868 85.387,126.283 85.200,125.710 85.200 C 125.136 85.200,124.742 85.265,124.833 85.344 M106.400 86.263 C 106.070 86.373,105.549 86.543,105.243 86.641 C 104.936 86.739,104.772 86.905,104.878 87.011 C 104.983 87.117,105.774 86.945,106.635 86.630 C 108.048 86.112,107.838 85.784,106.400 86.263 M129.146 86.616 C 129.886 86.937,130.606 87.194,130.746 87.186 C 131.266 87.157,128.976 86.028,128.400 86.030 C 128.070 86.031,128.406 86.294,129.146 86.616 M131.200 87.358 C 131.200 87.453,132.014 87.987,133.009 88.543 C 134.005 89.099,134.712 89.382,134.582 89.171 C 134.323 88.752,131.200 87.077,131.200 87.358 M100.400 89.372 C 99.630 89.881,98.640 90.721,98.200 91.239 C 97.586 91.962,97.742 91.905,98.872 90.991 C 99.681 90.336,100.761 89.493,101.272 89.118 C 102.629 88.121,102.030 88.295,100.400 89.372 M95.300 93.981 C 94.365 95.051,93.600 96.039,93.600 96.177 C 93.600 96.314,94.410 95.515,95.400 94.400 C 96.978 92.623,97.456 91.954,97.100 92.018 C 97.045 92.028,96.235 92.911,95.300 93.981 M142.341 97.977 C 142.918 99.058,143.450 99.884,143.523 99.811 C 143.714 99.620,142.081 96.497,141.652 96.232 C 141.454 96.110,141.764 96.895,142.341 97.977 M92.899 97.300 C 92.226 98.143,91.144 100.437,91.276 100.741 C 91.344 100.899,91.866 100.077,92.435 98.914 C 93.501 96.736,93.587 96.438,92.899 97.300 M90.638 101.938 C 90.523 102.124,90.339 103.069,90.228 104.038 C 90.032 105.748,90.079 105.655,90.797 102.900 C 91.126 101.636,91.063 101.251,90.638 101.938 M145.193 106.519 L 145.385 108.600 145.518 106.846 C 145.591 105.881,145.505 104.944,145.326 104.765 C 145.147 104.585,145.087 105.375,145.193 106.519 M145.724 111.000 C 145.726 112.320,145.801 112.812,145.890 112.093 C 145.979 111.374,145.977 110.294,145.886 109.693 C 145.795 109.092,145.722 109.680,145.724 111.000 M145.264 114.667 C 145.229 115.364,145.096 116.264,144.970 116.667 C 144.753 117.359,144.765 117.360,145.194 116.691 C 145.445 116.302,145.577 115.402,145.489 114.691 L 145.328 113.400 145.264 114.667 M90.178 116.535 C 90.250 117.599,90.504 118.664,90.741 118.901 C 91.049 119.209,91.069 118.942,90.811 117.966 C 90.613 117.215,90.360 116.150,90.248 115.600 C 90.137 115.050,90.105 115.471,90.178 116.535 M144.078 119.650 C 143.848 120.558,143.807 121.143,143.988 120.950 C 144.361 120.552,144.960 118.000,144.680 118.000 C 144.580 118.000,144.309 118.743,144.078 119.650 M91.230 120.000 C 91.228 120.576,92.357 122.866,92.386 122.346 C 92.394 122.206,92.137 121.486,91.816 120.746 C 91.494 120.006,91.231 119.670,91.230 120.000 M142.694 122.903 L 141.988 124.200 142.794 123.256 C 143.480 122.452,143.846 121.594,143.500 121.603 C 143.445 121.604,143.082 122.189,142.694 122.903 M93.251 124.405 C 95.259 127.978,103.923 134.877,106.290 134.788 C 106.461 134.782,105.083 133.980,103.229 133.007 C 99.554 131.077,95.456 127.406,93.732 124.500 C 92.452 122.342,92.046 122.262,93.251 124.405 M140.661 125.900 C 140.139 126.725,138.881 128.165,137.865 129.100 C 136.849 130.035,136.177 130.800,136.371 130.800 C 136.815 130.800,142.000 125.228,142.000 124.751 C 142.000 124.072,141.601 124.415,140.661 125.900 M134.602 131.598 C 134.203 132.039,134.007 132.400,134.167 132.400 C 134.588 132.400,135.728 131.195,135.512 130.979 C 135.411 130.878,135.002 131.156,134.602 131.598 M107.452 135.190 C 107.643 135.370,108.610 135.624,109.600 135.754 C 111.701 136.030,111.347 135.788,108.852 135.244 C 107.890 135.035,107.260 135.011,107.452 135.190 M125.400 135.416 L 123.400 135.956 125.200 135.737 C 126.190 135.616,127.171 135.356,127.380 135.159 C 127.589 134.961,127.679 134.817,127.580 134.838 C 127.481 134.860,126.500 135.120,125.400 135.416 M112.661 136.500 C 112.764 136.665,114.896 136.800,117.400 136.800 C 119.904 136.800,122.036 136.665,122.138 136.500 C 122.239 136.335,120.107 136.200,117.399 136.200 C 114.691 136.200,112.559 136.335,112.661 136.500 M254.000 151.897 C 252.790 151.979,251.670 152.174,251.512 152.331 C 251.353 152.488,252.377 152.519,253.785 152.401 C 255.194 152.283,256.479 152.054,256.640 151.893 C 256.801 151.732,256.768 151.633,256.567 151.674 C 256.365 151.715,255.210 151.815,254.000 151.897 M267.000 152.201 C 267.916 152.517,271.995 152.643,271.517 152.340 C 271.233 152.160,270.010 152.024,268.800 152.038 C 267.590 152.052,266.780 152.125,267.000 152.201 M274.497 153.031 C 274.629 153.162,275.403 153.420,276.217 153.604 C 277.032 153.788,277.541 153.796,277.349 153.622 C 276.943 153.255,274.140 152.674,274.497 153.031 M245.600 153.618 C 245.162 153.915,245.324 153.952,246.200 153.756 C 247.671 153.427,247.990 153.198,246.967 153.206 C 246.545 153.209,245.930 153.395,245.600 153.618 M242.600 154.614 C 241.600 155.096,241.566 155.151,242.400 154.948 C 243.533 154.671,244.807 154.021,244.200 154.030 C 243.980 154.033,243.260 154.296,242.600 154.614 M279.600 154.333 C 279.930 154.536,280.650 154.824,281.200 154.971 C 281.895 155.157,282.017 155.125,281.600 154.867 C 281.270 154.664,280.550 154.376,280.000 154.229 C 279.305 154.043,279.183 154.075,279.600 154.333 M92.667 155.467 C 92.144 155.989,92.356 302.196,92.880 302.720 C 93.389 303.229,140.465 303.457,141.767 302.957 C 142.115 302.824,142.400 302.532,142.400 302.308 C 142.400 302.056,142.194 302.073,141.855 302.354 C 141.460 302.682,134.664 302.778,117.155 302.703 L 93.000 302.600 93.000 228.900 C 93.000 188.365,92.985 155.200,92.967 155.200 C 92.948 155.200,92.813 155.320,92.667 155.467 M238.576 156.222 C 237.812 156.834,237.813 156.838,238.600 156.476 C 239.040 156.274,239.670 156.008,240.000 155.886 C 240.518 155.693,240.515 155.659,239.976 155.632 C 239.634 155.614,239.004 155.880,238.576 156.222 M284.746 156.216 C 285.486 156.537,286.206 156.794,286.346 156.786 C 286.866 156.757,284.576 155.628,284.000 155.630 C 283.670 155.631,284.006 155.894,284.746 156.216 M233.384 159.111 C 232.038 160.317,232.381 160.211,234.154 158.872 C 234.789 158.392,235.149 158.005,234.954 158.011 C 234.759 158.017,234.053 158.512,233.384 159.111 M225.642 165.500 C 222.827 168.305,219.962 171.455,219.275 172.500 C 217.414 175.333,218.100 174.796,220.551 171.500 C 222.636 168.696,228.140 163.122,230.600 161.322 C 231.260 160.839,231.566 160.434,231.281 160.422 C 230.995 160.410,228.458 162.695,225.642 165.500 M294.000 161.179 C 300.197 166.326,301.463 167.596,305.582 172.800 C 306.017 173.350,306.376 173.620,306.380 173.400 C 306.385 173.057,305.131 171.522,300.956 166.762 C 299.837 165.485,294.057 160.634,293.466 160.474 C 293.210 160.405,293.450 160.722,294.000 161.179 M168.593 204.600 C 168.593 227.920,168.641 237.519,168.700 225.931 C 168.759 214.342,168.759 195.262,168.700 183.531 C 168.641 171.799,168.593 181.280,168.593 204.600 M307.228 175.301 C 308.070 176.784,308.810 177.553,308.789 176.924 C 308.783 176.746,308.238 175.970,307.577 175.200 L 306.375 173.800 307.228 175.301 M311.984 184.292 C 312.450 185.847,314.056 189.219,313.750 188.000 C 313.612 187.450,313.251 186.514,312.949 185.920 C 312.647 185.326,312.400 184.571,312.400 184.243 C 312.400 183.916,312.232 183.543,312.026 183.416 C 311.798 183.275,311.782 183.619,311.984 184.292 M314.240 190.666 C 314.608 192.199,314.800 192.344,314.800 191.090 C 314.800 190.517,314.613 189.932,314.384 189.790 C 314.111 189.621,314.062 189.923,314.240 190.666 M238.296 191.984 C 237.468 192.144,236.681 192.386,236.546 192.521 C 236.203 192.864,239.269 192.364,240.000 191.958 C 240.691 191.574,240.387 191.578,238.296 191.984 M248.990 191.984 C 249.132 192.213,249.717 192.400,250.290 192.400 C 251.544 192.400,251.399 192.208,249.866 191.840 C 249.123 191.662,248.821 191.711,248.990 191.984 M232.422 194.207 C 229.674 195.688,228.724 196.400,229.496 196.400 C 229.747 196.400,230.067 196.216,230.206 195.991 C 230.345 195.766,231.660 194.964,233.129 194.210 C 234.598 193.456,235.620 192.835,235.400 192.829 C 235.180 192.823,233.840 193.443,232.422 194.207 M255.200 193.805 C 255.200 194.077,258.451 196.083,258.619 195.915 C 258.698 195.836,257.961 195.287,256.981 194.695 C 256.001 194.104,255.200 193.703,255.200 193.805 M315.440 195.466 C 315.808 196.999,316.000 197.144,316.000 195.890 C 316.000 195.317,315.813 194.732,315.584 194.590 C 315.311 194.421,315.262 194.723,315.440 195.466 M225.789 199.300 L 223.000 202.200 225.900 199.411 C 227.495 197.877,228.800 196.572,228.800 196.511 C 228.800 196.217,228.380 196.606,225.789 199.300 M260.411 198.300 C 262.841 200.996,263.047 201.172,262.011 199.662 C 260.850 197.972,259.400 196.400,259.003 196.400 C 258.835 196.400,259.469 197.255,260.411 198.300 M316.652 201.000 C 317.450 207.379,317.560 207.891,317.336 204.200 C 317.217 202.220,316.969 200.330,316.785 200.000 C 316.585 199.639,316.532 200.037,316.652 201.000 M264.229 203.600 C 264.376 204.150,264.664 204.870,264.867 205.200 C 265.125 205.617,265.157 205.495,264.971 204.800 C 264.824 204.250,264.536 203.530,264.333 203.200 C 264.075 202.783,264.043 202.905,264.229 203.600 M219.774 208.700 C 219.642 209.305,219.448 210.070,219.343 210.400 C 219.221 210.784,219.286 210.856,219.523 210.600 C 219.922 210.170,220.500 207.600,220.198 207.600 C 220.097 207.600,219.907 208.095,219.774 208.700 M317.901 242.938 C 317.956 261.232,318.049 282.050,318.106 289.200 C 318.164 296.350,318.251 281.590,318.300 256.400 C 318.348 231.210,318.256 210.392,318.094 210.138 C 317.932 209.884,317.845 224.644,317.901 242.938 M266.672 211.400 C 266.802 212.280,267.056 213.270,267.237 213.600 C 267.425 213.944,267.464 213.518,267.328 212.600 C 267.198 211.720,266.944 210.730,266.763 210.400 C 266.575 210.056,266.536 210.482,266.672 211.400 M218.760 211.500 C 218.500 213.445,218.262 219.493,218.454 219.281 C 218.720 218.985,219.193 211.200,218.944 211.200 C 218.865 211.200,218.782 211.335,218.760 211.500 M268.097 260.820 C 268.023 292.611,268.112 302.352,268.480 302.720 C 268.845 303.085,274.768 303.177,293.180 303.105 L 317.400 303.009 293.000 302.805 L 268.600 302.600 268.397 261.000 L 268.194 219.400 268.097 260.820 M168.000 302.277 C 168.000 303.141,169.591 303.200,193.000 303.200 C 216.409 303.200,218.000 303.141,218.000 302.277 C 218.000 301.985,217.841 301.999,217.520 302.320 C 216.827 303.013,169.173 303.013,168.480 302.320 C 168.159 301.999,168.000 301.985,168.000 302.277 " stroke="none" fill="#242424" fill-rule="evenodd"></path></g></svg>