<?xml version="1.0" encoding="UTF-8" standalone="no"?>
<svg
   xmlns:dc="http://purl.org/dc/elements/1.1/"
   xmlns:cc="http://creativecommons.org/ns#"
   xmlns:rdf="http://www.w3.org/1999/02/22-rdf-syntax-ns#"
   xmlns:svg="http://www.w3.org/2000/svg"
   xmlns="http://www.w3.org/2000/svg"
   xmlns:sodipodi="http://sodipodi.sourceforge.net/DTD/sodipodi-0.dtd"
   xmlns:inkscape="http://www.inkscape.org/namespaces/inkscape"
   version="1.1"
   id="Layer_1"
   x="0px"
   y="0px"
   viewBox="0 0 512 512"
   style="enable-background:new 0 0 512 512;"
   xml:space="preserve"
   sodipodi:docname="pdf-blk.svg"
   inkscape:version="1.0.1 (3bc2e813f5, 2020-09-07)"><metadata
   id="metadata47"><rdf:RDF><cc:Work
       rdf:about=""><dc:format>image/svg+xml</dc:format><dc:type
         rdf:resource="http://purl.org/dc/dcmitype/StillImage" /><dc:title></dc:title></cc:Work></rdf:RDF></metadata><defs
   id="defs45" /><sodipodi:namedview
   pagecolor="#ffffff"
   bordercolor="#666666"
   borderopacity="1"
   objecttolerance="10"
   gridtolerance="10"
   guidetolerance="10"
   inkscape:pageopacity="0"
   inkscape:pageshadow="2"
   inkscape:window-width="1718"
   inkscape:window-height="868"
   id="namedview43"
   showgrid="false"
   inkscape:zoom="0.70848785"
   inkscape:cx="-207.33059"
   inkscape:cy="313.55757"
   inkscape:window-x="-7"
   inkscape:window-y="0"
   inkscape:window-maximized="0"
   inkscape:current-layer="layer5" />

<g
   id="g12">
</g>
<g
   id="g14">
</g>
<g
   id="g16">
</g>
<g
   id="g18">
</g>
<g
   id="g20">
</g>
<g
   id="g22">
</g>
<g
   id="g24">
</g>
<g
   id="g26">
</g>
<g
   id="g28">
</g>
<g
   id="g30">
</g>
<g
   id="g32">
</g>
<g
   id="g34">
</g>
<g
   id="g36">
</g>
<g
   id="g38">
</g>
<g
   id="g40">
</g>
<g
   inkscape:groupmode="layer"
   id="layer4"
   inkscape:label="circle"><ellipse
     style="fill:#000000;fill-rule:evenodd;stroke-width:1.10062"
     id="path208"
     cx="257.0387"
     cy="255.68782"
     rx="254.71571"
     ry="254.95787" /></g><g
   inkscape:groupmode="layer"
   id="layer5"
   inkscape:label="pdf"><g
     id="g10"
     transform="matrix(0.70227083,0,0,0.70227083,77.963094,78.729423)"
     style="fill:#ffffff"><g
       id="g8"
       style="fill:#ffffff"><g
         id="g6"
         style="fill:#ffffff"><path
           d="M 444.875,109.792 338.208,3.125 C 336.208,1.125 333.5,0 330.666,0 h -224 C 83.135,0 64,19.135 64,42.667 V 469.334 C 64,492.865 83.135,512 106.667,512 H 405.334 C 428.865,512 448,492.865 448,469.333 v -352 c 0,-2.833 -1.125,-5.541 -3.125,-7.541 z m -103.542,-73.375 70.25,70.25 h -48.917 c -11.76,0 -21.333,-9.573 -21.333,-21.333 z m 85.334,432.916 c 0,11.76 -9.573,21.333 -21.333,21.333 H 106.667 c -11.76,0 -21.333,-9.573 -21.333,-21.333 V 42.667 c 0,-11.76 9.573,-21.333 21.333,-21.333 H 320 v 64 C 320,108.865 339.135,128 362.667,128 h 64 z"
           id="path2"
           style="fill:#ffffff" /><path
           d="m 310.385,313.135 c -9.875,-7.771 -19.26,-15.76 -25.51,-22.01 -8.125,-8.125 -15.365,-16 -21.656,-23.5 9.813,-30.323 14.115,-45.958 14.115,-54.292 0,-35.406 -12.792,-42.667 -32,-42.667 -14.594,0 -32,7.583 -32,43.688 0,15.917 8.719,35.24 26,57.698 -4.229,12.906 -9.198,27.792 -14.781,44.573 -2.688,8.052 -5.604,15.51 -8.688,22.406 -2.51,1.115 -4.948,2.25 -7.302,3.427 -8.479,4.24 -16.531,8.052 -24,11.594 C 150.5,370.177 128,380.844 128,401.906 c 0,15.292 16.615,24.76 32,24.76 19.833,0 49.781,-26.49 71.656,-71.115 22.708,-8.958 50.938,-15.594 73.219,-19.75 17.854,13.729 37.573,26.865 47.125,26.865 26.448,0 32,-15.292 32,-28.115 0,-25.219 -28.813,-25.219 -42.667,-25.219 -4.302,0.001 -15.843,1.272 -30.948,3.803 z M 160,405.333 c -6.094,0 -10.219,-2.875 -10.667,-3.427 0,-7.563 22.552,-18.25 44.365,-28.583 1.385,-0.656 2.792,-1.313 4.219,-1.99 -16.021,23.23 -31.865,34 -37.917,34 z M 234.667,214.354 C 234.667,192 241.605,192 245.334,192 c 7.542,0 10.667,0 10.667,21.333 0,4.5 -3,15.75 -8.49,33.313 -8.376,-12.896 -12.844,-23.948 -12.844,-32.292 z M 242.844,329 c 0.667,-1.854 1.313,-3.729 1.938,-5.625 3.958,-11.875 7.521,-22.542 10.698,-32.146 4.427,4.875 9.198,9.865 14.313,14.979 2,2 6.958,6.5 13.563,12.135 -13.148,2.865 -27.137,6.417 -40.512,10.657 z m 119.823,5.552 c 0,4.792 0,6.781 -9.896,6.844 -2.906,-0.625 -9.625,-4.583 -17.917,-10.229 3.01,-0.333 5.229,-0.5 6.479,-0.5 15.761,0 20.23,1.541 21.334,3.885 z"
           id="path4"
           style="fill:#ffffff" /></g></g></g></g></svg>
