<?xml version="1.0" standalone="no"?>
<!DOCTYPE svg PUBLIC "-//W3C//DTD SVG 20010904//EN"
 "http://www.w3.org/TR/2001/REC-SVG-20010904/DTD/svg10.dtd">
<svg version="1.0" xmlns="http://www.w3.org/2000/svg"
 width="300.000000pt" height="124.000000pt" viewBox="0 0 300.000000 124.000000"
 preserveAspectRatio="xMidYMid meet">
<metadata>
Created by potrace 1.10, written by Peter Selinger 2001-2011
</metadata>
<g transform="translate(0.000000,124.000000) scale(0.100000,-0.100000)"
fill="#000000" stroke="none">
<path d="M2266 982 c-3 -5 7 -24 23 -43 44 -54 65 -95 57 -114 -6 -17 -26 -17
-299 -11 -251 6 -303 5 -371 -9 -77 -16 -80 -16 -128 5 -55 24 -80 20 -168
-26 -71 -36 -80 -36 -149 -4 -34 17 -71 30 -80 30 -21 0 -46 -26 -55 -57 -9
-29 -14 -28 -55 7 l-34 29 26 10 c30 12 36 36 11 45 -46 18 -93 -2 -106 -43
-2 -8 -47 -32 -99 -53 -51 -22 -98 -41 -104 -44 -6 -3 -11 28 -12 78 -3 101
-15 170 -28 166 -5 -2 -8 -7 -6 -13 1 -5 5 -64 8 -130 l4 -120 -81 -48 c-198
-118 -371 -273 -418 -375 -22 -49 -23 -56 -10 -90 17 -46 65 -72 133 -72 83 0
163 54 226 152 28 44 33 47 93 57 87 15 95 14 106 -13 14 -39 54 -58 128 -64
48 -3 78 0 106 12 35 15 43 15 94 0 79 -23 180 -15 257 22 54 26 70 29 170 30
150 1 339 14 356 24 26 17 2 19 -87 9 -49 -5 -152 -9 -229 -7 l-140 3 -70 -33
c-83 -40 -149 -49 -229 -32 l-58 12 32 33 c18 19 27 35 22 39 -17 10 -59 -14
-73 -42 -41 -75 -220 -67 -258 12 -13 28 -15 28 -75 23 -33 -3 -70 -9 -82 -12
-18 -6 -16 3 21 79 23 46 52 127 64 179 l23 94 90 39 c50 21 95 40 99 42 5 2
6 -10 3 -27 -9 -43 12 -40 30 4 18 43 36 44 86 4 47 -38 70 -35 93 14 20 43
25 43 109 1 63 -32 90 -30 169 11 76 39 103 42 154 18 31 -15 44 -15 112 -4
89 13 131 15 439 11 253 -2 270 1 261 55 -3 19 -24 59 -47 89 -45 60 -46 60
-54 48z m-1236 -160 c0 -5 -16 -13 -35 -19 -37 -12 -48 -1 -17 16 21 13 52 14
52 3z m-336 -194 c-36 -196 -194 -458 -300 -498 -43 -17 -116 -12 -152 10 -26
16 -32 26 -32 55 0 98 131 237 375 399 54 36 103 66 107 66 4 0 5 -15 2 -32z"/>
</g>
</svg>
