<svg id="svg" version="1.1" xmlns="http://www.w3.org/2000/svg" xmlns:xlink="http://www.w3.org/1999/xlink" width="400" height="400" viewBox="0, 0, 400,400"><g id="svgg"><path id="path0" d="M107.812 132.030 C 105.051 133.078,101.837 136.364,100.801 139.198 C 99.524 142.691,99.545 258.065,100.823 261.067 C 101.905 263.608,104.879 266.614,107.512 267.827 L 109.624 268.800 200.000 268.800 L 290.377 268.800 292.489 267.847 C 295.090 266.674,298.081 263.642,299.177 261.067 C 299.995 259.145,300.000 258.791,300.000 199.979 L 300.000 140.824 299.027 138.712 C 297.743 135.925,294.708 132.992,292.073 131.991 C 288.884 130.779,111.009 130.817,107.812 132.030 M275.107 143.934 C 275.553 144.217,248.279 171.711,245.872 173.403 C 245.471 173.684,235.829 183.159,224.445 194.457 C 213.061 205.756,202.918 215.789,201.904 216.753 L 200.061 218.507 195.969 214.553 C 177.461 196.672,125.253 144.213,125.689 143.937 C 126.354 143.514,274.441 143.512,275.107 143.934 M171.607 210.388 C 171.294 210.971,164.435 217.757,134.800 246.795 L 125.000 256.398 118.800 256.299 L 112.600 256.200 112.497 204.000 C 112.441 175.290,112.493 151.540,112.614 151.223 C 112.761 150.838,122.651 160.460,142.392 180.195 C 165.774 203.569,171.879 209.878,171.607 210.388 M287.501 204.100 L 287.400 256.200 281.600 256.302 L 275.800 256.404 265.356 246.102 C 259.611 240.436,249.126 230.149,242.056 223.242 C 234.985 216.334,229.203 210.394,229.206 210.042 C 229.214 209.311,286.410 152.000,287.132 152.000 C 287.491 152.000,287.579 164.351,287.501 204.100 M187.555 225.342 C 193.245 230.924,193.575 231.178,196.437 232.174 C 198.363 232.845,202.799 233.008,203.905 232.449 C 204.287 232.256,205.230 231.830,206.000 231.502 C 207.653 230.800,210.139 228.641,214.570 224.061 C 216.346 222.225,218.116 220.553,218.501 220.346 C 219.082 220.035,220.719 221.468,228.025 228.685 C 232.877 233.478,237.736 238.210,238.823 239.200 C 244.596 244.457,255.953 255.753,255.767 256.053 C 255.480 256.517,144.914 256.508,144.627 256.044 C 144.506 255.848,145.170 255.009,146.103 254.181 C 147.036 253.353,154.208 246.358,162.040 238.638 C 176.266 224.613,181.086 220.062,181.755 220.022 C 181.951 220.010,184.561 222.404,187.555 225.342 " stroke="none" fill="#f9f9f9" fill-rule="evenodd"></path><path id="path1" d="M293.635 132.100 C 293.728 132.155,294.433 132.740,295.202 133.400 L 296.600 134.600 295.425 133.300 C 294.779 132.585,294.074 132.000,293.858 132.000 C 293.643 132.000,293.543 132.045,293.635 132.100 M103.010 134.790 C 101.710 136.104,100.725 137.234,100.823 137.302 C 100.920 137.369,102.065 136.294,103.366 134.912 C 106.371 131.722,106.129 131.638,103.010 134.790 M297.829 136.038 C 298.473 136.829,299.081 137.408,299.179 137.325 C 299.278 137.242,298.751 136.595,298.009 135.887 L 296.658 134.600 297.829 136.038 M99.467 140.667 C 99.096 141.037,99.129 259.109,99.500 259.338 C 99.665 259.440,99.800 232.721,99.800 199.962 C 99.800 167.203,99.785 140.400,99.767 140.400 C 99.748 140.400,99.613 140.520,99.467 140.667 M300.200 200.200 C 300.200 233.048,300.332 259.716,300.494 259.462 C 300.882 258.852,300.888 140.902,300.500 140.662 C 300.335 140.560,300.200 167.352,300.200 200.200 M126.400 144.501 C 126.400 144.777,137.965 156.522,152.100 170.601 L 177.800 196.200 152.300 170.599 C 138.275 156.518,126.800 144.863,126.800 144.699 C 126.800 144.534,159.920 144.400,200.400 144.400 C 240.880 144.400,274.000 144.533,274.000 144.697 C 274.000 144.860,270.085 148.955,265.300 153.797 L 256.600 162.600 265.500 153.803 C 270.395 148.965,274.400 144.780,274.400 144.503 C 274.400 144.101,259.601 144.000,200.400 144.000 C 141.374 144.000,126.400 144.101,126.400 144.501 M112.985 152.500 C 112.880 152.775,112.841 176.130,112.897 204.400 L 113.000 255.800 119.000 255.822 L 125.000 255.845 119.200 255.622 L 113.400 255.400 113.297 204.400 C 113.188 150.321,113.155 151.802,114.427 153.259 L 115.247 154.200 114.578 153.100 C 113.857 151.915,113.288 151.702,112.985 152.500 M258.099 181.301 C 242.425 196.977,229.600 209.983,229.600 210.204 C 229.600 210.425,234.325 215.284,240.100 221.003 L 250.600 231.400 240.300 220.997 C 234.635 215.276,230.000 210.415,230.000 210.196 C 230.000 209.740,286.046 153.600,286.501 153.600 C 286.665 153.600,286.800 176.545,286.800 204.589 L 286.800 255.577 281.399 255.706 L 275.999 255.835 281.499 255.818 L 287.000 255.800 287.102 204.300 C 287.157 175.975,287.067 152.800,286.900 152.800 C 286.734 152.800,273.773 165.625,258.099 181.301 M115.600 154.217 C 115.600 154.337,116.075 154.922,116.656 155.517 L 117.712 156.600 116.829 155.300 C 115.994 154.072,115.600 153.725,115.600 154.217 M120.000 158.923 C 120.770 159.731,121.455 160.393,121.523 160.396 C 121.869 160.408,120.347 158.641,119.537 158.091 C 118.955 157.696,119.131 158.011,120.000 158.923 M125.726 164.584 C 126.346 165.188,126.941 165.592,127.049 165.484 C 127.157 165.376,126.651 164.882,125.923 164.388 L 124.600 163.488 125.726 164.584 M128.400 167.323 C 129.170 168.131,129.855 168.793,129.923 168.796 C 130.269 168.808,128.747 167.041,127.937 166.491 C 127.355 166.096,127.531 166.411,128.400 167.323 M132.400 171.323 C 133.170 172.131,133.855 172.793,133.923 172.796 C 134.269 172.808,132.747 171.041,131.937 170.491 C 131.355 170.096,131.531 170.411,132.400 171.323 M226.006 192.300 L 206.195 212.200 225.798 192.746 C 236.579 182.047,245.760 173.097,246.200 172.859 C 246.743 172.564,246.810 172.420,246.408 172.412 C 246.083 172.405,236.902 181.355,226.006 192.300 M134.400 172.999 C 134.400 173.380,137.188 176.146,137.376 175.953 C 137.459 175.869,136.823 175.107,135.963 174.259 C 135.103 173.412,134.400 172.845,134.400 172.999 M139.800 178.701 C 142.152 181.134,143.040 181.881,141.949 180.510 C 141.153 179.509,139.106 177.495,138.190 176.809 C 137.756 176.484,138.480 177.335,139.800 178.701 M144.526 183.384 C 145.146 183.988,145.741 184.392,145.849 184.284 C 145.957 184.176,145.451 183.682,144.723 183.188 L 143.400 182.288 144.526 183.384 M147.200 186.123 C 147.970 186.931,148.655 187.593,148.723 187.596 C 149.069 187.608,147.547 185.841,146.737 185.291 C 146.155 184.896,146.331 185.211,147.200 186.123 M151.200 190.123 C 151.970 190.931,152.655 191.593,152.723 191.596 C 153.069 191.608,151.547 189.841,150.737 189.291 C 150.155 188.896,150.331 189.211,151.200 190.123 M154.926 193.784 C 155.546 194.388,156.141 194.792,156.249 194.684 C 156.357 194.576,155.851 194.082,155.123 193.588 L 153.800 192.688 154.926 193.784 M159.600 198.523 C 160.370 199.331,161.055 199.993,161.123 199.996 C 161.469 200.008,159.947 198.241,159.137 197.691 C 158.555 197.296,158.731 197.611,159.600 198.523 M163.600 202.523 C 164.370 203.331,165.055 203.993,165.123 203.996 C 165.469 204.008,163.947 202.241,163.137 201.691 C 162.555 201.296,162.731 201.611,163.600 202.523 M165.600 204.217 C 165.600 204.337,166.075 204.922,166.656 205.517 L 167.712 206.600 166.829 205.300 C 165.994 204.072,165.600 203.725,165.600 204.217 M169.700 208.572 C 171.331 210.144,171.583 209.803,160.501 220.997 L 150.202 231.400 160.745 220.955 C 172.086 209.719,172.097 209.704,169.684 208.192 L 168.600 207.512 169.700 208.572 M179.200 222.482 C 177.990 223.611,177.360 224.339,177.800 224.100 C 178.240 223.861,179.220 223.021,179.978 222.233 C 181.633 220.513,181.679 220.508,183.055 221.900 C 183.653 222.505,183.894 222.640,183.591 222.200 C 182.053 219.969,181.883 219.980,179.200 222.482 M214.349 224.997 C 211.790 227.515,209.990 229.414,210.349 229.215 C 211.046 228.828,219.517 220.394,219.193 220.409 C 219.087 220.414,216.907 222.478,214.349 224.997 M229.400 230.729 C 234.900 236.296,239.760 241.043,240.200 241.279 C 240.640 241.515,240.907 241.639,240.792 241.554 C 240.678 241.469,235.818 236.722,229.992 231.004 L 219.400 220.607 229.400 230.729 M184.400 222.999 C 184.400 223.380,187.188 226.146,187.376 225.953 C 187.459 225.869,186.823 225.107,185.963 224.259 C 185.103 223.412,184.400 222.845,184.400 222.999 M188.800 227.714 C 189.570 228.538,190.650 229.508,191.200 229.871 C 191.750 230.233,191.473 229.825,190.584 228.964 C 188.285 226.740,187.140 225.937,188.800 227.714 M207.600 230.860 C 206.830 231.535,206.562 231.905,207.004 231.681 C 207.735 231.311,209.547 229.578,209.162 229.616 C 209.073 229.625,208.370 230.185,207.600 230.860 M158.597 242.500 L 147.400 253.800 158.700 242.603 C 164.915 236.444,170.000 231.359,170.000 231.303 C 170.000 231.020,169.003 231.999,158.597 242.500 M147.178 233.500 L 145.800 235.000 147.300 233.622 C 148.696 232.338,148.984 232.000,148.678 232.000 C 148.612 232.000,147.937 232.675,147.178 233.500 M264.000 244.200 C 270.267 250.470,275.485 255.600,275.595 255.600 C 275.705 255.600,270.667 250.470,264.400 244.200 C 258.133 237.930,252.915 232.800,252.805 232.800 C 252.695 232.800,257.733 237.930,264.000 244.200 M199.100 233.489 C 199.815 233.578,200.985 233.578,201.700 233.489 C 202.415 233.401,201.830 233.328,200.400 233.328 C 198.970 233.328,198.385 233.401,199.100 233.489 M144.370 236.300 L 143.400 237.400 144.600 236.400 C 145.260 235.850,145.875 235.355,145.967 235.300 C 146.058 235.245,145.955 235.200,145.736 235.200 C 145.518 235.200,144.903 235.695,144.370 236.300 M140.189 240.500 L 137.400 243.400 140.300 240.611 C 142.994 238.020,143.383 237.600,143.089 237.600 C 143.028 237.600,141.723 238.905,140.189 240.500 M247.700 248.204 C 251.385 251.947,254.400 255.143,254.400 255.307 C 254.400 255.471,229.830 255.559,199.800 255.503 C 169.770 255.446,145.200 255.535,145.200 255.700 C 145.200 255.865,169.860 256.000,200.000 256.000 C 243.829 256.000,254.800 255.899,254.800 255.496 C 254.800 255.218,251.695 251.933,247.900 248.196 L 241.000 241.400 247.700 248.204 M132.800 247.800 C 131.828 248.790,131.123 249.600,131.233 249.600 C 131.343 249.600,132.228 248.790,133.200 247.800 C 134.172 246.810,134.877 246.000,134.767 246.000 C 134.657 246.000,133.772 246.810,132.800 247.800 M127.789 252.900 L 125.000 255.800 127.900 253.011 C 130.594 250.420,130.983 250.000,130.689 250.000 C 130.628 250.000,129.323 251.305,127.789 252.900 M299.462 261.296 C 299.312 261.895,298.613 263.064,297.909 263.893 C 296.750 265.258,296.736 265.306,297.753 264.400 C 299.038 263.256,300.123 261.368,299.892 260.676 C 299.806 260.418,299.612 260.696,299.462 261.296 M100.800 262.658 C 100.800 262.874,101.385 263.579,102.100 264.225 L 103.400 265.400 102.200 264.002 C 101.540 263.233,100.955 262.528,100.900 262.435 C 100.845 262.343,100.800 262.443,100.800 262.658 M104.687 266.809 C 105.395 267.551,106.042 268.078,106.125 267.979 C 106.208 267.881,105.629 267.273,104.838 266.629 L 103.400 265.458 104.687 266.809 M109.462 269.300 C 109.704 269.692,290.296 269.692,290.538 269.300 C 290.640 269.135,249.898 269.000,200.000 269.000 C 150.102 269.000,109.360 269.135,109.462 269.300 " stroke="none" fill="#7c7c7c" fill-rule="evenodd"></path><path id="path2" d="M108.662 130.700 C 108.560 130.865,149.662 131.000,200.000 131.000 C 250.338 131.000,291.440 130.865,291.338 130.700 C 291.096 130.308,108.904 130.308,108.662 130.700 M105.800 131.663 C 103.208 133.085,100.547 136.417,99.420 139.652 C 98.493 142.314,98.499 257.701,99.426 260.363 C 100.994 264.866,103.938 267.808,108.452 269.380 C 111.109 270.305,288.891 270.305,291.548 269.380 C 295.335 268.061,299.079 264.718,300.038 261.800 C 300.327 260.920,300.707 260.029,300.882 259.820 C 301.747 258.787,301.237 141.560,300.356 139.027 C 299.224 135.771,293.937 130.329,292.907 131.359 C 292.787 131.479,293.119 131.747,293.645 131.954 C 295.626 132.734,300.000 137.976,300.000 139.571 C 300.000 140.001,300.180 140.464,300.400 140.600 C 301.297 141.154,300.910 258.310,300.003 260.791 C 298.776 264.149,293.874 268.800,291.562 268.800 C 291.169 268.800,290.736 268.980,290.600 269.200 C 290.436 269.465,259.804 269.600,200.000 269.600 C 140.196 269.600,109.564 269.465,109.400 269.200 C 109.264 268.980,108.801 268.800,108.371 268.800 C 105.965 268.800,100.000 262.788,100.000 260.362 C 100.000 259.969,99.820 259.536,99.600 259.400 C 99.047 259.058,99.047 140.942,99.600 140.600 C 99.820 140.464,100.000 140.031,100.000 139.638 C 100.000 137.928,103.715 133.482,106.615 131.724 C 107.603 131.124,106.881 131.070,105.800 131.663 M126.800 144.706 C 126.800 145.153,191.143 209.390,191.367 209.166 C 191.472 209.062,177.161 194.582,159.566 176.988 L 127.574 145.000 163.987 144.898 C 184.014 144.842,216.800 144.842,236.844 144.898 L 273.288 145.000 259.577 158.700 C 252.037 166.235,245.724 172.400,245.550 172.400 C 245.375 172.400,235.222 182.398,222.987 194.618 C 203.824 213.758,200.622 216.798,199.871 216.561 C 199.392 216.410,197.650 215.000,196.000 213.427 C 191.642 209.273,190.825 208.855,194.800 212.814 C 196.670 214.676,198.718 216.534,199.352 216.943 L 200.504 217.687 223.251 195.143 C 235.761 182.744,252.298 166.393,259.999 158.806 C 267.699 151.220,274.000 144.875,274.000 144.706 C 274.000 144.538,240.880 144.400,200.400 144.400 C 159.920 144.400,126.800 144.537,126.800 144.706 M113.378 152.916 C 113.277 153.182,113.241 176.350,113.297 204.400 L 113.400 255.400 119.200 255.509 L 125.000 255.617 137.104 243.709 C 143.760 237.159,154.065 227.037,160.004 221.215 C 165.942 215.394,170.800 210.416,170.800 210.154 C 170.800 209.406,113.585 152.374,113.378 152.916 M170.400 210.208 C 170.400 210.433,165.720 215.203,160.000 220.809 C 154.280 226.414,144.062 236.445,137.292 243.100 L 124.983 255.200 119.292 255.200 L 113.600 255.200 113.600 204.101 L 113.600 153.002 142.000 181.400 C 157.620 197.019,170.400 209.982,170.400 210.208 M258.099 181.701 C 242.645 197.157,230.000 209.988,230.000 210.216 C 230.000 210.443,235.043 215.573,241.206 221.615 C 247.369 227.657,257.678 237.775,264.115 244.100 L 275.818 255.600 281.309 255.600 L 286.800 255.600 286.800 204.600 C 286.800 176.550,286.665 153.600,286.499 153.600 C 286.333 153.600,273.553 166.245,258.099 181.701 M286.400 204.600 L 286.400 255.200 281.109 255.200 L 275.817 255.200 263.809 243.394 C 257.204 236.900,246.990 226.865,241.110 221.094 C 235.231 215.322,230.416 210.420,230.410 210.201 C 230.402 209.875,285.967 154.000,286.299 154.000 C 286.355 154.000,286.400 176.770,286.400 204.600 M179.469 222.508 C 178.407 223.439,170.847 230.784,162.669 238.832 C 154.491 246.880,147.305 253.769,146.700 254.141 C 146.095 254.514,145.600 254.994,145.600 255.209 C 145.600 255.462,164.856 255.600,200.000 255.600 C 229.920 255.600,254.400 255.463,254.400 255.296 C 254.400 255.128,251.306 251.933,247.523 248.196 C 243.741 244.458,241.444 242.300,242.418 243.400 C 243.392 244.500,246.306 247.532,248.894 250.137 C 251.482 252.743,253.600 254.948,253.600 255.037 C 253.600 255.127,229.458 255.200,199.951 255.200 C 152.308 255.200,146.358 255.133,146.800 254.600 C 147.074 254.270,147.504 254.000,147.755 254.000 C 148.006 254.000,154.840 247.340,162.941 239.200 C 171.042 231.060,177.841 224.400,178.050 224.400 C 178.260 224.400,179.183 223.677,180.103 222.793 L 181.775 221.187 186.593 225.993 C 189.243 228.637,191.612 230.800,191.857 230.800 C 192.102 230.800,192.523 231.066,192.793 231.392 C 193.432 232.161,195.526 233.200,196.438 233.200 C 196.831 233.200,197.264 233.380,197.400 233.600 C 197.536 233.820,198.886 234.000,200.400 234.000 C 201.914 234.000,203.264 233.820,203.400 233.600 C 203.536 233.380,203.969 233.200,204.362 233.200 C 205.406 233.200,207.301 232.170,208.390 231.010 C 208.912 230.455,209.530 230.000,209.763 230.000 C 209.997 230.000,212.209 227.985,214.679 225.521 L 219.170 221.043 229.442 231.321 C 235.091 236.975,239.831 241.600,239.974 241.600 C 240.117 241.600,235.501 236.879,229.716 231.109 L 219.197 220.617 215.099 224.690 C 212.844 226.930,210.370 229.215,209.600 229.768 C 208.830 230.321,207.813 231.058,207.340 231.407 C 201.333 235.829,195.108 233.973,186.277 225.130 C 181.266 220.111,181.918 220.363,179.469 222.508 " stroke="none" fill="#242424" fill-rule="evenodd"></path><path id="path3" d="M178.500 0.275 C 176.465 0.360,174.800 0.603,174.800 0.815 C 174.800 1.027,173.551 1.200,172.024 1.200 C 170.497 1.200,169.136 1.380,169.000 1.600 C 168.864 1.820,167.773 2.000,166.576 2.000 C 165.379 2.000,164.400 2.180,164.400 2.400 C 164.400 2.620,163.511 2.800,162.424 2.800 C 161.337 2.800,160.336 2.980,160.200 3.200 C 160.064 3.420,159.254 3.600,158.400 3.600 C 157.546 3.600,156.736 3.780,156.600 4.000 C 156.464 4.220,155.553 4.400,154.576 4.400 C 153.599 4.400,152.800 4.580,152.800 4.800 C 152.800 5.020,152.181 5.200,151.424 5.200 C 150.667 5.200,149.936 5.380,149.800 5.600 C 149.664 5.820,148.944 6.000,148.200 6.000 C 147.456 6.000,146.736 6.180,146.600 6.400 C 146.464 6.620,145.823 6.800,145.176 6.800 C 144.529 6.800,144.000 6.980,144.000 7.200 C 144.000 7.420,143.370 7.600,142.600 7.600 C 141.830 7.600,141.200 7.780,141.200 8.000 C 141.200 8.220,140.660 8.400,140.000 8.400 C 139.340 8.400,138.800 8.580,138.800 8.800 C 138.800 9.020,138.260 9.200,137.600 9.200 C 136.940 9.200,136.400 9.356,136.400 9.546 C 136.400 9.736,135.563 10.006,134.540 10.146 C 133.518 10.286,132.483 10.543,132.240 10.717 C 131.998 10.891,131.080 11.263,130.200 11.543 C 128.523 12.077,127.074 12.652,125.905 13.247 C 125.523 13.441,124.938 13.600,124.605 13.600 C 124.272 13.600,124.000 13.747,124.000 13.928 C 124.000 14.108,123.100 14.500,122.000 14.800 C 120.900 15.100,120.000 15.492,120.000 15.672 C 120.000 15.853,119.640 16.000,119.200 16.000 C 118.760 16.000,118.400 16.180,118.400 16.400 C 118.400 16.620,118.051 16.800,117.624 16.800 C 117.197 16.800,116.736 16.980,116.600 17.200 C 116.464 17.420,116.003 17.600,115.576 17.600 C 115.149 17.600,114.800 17.780,114.800 18.000 C 114.800 18.220,114.566 18.400,114.280 18.400 C 113.544 18.400,111.607 19.341,111.603 19.700 C 111.601 19.865,111.240 20.000,110.800 20.000 C 110.360 20.000,110.000 20.180,110.000 20.400 C 110.000 20.620,109.640 20.800,109.200 20.800 C 108.760 20.800,108.400 20.980,108.400 21.200 C 108.400 21.420,108.055 21.600,107.633 21.600 C 107.212 21.600,106.807 21.735,106.733 21.900 C 106.660 22.065,105.745 22.633,104.700 23.163 C 103.655 23.692,102.800 24.277,102.800 24.463 C 102.800 24.648,102.440 24.800,102.000 24.800 C 101.560 24.800,101.200 24.980,101.200 25.200 C 101.200 25.420,100.840 25.600,100.400 25.600 C 99.960 25.600,99.600 25.780,99.600 26.000 C 99.600 26.220,99.330 26.400,99.000 26.400 C 98.670 26.400,98.400 26.560,98.400 26.757 C 98.400 26.953,97.932 27.231,97.360 27.374 C 96.487 27.593,94.324 28.874,93.600 29.601 C 93.490 29.711,92.905 30.056,92.300 30.368 C 91.695 30.680,91.200 31.085,91.200 31.268 C 91.200 31.450,90.880 31.600,90.488 31.600 C 90.097 31.600,89.517 31.960,89.200 32.400 C 88.883 32.840,88.343 33.200,88.000 33.200 C 87.657 33.200,87.117 33.560,86.800 34.000 C 86.483 34.440,86.020 34.800,85.771 34.800 C 85.522 34.800,84.754 35.340,84.063 36.000 C 83.372 36.660,82.575 37.200,82.292 37.200 C 82.009 37.200,81.517 37.560,81.200 38.000 C 80.883 38.440,80.428 38.800,80.190 38.800 C 79.951 38.800,79.046 39.434,78.178 40.208 C 77.310 40.983,76.109 42.056,75.509 42.593 C 74.909 43.130,73.916 43.830,73.302 44.147 C 72.689 44.464,71.138 45.731,69.857 46.962 C 68.576 48.193,67.384 49.200,67.208 49.200 C 67.032 49.200,65.384 50.726,63.544 52.590 C 57.326 58.893,56.021 60.194,53.298 62.800 C 51.804 64.230,50.144 66.019,49.610 66.775 C 49.075 67.532,47.761 69.062,46.689 70.175 C 45.618 71.289,44.467 72.718,44.133 73.352 C 43.799 73.985,43.184 74.885,42.767 75.352 C 42.349 75.818,41.286 76.994,40.404 77.965 C 39.522 78.936,38.800 79.931,38.800 80.177 C 38.800 80.422,38.440 80.883,38.000 81.200 C 37.560 81.517,37.200 81.962,37.199 82.188 C 37.199 82.415,36.659 83.230,36.000 84.000 C 35.341 84.770,34.801 85.585,34.801 85.812 C 34.800 86.038,34.440 86.483,34.000 86.800 C 33.560 87.117,33.200 87.657,33.200 88.000 C 33.200 88.343,32.840 88.883,32.400 89.200 C 31.960 89.517,31.600 90.097,31.600 90.488 C 31.600 90.880,31.450 91.200,31.268 91.200 C 31.085 91.200,30.680 91.695,30.368 92.300 C 30.056 92.905,29.711 93.490,29.601 93.600 C 29.058 94.141,27.695 96.383,26.990 97.895 C 26.556 98.828,26.065 99.593,25.900 99.595 C 25.735 99.598,25.600 99.960,25.600 100.400 C 25.600 100.840,25.420 101.200,25.200 101.200 C 24.980 101.200,24.800 101.560,24.800 102.000 C 24.800 102.440,24.620 102.800,24.400 102.800 C 24.180 102.800,24.000 103.070,24.000 103.400 C 24.000 103.730,23.820 104.000,23.600 104.000 C 23.380 104.000,23.200 104.270,23.200 104.600 C 23.200 104.930,23.020 105.200,22.800 105.200 C 22.580 105.200,22.400 105.560,22.400 106.000 C 22.400 106.440,22.220 106.800,22.000 106.800 C 21.780 106.800,21.600 107.160,21.600 107.600 C 21.600 108.040,21.420 108.400,21.200 108.400 C 20.980 108.400,20.800 108.760,20.800 109.200 C 20.800 109.640,20.620 110.000,20.400 110.000 C 20.180 110.000,20.000 110.360,20.000 110.800 C 20.000 111.240,19.865 111.601,19.700 111.603 C 19.341 111.607,18.400 113.544,18.400 114.280 C 18.400 114.566,18.220 114.800,18.000 114.800 C 17.780 114.800,17.600 115.149,17.600 115.576 C 17.600 116.003,17.420 116.464,17.200 116.600 C 16.980 116.736,16.800 117.197,16.800 117.624 C 16.800 118.051,16.620 118.400,16.400 118.400 C 16.180 118.400,16.000 118.760,16.000 119.200 C 16.000 119.640,15.820 120.000,15.600 120.000 C 15.380 120.000,15.200 120.349,15.200 120.776 C 15.200 121.203,15.020 121.664,14.800 121.800 C 14.580 121.936,14.400 122.487,14.400 123.024 C 14.400 123.561,14.220 124.000,14.000 124.000 C 13.780 124.000,13.600 124.272,13.600 124.605 C 13.600 124.938,13.441 125.523,13.247 125.905 C 12.044 128.270,10.355 133.027,10.125 134.700 C 9.997 135.635,9.736 136.400,9.546 136.400 C 9.356 136.400,9.200 136.940,9.200 137.600 C 9.200 138.260,9.020 138.800,8.800 138.800 C 8.580 138.800,8.400 139.340,8.400 140.000 C 8.400 140.660,8.220 141.200,8.000 141.200 C 7.780 141.200,7.600 141.830,7.600 142.600 C 7.600 143.370,7.420 144.000,7.200 144.000 C 6.980 144.000,6.800 144.630,6.800 145.400 C 6.800 146.170,6.620 146.800,6.400 146.800 C 6.180 146.800,6.000 147.430,6.000 148.200 C 6.000 148.970,5.820 149.600,5.600 149.600 C 5.380 149.600,5.200 150.320,5.200 151.200 C 5.200 152.080,5.020 152.800,4.800 152.800 C 4.580 152.800,4.400 153.599,4.400 154.576 C 4.400 155.553,4.220 156.464,4.000 156.600 C 3.780 156.736,3.600 157.557,3.600 158.424 C 3.600 159.291,3.420 160.000,3.200 160.000 C 2.980 160.000,2.800 160.889,2.800 161.976 C 2.800 163.063,2.620 164.064,2.400 164.200 C 2.180 164.336,2.000 165.416,2.000 166.600 C 2.000 167.784,1.820 168.864,1.600 169.000 C 1.380 169.136,1.200 170.482,1.200 171.990 C 1.200 173.829,1.035 174.788,0.700 174.900 C -0.032 175.144,-0.032 224.856,0.700 225.100 C 1.035 225.212,1.200 226.171,1.200 228.010 C 1.200 229.518,1.380 230.864,1.600 231.000 C 1.820 231.136,2.000 232.216,2.000 233.400 C 2.000 234.584,2.180 235.664,2.400 235.800 C 2.620 235.936,2.800 236.937,2.800 238.024 C 2.800 239.111,2.980 240.000,3.200 240.000 C 3.420 240.000,3.600 240.709,3.600 241.576 C 3.600 242.443,3.780 243.264,4.000 243.400 C 4.220 243.536,4.400 244.447,4.400 245.424 C 4.400 246.401,4.580 247.200,4.800 247.200 C 5.020 247.200,5.200 247.920,5.200 248.800 C 5.200 249.680,5.380 250.400,5.600 250.400 C 5.820 250.400,6.000 251.019,6.000 251.776 C 6.000 252.533,6.180 253.264,6.400 253.400 C 6.620 253.536,6.800 254.177,6.800 254.824 C 6.800 255.471,6.980 256.000,7.200 256.000 C 7.420 256.000,7.600 256.630,7.600 257.400 C 7.600 258.170,7.780 258.800,8.000 258.800 C 8.220 258.800,8.400 259.340,8.400 260.000 C 8.400 260.660,8.580 261.200,8.800 261.200 C 9.020 261.200,9.200 261.740,9.200 262.400 C 9.200 263.060,9.380 263.600,9.600 263.600 C 9.820 263.600,10.000 264.044,10.000 264.586 C 10.000 265.490,10.768 268.242,11.567 270.200 C 12.422 272.297,12.923 273.458,13.247 274.095 C 13.441 274.477,13.600 275.062,13.600 275.395 C 13.600 275.728,13.780 276.000,14.000 276.000 C 14.220 276.000,14.400 276.439,14.400 276.976 C 14.400 277.513,14.580 278.064,14.800 278.200 C 15.020 278.336,15.200 278.797,15.200 279.224 C 15.200 279.651,15.380 280.000,15.600 280.000 C 15.820 280.000,16.000 280.360,16.000 280.800 C 16.000 281.240,16.180 281.600,16.400 281.600 C 16.620 281.600,16.800 281.853,16.800 282.162 C 16.800 282.471,17.139 283.416,17.553 284.262 C 17.967 285.108,18.732 286.700,19.253 287.800 C 19.774 288.900,20.335 289.860,20.500 289.933 C 20.665 290.007,20.800 290.412,20.800 290.833 C 20.800 291.255,20.980 291.600,21.200 291.600 C 21.420 291.600,21.600 291.945,21.600 292.367 C 21.600 292.788,21.735 293.193,21.900 293.267 C 22.065 293.340,22.633 294.255,23.163 295.300 C 23.692 296.345,24.277 297.200,24.463 297.200 C 24.648 297.200,24.800 297.560,24.800 298.000 C 24.800 298.440,24.980 298.800,25.200 298.800 C 25.420 298.800,25.600 299.078,25.600 299.417 C 25.600 299.756,25.945 300.404,26.367 300.856 C 26.788 301.309,27.248 302.135,27.387 302.692 C 27.654 303.755,30.708 308.504,31.272 308.733 C 31.453 308.807,31.600 309.172,31.600 309.545 C 31.600 309.918,31.960 310.483,32.400 310.800 C 32.840 311.117,33.200 311.657,33.200 312.000 C 33.200 312.343,33.560 312.883,34.000 313.200 C 34.440 313.517,34.800 313.962,34.801 314.188 C 34.801 314.415,35.341 315.230,36.000 316.000 C 36.659 316.770,37.199 317.585,37.199 317.812 C 37.200 318.038,37.560 318.483,38.000 318.800 C 38.440 319.117,38.800 319.572,38.800 319.810 C 38.800 320.049,39.385 320.902,40.100 321.706 C 42.213 324.081,43.513 325.706,44.572 327.295 C 45.121 328.118,46.386 329.607,47.385 330.606 C 48.383 331.604,49.200 332.580,49.200 332.773 C 49.200 332.967,51.085 334.988,53.388 337.263 C 58.024 341.843,58.637 342.454,63.758 347.615 C 65.715 349.587,67.482 351.200,67.684 351.200 C 67.886 351.200,68.929 352.100,70.000 353.200 C 71.071 354.300,72.102 355.200,72.290 355.200 C 72.478 355.200,73.428 355.920,74.400 356.800 C 75.372 357.680,76.328 358.400,76.524 358.400 C 76.720 358.400,77.510 359.030,78.280 359.800 C 79.050 360.570,79.892 361.200,80.152 361.200 C 80.411 361.200,80.883 361.560,81.200 362.000 C 81.517 362.440,82.009 362.800,82.292 362.800 C 82.575 362.800,83.372 363.340,84.063 364.000 C 84.754 364.660,85.522 365.200,85.771 365.200 C 86.020 365.200,86.483 365.560,86.800 366.000 C 87.117 366.440,87.657 366.800,88.000 366.800 C 88.343 366.800,88.883 367.160,89.200 367.600 C 89.517 368.040,90.057 368.400,90.400 368.400 C 90.743 368.400,91.283 368.760,91.600 369.200 C 91.917 369.640,92.414 370.000,92.705 370.000 C 92.996 370.000,93.589 370.331,94.023 370.736 C 94.458 371.141,95.305 371.720,95.907 372.024 C 96.508 372.327,97.757 373.079,98.681 373.694 C 99.606 374.309,100.911 374.922,101.581 375.056 C 102.252 375.190,102.800 375.457,102.800 375.650 C 102.800 375.843,103.070 376.000,103.400 376.000 C 103.730 376.000,104.000 376.146,104.000 376.325 C 104.000 376.504,104.630 376.898,105.400 377.200 C 106.170 377.502,106.800 377.896,106.800 378.075 C 106.800 378.254,107.160 378.400,107.600 378.400 C 108.040 378.400,108.400 378.580,108.400 378.800 C 108.400 379.020,108.760 379.200,109.200 379.200 C 109.640 379.200,110.000 379.380,110.000 379.600 C 110.000 379.820,110.360 380.000,110.800 380.000 C 111.240 380.000,111.600 380.180,111.600 380.400 C 111.600 380.620,111.960 380.800,112.400 380.800 C 112.840 380.800,113.200 380.980,113.200 381.200 C 113.200 381.420,113.549 381.600,113.976 381.600 C 114.403 381.600,114.864 381.780,115.000 382.000 C 115.136 382.220,115.597 382.400,116.024 382.400 C 116.451 382.400,116.800 382.580,116.800 382.800 C 116.800 383.020,117.160 383.200,117.600 383.200 C 118.040 383.200,118.400 383.380,118.400 383.600 C 118.400 383.820,118.760 384.000,119.200 384.000 C 119.640 384.000,120.000 384.180,120.000 384.400 C 120.000 384.620,120.349 384.800,120.776 384.800 C 121.203 384.800,121.664 384.980,121.800 385.200 C 121.936 385.420,122.487 385.600,123.024 385.600 C 123.561 385.600,124.000 385.780,124.000 386.000 C 124.000 386.220,124.272 386.400,124.605 386.400 C 124.938 386.400,125.568 386.580,126.005 386.800 C 126.442 387.020,127.158 387.380,127.595 387.600 C 128.032 387.820,128.752 388.000,129.195 388.000 C 129.638 388.000,130.000 388.180,130.000 388.400 C 130.000 388.620,130.362 388.800,130.805 388.800 C 131.248 388.800,131.923 388.976,132.305 389.191 C 133.508 389.868,139.174 391.600,140.185 391.600 C 140.717 391.600,141.264 391.780,141.400 392.000 C 141.536 392.220,142.177 392.400,142.824 392.400 C 143.471 392.400,144.000 392.580,144.000 392.800 C 144.000 393.020,144.630 393.200,145.400 393.200 C 146.170 393.200,146.800 393.380,146.800 393.600 C 146.800 393.820,147.419 394.000,148.176 394.000 C 148.933 394.000,149.664 394.180,149.800 394.400 C 149.936 394.620,150.667 394.800,151.424 394.800 C 152.181 394.800,152.800 394.980,152.800 395.200 C 152.800 395.420,153.599 395.600,154.576 395.600 C 155.553 395.600,156.464 395.780,156.600 396.000 C 156.736 396.220,157.546 396.400,158.400 396.400 C 159.254 396.400,160.064 396.580,160.200 396.800 C 160.336 397.020,161.337 397.200,162.424 397.200 C 163.511 397.200,164.400 397.380,164.400 397.600 C 164.400 397.822,165.467 398.000,166.800 398.000 C 168.133 398.000,169.200 398.178,169.200 398.400 C 169.200 398.628,170.389 398.800,171.967 398.800 C 173.824 398.800,174.788 398.964,174.900 399.300 C 175.144 400.032,224.856 400.032,225.100 399.300 C 225.212 398.964,226.176 398.800,228.033 398.800 C 229.611 398.800,230.800 398.628,230.800 398.400 C 230.800 398.178,231.859 398.000,233.176 398.000 C 234.483 398.000,235.664 397.820,235.800 397.600 C 235.936 397.380,236.937 397.200,238.024 397.200 C 239.111 397.200,240.000 397.020,240.000 396.800 C 240.000 396.580,240.720 396.400,241.600 396.400 C 242.480 396.400,243.200 396.220,243.200 396.000 C 243.200 395.780,244.100 395.600,245.200 395.600 C 246.300 395.600,247.200 395.420,247.200 395.200 C 247.200 394.980,247.920 394.800,248.800 394.800 C 249.680 394.800,250.400 394.620,250.400 394.400 C 250.400 394.180,251.019 394.000,251.776 394.000 C 252.533 394.000,253.264 393.820,253.400 393.600 C 253.536 393.380,254.177 393.200,254.824 393.200 C 255.471 393.200,256.000 393.020,256.000 392.800 C 256.000 392.580,256.630 392.400,257.400 392.400 C 258.170 392.400,258.800 392.243,258.800 392.052 C 258.800 391.860,259.741 391.578,260.890 391.426 C 262.040 391.273,263.165 391.013,263.390 390.846 C 263.616 390.680,264.610 390.314,265.600 390.033 C 266.590 389.752,267.713 389.360,268.095 389.161 C 268.477 388.962,269.062 388.800,269.395 388.800 C 269.728 388.800,270.000 388.620,270.000 388.400 C 270.000 388.180,270.439 388.000,270.976 388.000 C 271.513 388.000,272.064 387.820,272.200 387.600 C 272.336 387.380,272.887 387.200,273.424 387.200 C 273.961 387.200,274.400 387.020,274.400 386.800 C 274.400 386.580,274.760 386.400,275.200 386.400 C 275.640 386.400,276.000 386.220,276.000 386.000 C 276.000 385.780,276.439 385.600,276.976 385.600 C 277.513 385.600,278.064 385.420,278.200 385.200 C 278.336 384.980,278.797 384.800,279.224 384.800 C 279.651 384.800,280.000 384.620,280.000 384.400 C 280.000 384.180,280.360 384.000,280.800 384.000 C 281.240 384.000,281.600 383.820,281.600 383.600 C 281.600 383.380,281.960 383.200,282.400 383.200 C 282.840 383.200,283.200 383.020,283.200 382.800 C 283.200 382.580,283.535 382.400,283.944 382.400 C 284.746 382.400,289.713 379.995,289.933 379.500 C 290.007 379.335,290.412 379.200,290.833 379.200 C 291.255 379.200,291.600 379.020,291.600 378.800 C 291.600 378.580,291.960 378.400,292.400 378.400 C 292.840 378.400,293.200 378.220,293.200 378.000 C 293.200 377.780,293.478 377.600,293.817 377.600 C 294.156 377.600,294.820 377.240,295.292 376.800 C 295.764 376.360,296.387 376.000,296.675 376.000 C 296.964 376.000,297.200 375.820,297.200 375.600 C 297.200 375.380,297.479 375.200,297.820 375.200 C 298.442 375.200,300.825 374.102,301.200 373.644 C 301.310 373.509,301.940 373.134,302.600 372.810 C 304.261 371.995,308.571 369.127,308.733 368.728 C 308.807 368.547,309.172 368.400,309.545 368.400 C 309.918 368.400,310.483 368.040,310.800 367.600 C 311.117 367.160,311.657 366.800,312.000 366.800 C 312.343 366.800,312.883 366.440,313.200 366.000 C 313.517 365.560,314.009 365.200,314.292 365.200 C 314.575 365.200,315.372 364.660,316.063 364.000 C 316.754 363.340,317.522 362.800,317.771 362.800 C 318.020 362.800,318.483 362.440,318.800 362.000 C 319.117 361.560,319.572 361.200,319.810 361.200 C 320.049 361.200,320.931 360.570,321.772 359.800 C 322.613 359.030,323.423 358.400,323.572 358.400 C 323.721 358.400,324.531 357.770,325.372 357.000 C 326.213 356.230,327.054 355.600,327.242 355.600 C 327.429 355.600,328.573 354.610,329.783 353.400 C 330.993 352.190,332.157 351.200,332.371 351.200 C 332.584 351.200,334.703 349.230,337.079 346.821 C 342.316 341.514,341.514 342.316,346.821 337.079 C 349.230 334.703,351.200 332.584,351.200 332.371 C 351.200 332.157,352.190 330.993,353.400 329.783 C 354.610 328.573,355.600 327.429,355.600 327.242 C 355.600 327.054,356.230 326.213,357.000 325.372 C 357.770 324.531,358.400 323.721,358.400 323.572 C 358.400 323.423,359.030 322.613,359.800 321.772 C 360.570 320.931,361.200 320.049,361.200 319.810 C 361.200 319.572,361.560 319.117,362.000 318.800 C 362.440 318.483,362.800 318.038,362.801 317.812 C 362.801 317.585,363.341 316.770,364.000 316.000 C 364.659 315.230,365.199 314.415,365.199 314.188 C 365.200 313.962,365.560 313.517,366.000 313.200 C 366.440 312.883,366.800 312.343,366.800 312.000 C 366.800 311.657,367.160 311.117,367.600 310.800 C 368.040 310.483,368.400 309.918,368.400 309.545 C 368.400 309.172,368.547 308.807,368.728 308.733 C 369.127 308.571,371.995 304.261,372.810 302.600 C 373.134 301.940,373.509 301.310,373.644 301.200 C 374.032 300.882,375.200 298.484,375.200 298.003 C 375.200 297.763,375.560 297.180,376.000 296.708 C 376.440 296.236,376.800 295.613,376.800 295.325 C 376.800 295.036,376.980 294.800,377.200 294.800 C 377.420 294.800,377.600 294.440,377.600 294.000 C 377.600 293.560,377.780 293.200,378.000 293.200 C 378.220 293.200,378.400 292.840,378.400 292.400 C 378.400 291.960,378.580 291.600,378.800 291.600 C 379.020 291.600,379.200 291.255,379.200 290.833 C 379.200 290.412,379.336 290.007,379.502 289.933 C 379.668 289.860,380.407 288.540,381.144 287.000 C 381.881 285.460,382.645 283.887,382.842 283.505 C 383.039 283.123,383.200 282.538,383.200 282.205 C 383.200 281.872,383.380 281.600,383.600 281.600 C 383.820 281.600,384.000 281.240,384.000 280.800 C 384.000 280.360,384.180 280.000,384.400 280.000 C 384.620 280.000,384.800 279.651,384.800 279.224 C 384.800 278.797,384.980 278.336,385.200 278.200 C 385.420 278.064,385.600 277.513,385.600 276.976 C 385.600 276.439,385.780 276.000,386.000 276.000 C 386.220 276.000,386.400 275.640,386.400 275.200 C 386.400 274.760,386.580 274.400,386.800 274.400 C 387.020 274.400,387.200 274.038,387.200 273.595 C 387.200 273.152,387.359 272.477,387.553 272.095 C 388.202 270.819,388.741 269.421,389.593 266.800 C 390.057 265.370,390.601 263.901,390.800 263.535 C 391.000 263.169,391.285 261.954,391.433 260.835 C 391.582 259.716,391.860 258.800,392.052 258.800 C 392.243 258.800,392.400 258.170,392.400 257.400 C 392.400 256.630,392.580 256.000,392.800 256.000 C 393.020 256.000,393.200 255.471,393.200 254.824 C 393.200 254.177,393.380 253.536,393.600 253.400 C 393.820 253.264,394.000 252.533,394.000 251.776 C 394.000 251.019,394.180 250.400,394.400 250.400 C 394.620 250.400,394.800 249.680,394.800 248.800 C 394.800 247.920,394.980 247.200,395.200 247.200 C 395.420 247.200,395.600 246.401,395.600 245.424 C 395.600 244.447,395.780 243.536,396.000 243.400 C 396.220 243.264,396.400 242.443,396.400 241.576 C 396.400 240.709,396.580 240.000,396.800 240.000 C 397.020 240.000,397.200 239.111,397.200 238.024 C 397.200 236.937,397.380 235.936,397.600 235.800 C 397.820 235.664,398.000 234.483,398.000 233.176 C 398.000 231.859,398.178 230.800,398.400 230.800 C 398.628 230.800,398.800 229.611,398.800 228.033 C 398.800 226.176,398.964 225.212,399.300 225.100 C 399.693 224.969,399.800 219.591,399.800 200.000 C 399.800 180.409,399.693 175.031,399.300 174.900 C 398.964 174.788,398.800 173.824,398.800 171.967 C 398.800 170.389,398.628 169.200,398.400 169.200 C 398.178 169.200,398.000 168.141,398.000 166.824 C 398.000 165.517,397.820 164.336,397.600 164.200 C 397.380 164.064,397.200 163.063,397.200 161.976 C 397.200 160.889,397.020 160.000,396.800 160.000 C 396.580 160.000,396.400 159.291,396.400 158.424 C 396.400 157.557,396.220 156.736,396.000 156.600 C 395.780 156.464,395.600 155.553,395.600 154.576 C 395.600 153.599,395.420 152.800,395.200 152.800 C 394.980 152.800,394.800 152.080,394.800 151.200 C 394.800 150.320,394.620 149.600,394.400 149.600 C 394.180 149.600,394.000 148.970,394.000 148.200 C 394.000 147.430,393.820 146.800,393.600 146.800 C 393.380 146.800,393.200 146.170,393.200 145.400 C 393.200 144.630,393.020 144.000,392.800 144.000 C 392.580 144.000,392.400 143.370,392.400 142.600 C 392.400 141.830,392.243 141.200,392.052 141.200 C 391.860 141.200,391.582 140.284,391.433 139.165 C 391.285 138.046,391.000 136.831,390.800 136.465 C 390.601 136.099,390.057 134.630,389.593 133.200 C 388.741 130.579,388.202 129.181,387.553 127.905 C 387.359 127.523,387.200 126.848,387.200 126.405 C 387.200 125.962,387.020 125.600,386.800 125.600 C 386.580 125.600,386.400 125.240,386.400 124.800 C 386.400 124.360,386.220 124.000,386.000 124.000 C 385.780 124.000,385.600 123.561,385.600 123.024 C 385.600 122.487,385.420 121.936,385.200 121.800 C 384.980 121.664,384.800 121.203,384.800 120.776 C 384.800 120.349,384.620 120.000,384.400 120.000 C 384.180 120.000,384.000 119.640,384.000 119.200 C 384.000 118.760,383.820 118.400,383.600 118.400 C 383.380 118.400,383.200 118.040,383.200 117.600 C 383.200 117.160,383.020 116.800,382.800 116.800 C 382.580 116.800,382.400 116.528,382.400 116.195 C 382.400 115.862,382.232 115.277,382.026 114.895 C 381.821 114.513,381.417 113.615,381.129 112.900 C 380.840 112.185,380.469 111.600,380.302 111.600 C 380.136 111.600,380.000 111.240,380.000 110.800 C 380.000 110.360,379.820 110.000,379.600 110.000 C 379.380 110.000,379.200 109.640,379.200 109.200 C 379.200 108.760,379.020 108.400,378.800 108.400 C 378.580 108.400,378.400 108.040,378.400 107.600 C 378.400 107.160,378.220 106.800,378.000 106.800 C 377.780 106.800,377.600 106.440,377.600 106.000 C 377.600 105.560,377.420 105.200,377.200 105.200 C 376.980 105.200,376.800 104.964,376.800 104.675 C 376.800 104.387,376.469 103.796,376.065 103.362 C 375.661 102.928,375.201 102.057,375.042 101.425 C 374.884 100.794,374.264 99.540,373.665 98.639 C 373.066 97.737,372.327 96.508,372.024 95.907 C 371.720 95.305,371.141 94.458,370.736 94.023 C 370.331 93.589,370.000 92.996,370.000 92.705 C 370.000 92.414,369.640 91.917,369.200 91.600 C 368.760 91.283,368.400 90.743,368.400 90.400 C 368.400 90.057,368.040 89.517,367.600 89.200 C 367.160 88.883,366.800 88.343,366.800 88.000 C 366.800 87.657,366.440 87.117,366.000 86.800 C 365.560 86.483,365.200 86.038,365.199 85.812 C 365.199 85.585,364.659 84.770,364.000 84.000 C 363.341 83.230,362.801 82.415,362.801 82.188 C 362.800 81.962,362.440 81.517,362.000 81.200 C 361.560 80.883,361.200 80.428,361.200 80.190 C 361.200 79.951,360.570 79.069,359.800 78.228 C 359.030 77.387,358.400 76.577,358.400 76.428 C 358.400 76.279,357.770 75.469,357.000 74.628 C 356.230 73.787,355.600 72.946,355.600 72.758 C 355.600 72.571,354.610 71.427,353.400 70.217 C 352.190 69.007,351.200 67.860,351.200 67.667 C 351.200 67.474,349.587 65.715,347.615 63.758 C 342.956 59.134,342.222 58.400,337.050 53.186 C 334.658 50.774,332.529 48.800,332.319 48.800 C 332.109 48.800,331.257 48.092,330.425 47.227 C 329.594 46.361,328.213 45.186,327.357 44.614 C 325.709 43.515,324.100 42.230,321.706 40.100 C 320.902 39.385,320.049 38.800,319.810 38.800 C 319.572 38.800,319.117 38.440,318.800 38.000 C 318.483 37.560,318.038 37.200,317.812 37.199 C 317.585 37.199,316.770 36.659,316.000 36.000 C 315.230 35.341,314.415 34.801,314.188 34.801 C 313.962 34.800,313.517 34.440,313.200 34.000 C 312.883 33.560,312.343 33.200,312.000 33.200 C 311.657 33.200,311.117 32.840,310.800 32.400 C 310.483 31.960,309.918 31.600,309.545 31.600 C 309.172 31.600,308.807 31.453,308.733 31.272 C 308.499 30.697,303.745 27.652,302.653 27.377 C 302.074 27.232,301.600 26.953,301.600 26.757 C 301.600 26.560,301.330 26.400,301.000 26.400 C 300.670 26.400,300.400 26.220,300.400 26.000 C 300.400 25.780,300.040 25.600,299.600 25.600 C 299.160 25.600,298.800 25.420,298.800 25.200 C 298.800 24.980,298.522 24.800,298.183 24.800 C 297.844 24.800,297.180 24.440,296.708 24.000 C 296.236 23.560,295.613 23.200,295.325 23.200 C 295.036 23.200,294.800 23.020,294.800 22.800 C 294.800 22.580,294.440 22.400,294.000 22.400 C 293.560 22.400,293.200 22.220,293.200 22.000 C 293.200 21.780,292.840 21.600,292.400 21.600 C 291.960 21.600,291.600 21.420,291.600 21.200 C 291.600 20.980,291.255 20.800,290.833 20.800 C 290.412 20.800,290.007 20.664,289.933 20.498 C 289.860 20.332,288.540 19.593,287.000 18.856 C 285.460 18.119,283.887 17.355,283.505 17.158 C 283.123 16.961,282.538 16.800,282.205 16.800 C 281.872 16.800,281.600 16.620,281.600 16.400 C 281.600 16.180,281.240 16.000,280.800 16.000 C 280.360 16.000,280.000 15.820,280.000 15.600 C 280.000 15.380,279.651 15.200,279.224 15.200 C 278.797 15.200,278.336 15.020,278.200 14.800 C 278.064 14.580,277.513 14.400,276.976 14.400 C 276.439 14.400,276.000 14.220,276.000 14.000 C 276.000 13.780,275.728 13.600,275.395 13.600 C 275.062 13.600,274.477 13.441,274.095 13.247 C 273.713 13.052,272.950 12.716,272.400 12.500 C 271.850 12.284,270.950 11.912,270.400 11.674 C 268.469 10.837,265.562 10.000,264.586 10.000 C 264.044 10.000,263.600 9.820,263.600 9.600 C 263.600 9.380,263.060 9.200,262.400 9.200 C 261.740 9.200,261.200 9.020,261.200 8.800 C 261.200 8.580,260.660 8.400,260.000 8.400 C 259.340 8.400,258.800 8.220,258.800 8.000 C 258.800 7.780,258.170 7.600,257.400 7.600 C 256.630 7.600,256.000 7.420,256.000 7.200 C 256.000 6.980,255.471 6.800,254.824 6.800 C 254.177 6.800,253.536 6.620,253.400 6.400 C 253.264 6.180,252.533 6.000,251.776 6.000 C 251.019 6.000,250.400 5.820,250.400 5.600 C 250.400 5.380,249.680 5.200,248.800 5.200 C 247.920 5.200,247.200 5.020,247.200 4.800 C 247.200 4.580,246.401 4.400,245.424 4.400 C 244.447 4.400,243.536 4.220,243.400 4.000 C 243.264 3.780,242.443 3.600,241.576 3.600 C 240.709 3.600,240.000 3.420,240.000 3.200 C 240.000 2.980,239.111 2.800,238.024 2.800 C 236.937 2.800,235.936 2.620,235.800 2.400 C 235.664 2.180,234.584 2.000,233.400 2.000 C 232.216 2.000,231.136 1.820,231.000 1.600 C 230.864 1.380,229.518 1.200,228.010 1.200 C 226.196 1.200,225.211 1.033,225.103 0.708 C 224.941 0.223,187.959 -0.121,178.500 0.275 M291.505 130.776 C 291.887 130.983,292.721 131.262,293.358 131.398 C 295.468 131.847,299.316 136.014,300.319 138.938 L 301.200 141.505 301.200 200.473 C 301.200 232.905,301.057 259.611,300.882 259.820 C 300.707 260.029,300.327 260.920,300.038 261.800 C 299.079 264.718,295.335 268.061,291.548 269.380 C 288.891 270.305,111.109 270.305,108.452 269.380 C 103.938 267.808,100.994 264.866,99.426 260.363 C 98.499 257.701,98.493 142.314,99.420 139.652 C 100.697 135.985,104.278 131.899,106.656 131.395 C 107.285 131.261,108.070 130.994,108.400 130.800 C 109.229 130.312,290.605 130.289,291.505 130.776 M127.633 144.987 C 130.945 148.710,198.858 216.093,199.613 216.406 C 200.701 216.856,201.020 216.558,222.974 194.631 C 235.216 182.404,245.375 172.400,245.550 172.400 C 245.852 172.400,273.200 145.244,273.200 144.944 C 273.200 144.865,240.410 144.800,200.333 144.800 C 160.257 144.800,127.542 144.884,127.633 144.987 M113.600 204.101 L 113.600 255.200 119.292 255.200 L 124.983 255.200 137.292 243.100 C 144.062 236.445,154.280 226.414,160.000 220.809 C 165.720 215.203,170.400 210.433,170.400 210.208 C 170.400 209.982,157.620 197.019,142.000 181.400 L 113.600 153.002 113.600 204.101 M258.299 181.901 C 242.955 197.247,230.405 209.982,230.410 210.201 C 230.416 210.420,235.231 215.322,241.110 221.094 C 246.990 226.865,257.204 236.900,263.809 243.394 L 275.817 255.200 281.109 255.200 L 286.400 255.200 286.400 204.600 C 286.400 176.770,286.355 154.000,286.299 154.000 C 286.243 154.000,273.643 166.555,258.299 181.901 M180.103 222.793 C 179.183 223.677,178.260 224.400,178.050 224.400 C 177.841 224.400,171.042 231.060,162.941 239.200 C 154.840 247.340,148.006 254.000,147.755 254.000 C 147.504 254.000,147.074 254.270,146.800 254.600 C 146.358 255.133,152.308 255.200,199.951 255.200 C 229.458 255.200,253.600 255.140,253.600 255.067 C 253.600 254.709,240.487 241.600,240.128 241.600 C 239.900 241.600,235.091 236.975,229.442 231.321 L 219.170 221.043 214.679 225.521 C 212.209 227.985,209.997 230.000,209.763 230.000 C 209.530 230.000,208.912 230.455,208.390 231.010 C 207.301 232.170,205.406 233.200,204.362 233.200 C 203.969 233.200,203.536 233.380,203.400 233.600 C 203.264 233.820,201.914 234.000,200.400 234.000 C 198.886 234.000,197.536 233.820,197.400 233.600 C 197.264 233.380,196.831 233.200,196.438 233.200 C 195.526 233.200,193.432 232.161,192.793 231.392 C 192.523 231.066,192.102 230.800,191.857 230.800 C 191.612 230.800,189.243 228.637,186.593 225.993 L 181.775 221.187 180.103 222.793 " stroke="none" fill="#040404" fill-rule="evenodd"></path><path id="path4" d="M107.812 131.630 C 105.013 132.692,101.448 136.332,100.401 139.197 C 99.612 141.357,99.601 142.237,99.697 200.394 L 99.795 259.400 99.999 200.000 C 100.231 132.829,99.888 138.788,103.742 134.956 C 107.955 130.768,97.602 131.159,200.862 131.288 C 250.506 131.349,290.916 131.268,290.662 131.106 C 289.441 130.329,109.884 130.844,107.812 131.630 M293.000 132.362 C 295.069 133.325,297.894 136.264,299.079 138.689 C 299.593 139.740,299.897 140.150,299.756 139.600 C 298.978 136.575,294.182 131.643,292.000 131.623 C 291.670 131.620,292.120 131.953,293.000 132.362 M300.195 200.000 C 300.195 232.670,300.242 246.035,300.300 229.700 C 300.358 213.365,300.358 186.635,300.300 170.300 C 300.242 153.965,300.195 167.330,300.195 200.000 M125.714 143.921 C 125.391 144.127,132.964 151.933,148.314 167.215 L 171.400 190.200 148.900 167.599 C 136.525 155.168,126.400 144.773,126.400 144.499 C 126.400 144.102,141.571 144.000,200.400 144.000 C 258.982 144.000,274.400 144.103,274.400 144.496 C 274.400 144.768,271.475 147.963,267.900 151.596 L 261.400 158.200 268.488 151.216 C 273.255 146.520,275.416 144.131,275.088 143.922 C 274.451 143.518,126.351 143.517,125.714 143.921 M112.614 151.223 C 112.493 151.540,112.441 175.290,112.497 204.000 L 112.600 256.200 118.800 256.299 L 125.000 256.398 134.800 246.760 C 140.190 241.458,146.400 235.404,148.600 233.306 C 152.055 230.011,152.263 229.745,150.132 231.350 C 148.774 232.372,147.228 233.702,146.696 234.304 C 146.164 234.907,141.051 240.040,135.335 245.711 L 124.942 256.022 118.971 255.911 L 113.000 255.800 112.898 204.222 C 112.840 174.365,112.947 152.493,113.154 152.286 C 113.549 151.891,171.200 209.322,171.200 210.111 C 171.200 210.375,168.455 213.383,165.100 216.795 L 159.000 223.000 165.126 217.000 C 168.495 213.700,171.409 210.717,171.602 210.372 C 171.876 209.879,165.604 203.398,142.392 180.195 C 122.651 160.460,112.761 150.838,112.614 151.223 M257.937 180.700 C 242.139 196.485,229.210 209.672,229.206 210.005 C 229.203 210.338,231.855 213.218,235.100 216.405 L 241.000 222.200 235.300 216.395 C 232.165 213.202,229.600 210.412,229.600 210.194 C 229.600 209.738,286.448 152.800,286.903 152.800 C 287.068 152.800,287.157 175.975,287.102 204.300 L 287.000 255.800 281.439 255.912 L 275.878 256.023 263.805 244.012 C 257.165 237.405,251.533 232.000,251.290 232.000 C 251.047 232.000,251.870 232.945,253.119 234.100 C 254.369 235.255,259.983 240.747,265.595 246.304 L 275.800 256.408 281.600 256.304 L 287.400 256.200 287.501 204.100 C 287.579 164.351,287.491 152.000,287.132 152.000 C 286.873 152.000,273.735 164.915,257.937 180.700 M229.010 189.695 L 212.200 206.589 229.189 189.795 C 238.533 180.558,246.258 172.955,246.356 172.900 C 246.453 172.845,246.373 172.800,246.177 172.800 C 245.980 172.800,238.255 180.403,229.010 189.695 M189.217 207.793 C 190.155 209.068,191.600 210.466,191.600 210.097 C 191.600 209.910,190.933 209.137,190.117 208.378 C 189.302 207.620,188.897 207.357,189.217 207.793 M196.600 215.107 C 198.140 216.680,199.670 218.073,200.000 218.205 C 200.533 218.417,200.533 218.382,200.000 217.895 C 199.670 217.593,198.140 216.199,196.600 214.797 L 193.800 212.249 196.600 215.107 M178.800 222.482 C 177.370 223.826,176.920 224.376,177.800 223.703 C 178.680 223.030,179.836 222.012,180.370 221.440 C 181.710 220.002,181.536 219.907,186.325 224.700 C 188.688 227.065,191.067 229.348,191.611 229.774 C 192.155 230.199,190.246 228.174,187.370 225.274 C 181.282 219.135,182.083 219.396,178.800 222.482 M213.829 224.866 C 211.173 227.543,209.540 229.355,210.200 228.895 C 210.860 228.434,213.097 226.343,215.172 224.249 C 217.246 222.155,219.119 220.550,219.333 220.682 C 219.550 220.816,219.596 220.718,219.438 220.462 C 218.973 219.709,218.860 219.797,213.829 224.866 M233.230 234.100 C 237.328 238.225,240.914 241.600,241.200 241.600 C 241.486 241.600,240.992 241.073,240.102 240.428 C 239.213 239.784,238.231 238.929,237.921 238.528 C 237.610 238.128,234.751 235.280,231.568 232.200 C 227.102 227.880,227.482 228.314,233.230 234.100 M158.000 242.569 C 151.730 248.818,146.870 253.777,147.200 253.590 C 147.884 253.203,169.899 231.198,169.597 231.204 C 169.489 231.206,164.270 236.321,158.000 242.569 M205.319 231.762 C 203.555 232.404,203.194 232.861,204.819 232.395 C 205.549 232.185,206.329 231.831,206.553 231.607 C 207.019 231.141,207.028 231.140,205.319 231.762 M196.746 232.578 C 197.601 232.973,199.060 233.176,200.746 233.134 L 203.400 233.068 200.400 232.790 C 198.750 232.637,196.950 232.387,196.400 232.234 C 195.809 232.070,195.951 232.211,196.746 232.578 M250.300 250.406 C 252.775 252.940,254.800 255.235,254.800 255.506 C 254.800 255.896,243.203 256.000,200.000 256.000 C 169.860 256.000,145.200 255.856,145.200 255.680 C 145.200 255.504,145.425 255.104,145.700 254.791 C 145.975 254.477,145.799 254.556,145.309 254.964 C 144.820 255.373,144.515 255.863,144.633 256.053 C 144.906 256.495,255.482 256.514,255.755 256.073 C 255.866 255.893,253.672 253.508,250.879 250.773 L 245.800 245.800 250.300 250.406 M100.244 260.400 C 101.077 263.641,105.158 267.722,108.400 268.556 C 108.950 268.697,108.540 268.393,107.489 267.879 C 104.925 266.626,102.116 263.844,100.945 261.400 C 100.418 260.300,100.103 259.850,100.244 260.400 M299.177 261.068 C 298.481 263.179,294.733 267.007,292.545 267.842 C 291.575 268.213,290.861 268.595,290.958 268.691 C 291.413 269.147,294.832 267.116,296.564 265.360 C 298.349 263.551,300.326 260.193,299.873 259.740 C 299.767 259.633,299.454 260.231,299.177 261.068 M154.700 269.100 C 179.615 269.157,220.385 269.157,245.300 269.100 C 270.215 269.043,249.830 268.997,200.000 268.997 C 150.170 268.997,129.785 269.043,154.700 269.100 " stroke="none" fill="#949494" fill-rule="evenodd"></path></g></svg>