<svg height="448pt" viewBox="0 0 448 448" width="448pt" xmlns="http://www.w3.org/2000/svg"><path d="m256 316.6875 36.6875-36.6875h-36.6875zm0 0"/><path d="m224 0c-123.710938 0-224 100.289062-224 224s100.289062 224 224 224 224-100.289062 224-224c-.140625-123.652344-100.347656-223.859375-224-224zm96 272c0 .167969-.089844.320312-.097656.488281-.042969.707031-.183594 1.40625-.414063 2.078125-.089843.257813-.152343.496094-.265625.746094-.386718.871094-.929687 1.664062-1.597656 2.34375l-64 64c-1.496094 1.488281-3.515625 2.332031-5.625 2.34375h-112c-4.417969 0-8-3.582031-8-8v-224c0-4.417969 3.582031-8 8-8h176c4.417969 0 8 3.582031 8 8zm0 0"/><path d="m144 328h96v-56c0-4.417969 3.582031-8 8-8h56v-144h-160zm40-160h80c4.417969 0 8 3.582031 8 8s-3.582031 8-8 8h-80c-4.417969 0-8-3.582031-8-8s3.582031-8 8-8zm0 48h80c4.417969 0 8 3.582031 8 8s-3.582031 8-8 8h-80c-4.417969 0-8-3.582031-8-8s3.582031-8 8-8zm0 48h32c4.417969 0 8 3.582031 8 8s-3.582031 8-8 8h-32c-4.417969 0-8-3.582031-8-8s3.582031-8 8-8zm0 0"/></svg>